<svg width="963" height="600" viewBox="0 0 963 600" fill="none" xmlns="http://www.w3.org/2000/svg">
<g clip-path="url(#clip0)">
<path d="M232.567 342.878V297.219H150V266.88L219.657 152.093H273.701V263.536H295.619V297.179H273.701V342.838L232.567 342.878ZM192.334 263.576H232.567V232.636C232.567 226.428 232.767 219.269 233.168 211.159C233.568 203.048 233.968 195.989 234.369 189.981H233.168C230.766 195.188 228.264 200.495 225.662 205.902C223.059 211.309 220.357 216.716 217.555 222.123L192.334 263.576Z" fill="#3F3356"/>
<path d="M700.949 342.878V297.219H618.381V266.88L688.038 152.093H742.082V263.536H764V297.179H742.082V342.838L700.949 342.878ZM660.716 263.576H700.949V232.636C700.949 226.428 701.149 219.269 701.549 211.159C701.949 203.048 702.35 195.989 702.75 189.981H701.549C699.147 195.188 696.645 200.495 694.043 205.902C691.441 211.309 688.739 216.716 685.936 222.123L660.716 263.576Z" fill="#3F3356"/>
<path d="M548.655 160.623C562.153 176.324 571.395 195.229 575.496 215.528C579.597 235.827 578.418 256.84 572.074 276.552C569.557 284.454 566.223 292.072 562.126 299.281C553.447 314.557 541.55 327.761 527.261 337.978C512.972 348.195 496.633 355.181 479.377 358.45C462.121 361.719 444.36 361.193 427.327 356.91C410.294 352.627 394.396 344.688 380.735 333.644C367.075 322.6 355.979 308.716 348.217 292.954C340.455 277.192 336.213 259.929 335.785 242.363C335.356 224.797 338.752 207.348 345.737 191.226C352.722 175.104 363.128 160.695 376.234 148.999C376.765 148.508 377.305 147.997 377.866 147.567C389.933 137.2 403.924 129.313 419.038 124.356C434.153 119.4 450.095 117.471 465.955 118.68C481.815 119.888 497.282 124.211 511.471 131.401C525.661 138.591 538.296 148.507 548.655 160.583V160.623Z" fill="url(#paint0_linear)"/>
<path d="M371 325.185C368.998 323.182 367.127 321.11 365.255 318.977L371 325.185Z" fill="url(#paint1_linear)"/>
<path d="M533.572 145.845C531.311 143.952 528.929 142.17 526.517 140.498L533.572 145.845Z" fill="url(#paint2_linear)"/>
<path d="M575.136 265.008C574.286 268.883 573.275 272.748 572.064 276.543C569.553 284.45 566.219 292.072 562.116 299.282C546.405 327.023 520.388 347.443 489.717 356.105C494.891 339.253 514.177 293.024 574.786 265.118L575.136 265.008Z" fill="#6045E2"/>
<path d="M544.391 155.918L552.758 165.66C547.403 180.479 538.396 192.535 523.734 197.01C473.793 212.31 493.069 248.577 426.085 276.112C389.405 291.191 383.12 317.165 384.591 336.88C371.758 327.353 360.938 315.377 352.755 301.645C361.702 288.628 377.335 274.079 404.637 262.194C471.812 232.916 435.813 181.801 483.902 157.87C495.734 151.981 505.95 143.292 513.666 132.558C517.734 134.677 521.662 137.055 525.425 139.677C514.827 149.539 505.169 158.701 499.955 164.058C484.002 180.369 441.988 245.342 455.138 236.151C468.289 226.959 486.784 195.819 508.482 185.606C518.84 180.749 532.391 168.684 544.391 155.918Z" fill="#6045E2"/>
<path d="M415.576 353.501C418.759 354.663 422.005 355.664 425.314 356.505L415.576 353.501ZM533.472 221.241C475.325 232.516 512.125 275.091 444.77 301.344C414.325 313.209 408.21 334.947 408.21 350.557C410.612 351.639 413.094 352.64 415.586 353.501C416.137 341.846 419.69 327.468 433.011 322.231C456.85 312.799 485.724 290.39 479.499 299.252C473.273 308.113 465.787 314.962 448.623 325.756C436.774 333.215 427.836 344.78 425.324 356.545C427.426 357.116 429.538 357.637 431.71 358.057C438.665 328.599 493.04 321.14 508.072 292.733C537.386 237.382 561.115 231.134 576.638 222.703C575.909 217.13 574.759 211.621 573.195 206.222C563.087 212.51 550.056 218.037 533.472 221.241Z" fill="#6045E2"/>
<path d="M424.504 122.675C420.761 134.49 412.824 147.006 397.842 158.401C361.703 185.806 364.985 217.937 335.792 245.252C336.161 254.025 337.504 262.73 339.795 271.206C356.618 254.865 376.074 239.585 397.372 229.242C447.963 204.68 463.205 149.429 467.819 118.9C453.271 117.525 438.595 118.804 424.504 122.675ZM440.837 163.988C439.776 177.876 428.247 208.045 382.179 227.57C376.835 229.823 371.721 223.855 374.873 218.999C382.695 207.094 392.566 196.673 404.027 188.219C431.6 167.733 442.008 148.679 440.837 163.988Z" fill="#6045E2"/>
<path d="M526.517 140.498C575.607 96.1809 613.477 72.1 622.265 82.3432C630.882 92.356 609.484 132.798 570.222 185.055C569.151 186.487 568.06 187.939 566.959 189.391C546.833 215.955 522.273 245.332 494.901 275.301C467.529 305.269 440.657 331.994 416.467 353.832L413.364 356.615C365.425 399.6 328.595 422.75 319.938 412.687C311.822 403.225 330.327 366.828 365.225 319.007L370.97 325.215C352.014 350.507 341.946 367.92 344.949 371.494C348.161 375.249 365.225 363.204 389.985 340.755L390.156 340.605C413.635 319.337 444.049 288.808 476.226 253.643C506.25 220.871 532.602 189.751 551.887 164.729C552.137 164.429 552.348 164.128 552.598 163.828C575.647 134.07 588.357 113.213 585.004 109.268C581.651 105.323 561.795 119.701 533.572 145.845L526.517 140.498Z" fill="#FFC22F"/>
</g>
<g clip-path="url(#clip1)">
<path d="M59.5838 41.2881C61.9587 43.6283 12.7457 95.9015 10.3988 98.2417C9.83412 98.7972 9.1639 99.2377 8.42643 99.538C7.68896 99.8383 6.89868 99.9926 6.10072 99.9919C5.30276 99.9913 4.51274 99.8358 3.77576 99.5343C3.03879 99.2328 2.3693 98.7912 1.80552 98.2348C0.666906 97.111 0.0279812 95.5875 0.0292989 93.9995C0.0299514 93.2133 0.187768 92.4348 0.493738 91.7086C0.799708 90.9824 1.24784 90.3227 1.81254 89.7672C4.21558 87.4409 57.2088 38.9479 59.5838 41.2881Z" fill="#FFC22F"/>
<path d="M99.8454 40.1527C102.22 42.4928 77.4732 70.6165 75.0983 73.0121C74.5409 73.6 73.8692 74.0714 73.123 74.3982C72.3769 74.7249 71.5717 74.9004 70.7553 74.9141C69.9389 74.9278 69.1281 74.7794 68.3711 74.4779C67.6141 74.1763 66.9265 73.7277 66.3491 73.1588C65.7718 72.5899 65.3165 71.9123 65.0105 71.1664C64.7044 70.4205 64.5539 69.6215 64.5678 68.8171C64.5817 68.0127 64.7597 67.2192 65.0913 66.484C65.4229 65.7488 65.9013 65.0868 66.498 64.5376C68.8589 62.1559 97.4704 37.8263 99.8454 40.1527Z" fill="#FFC22F"/>
</g>
<g clip-path="url(#clip2)">
<path d="M843.584 436.288C845.959 438.628 796.746 490.902 794.399 493.242C793.834 493.797 793.164 494.238 792.426 494.538C791.689 494.838 790.899 494.993 790.101 494.992C789.303 494.991 788.513 494.836 787.776 494.534C787.039 494.233 786.369 493.791 785.806 493.235C784.667 492.111 784.028 490.588 784.029 489C784.03 488.213 784.188 487.435 784.494 486.709C784.8 485.982 785.248 485.323 785.813 484.767C788.216 482.441 841.209 433.948 843.584 436.288Z" fill="#FFC22F"/>
<path d="M883.845 435.153C886.22 437.493 861.473 465.617 859.098 468.012C858.541 468.6 857.869 469.071 857.123 469.398C856.377 469.725 855.572 469.9 854.755 469.914C853.939 469.928 853.128 469.779 852.371 469.478C851.614 469.176 850.926 468.728 850.349 468.159C849.772 467.59 849.317 466.912 849.01 466.166C848.704 465.421 848.554 464.622 848.568 463.817C848.582 463.013 848.76 462.219 849.091 461.484C849.423 460.749 849.901 460.087 850.498 459.538C852.859 457.156 881.47 432.826 883.845 435.153Z" fill="#FFC22F"/>
</g>
<path d="M884 40L890.078 53.9219L904 60L890.078 66.0781L884 80L877.922 66.0781L864 60L877.922 53.9219L884 40Z" fill="url(#paint3_linear)"/>
<path d="M30 415L36.0781 428.922L50 435L36.0781 441.078L30 455L23.9219 441.078L10 435L23.9219 428.922L30 415Z" fill="url(#paint4_linear)"/>
<path d="M437 0L440.039 6.96097L447 10L440.039 13.039L437 20L433.961 13.039L427 10L433.961 6.96097L437 0Z" fill="url(#paint5_linear)"/>
<path d="M953 580L956.039 586.961L963 590L956.039 593.039L953 600L949.961 593.039L943 590L949.961 586.961L953 580Z" fill="url(#paint6_linear)"/>
<path d="M150 580L153.039 586.961L160 590L153.039 593.039L150 600L146.961 593.039L140 590L146.961 586.961L150 580Z" fill="url(#paint7_linear)"/>
<defs>
<linearGradient id="paint0_linear" x1="563.839" y1="247.737" x2="368.302" y2="232.794" gradientUnits="userSpaceOnUse">
<stop stop-color="#6544E9"/>
<stop offset="1" stop-color="#7558FF"/>
</linearGradient>
<linearGradient id="paint1_linear" x1="370.87" y1="322.297" x2="365.86" y2="321.915" gradientUnits="userSpaceOnUse">
<stop stop-color="#9A14E0"/>
<stop offset="0.8" stop-color="#C633F2"/>
<stop offset="1" stop-color="#D23CF7"/>
</linearGradient>
<linearGradient id="paint2_linear" x1="3423.26" y1="1017.12" x2="3401.31" y2="988.23" gradientUnits="userSpaceOnUse">
<stop stop-color="#9A14E0"/>
<stop offset="0.8" stop-color="#C633F2"/>
<stop offset="1" stop-color="#D23CF7"/>
</linearGradient>
<linearGradient id="paint3_linear" x1="864" y1="64.1071" x2="904" y2="64.1071" gradientUnits="userSpaceOnUse">
<stop stop-color="#B47BFF"/>
<stop offset="1" stop-color="#C88EFF"/>
</linearGradient>
<linearGradient id="paint4_linear" x1="10" y1="439.107" x2="50" y2="439.107" gradientUnits="userSpaceOnUse">
<stop stop-color="#B47BFF"/>
<stop offset="1" stop-color="#C88EFF"/>
</linearGradient>
<linearGradient id="paint5_linear" x1="427" y1="12.0536" x2="447" y2="12.0536" gradientUnits="userSpaceOnUse">
<stop stop-color="#B47BFF"/>
<stop offset="1" stop-color="#C88EFF"/>
</linearGradient>
<linearGradient id="paint6_linear" x1="943" y1="592.054" x2="963" y2="592.054" gradientUnits="userSpaceOnUse">
<stop stop-color="#B47BFF"/>
<stop offset="1" stop-color="#C88EFF"/>
</linearGradient>
<linearGradient id="paint7_linear" x1="140" y1="592.054" x2="160" y2="592.054" gradientUnits="userSpaceOnUse">
<stop stop-color="#B47BFF"/>
<stop offset="1" stop-color="#C88EFF"/>
</linearGradient>
<clipPath id="clip0">
<rect x="150" y="80" width="614" height="335" fill="white"/>
</clipPath>
<clipPath id="clip1">
<rect y="40" width="100" height="60" fill="white"/>
</clipPath>
<clipPath id="clip2">
<rect x="784" y="435" width="100" height="60" fill="white"/>
</clipPath>
</defs>
</svg>
