<svg width="26" height="26" viewBox="0 0 26 26" fill="none" xmlns="http://www.w3.org/2000/svg">
<g clip-path="url(#clip0)">
<path d="M2.18341 9.2791C2.43124 10.2084 2.98314 11.028 3.7511 11.607C4.51905 12.1861 5.4588 12.4913 6.42044 12.4739C6.44243 12.468 6.46442 12.4621 6.49016 12.4702L18.3003 11.3198L7.49517 16.229C7.47318 16.2349 7.45119 16.2408 7.43295 16.2607C6.59189 16.7272 5.93118 17.4618 5.55613 18.3474C5.18108 19.2331 5.11328 20.2188 5.36353 21.1474C5.65351 22.2233 6.35823 23.1403 7.32323 23.6975C8.28822 24.2546 9.43475 24.4064 10.5115 24.1196C10.9184 24.012 11.3 23.8247 11.6341 23.5685C11.9682 23.3124 12.2482 22.9926 12.4578 22.6275L13.8027 20.2981C13.9037 20.1011 13.9252 19.8727 13.8626 19.6603C13.8 19.4478 13.6581 19.2676 13.4663 19.1569C13.2745 19.0461 13.0475 19.0134 12.8322 19.0654C12.6169 19.1174 12.4298 19.2501 12.3097 19.4362L10.9649 21.7656C10.868 21.9338 10.7389 22.0813 10.5849 22.1994C10.4308 22.3175 10.2549 22.404 10.0673 22.4539C9.43107 22.6243 8.75319 22.5351 8.18278 22.2058C7.61236 21.8764 7.19613 21.334 7.02566 20.6978C6.87695 20.1457 6.91561 19.56 7.13558 19.0322C7.35555 18.5045 7.7444 18.0647 8.24118 17.7817L21.4208 11.7949C21.4427 11.789 21.4647 11.7831 21.483 11.7632C21.7355 11.6234 21.9341 11.403 22.0469 11.1373C22.1598 10.8716 22.1805 10.5757 22.1058 10.2969C22.0311 10.018 21.8652 9.77215 21.6346 9.59845C21.404 9.42476 21.1219 9.3332 20.8332 9.33836C20.8113 9.34426 20.7893 9.35015 20.7635 9.34205L6.35625 10.7471C5.78418 10.7504 5.22719 10.5637 4.77269 10.2163C4.31819 9.86885 3.9919 9.38035 3.84501 8.82745C3.67454 8.19124 3.76379 7.51336 4.09311 6.94294C4.42244 6.37253 4.96488 5.9563 5.6011 5.78582C5.78848 5.73496 5.98409 5.72179 6.1766 5.74707C6.3691 5.77236 6.55468 5.8356 6.72257 5.93312L9.05195 7.27799C9.249 7.37907 9.47738 7.40052 9.68981 7.33791C9.90224 7.27529 10.0825 7.13341 10.1932 6.94161C10.3039 6.74981 10.3367 6.52279 10.2847 6.30751C10.2327 6.09223 10.1 5.90518 9.91389 5.78506L7.58451 4.44019C7.22016 4.23048 6.81788 4.09502 6.4009 4.04164C5.98391 3.98825 5.56048 4.01799 5.15505 4.12915C4.07882 4.41923 3.16158 5.12431 2.6045 6.08975C2.04741 7.05519 1.89598 8.20216 2.18341 9.2791Z" fill="#6F51FF"/>
</g>
<defs>
<clipPath id="clip0">
<rect x="5.61768" y="25.4309" width="20.6957" height="20.6957" transform="rotate(-105 5.61768 25.4309)" fill="white"/>
</clipPath>
</defs>
</svg>
