<svg width="16" height="16" viewBox="0 0 16 16" fill="none" xmlns="http://www.w3.org/2000/svg">
<g clip-path="url(#clip0)">
<path d="M13.44 1.59922H12.16V0.66642C12.1632 0.503481 12.106 0.345123 11.9993 0.221909C11.8926 0.0986954 11.7441 0.0193617 11.5824 -0.000779919C11.4933 -0.00951358 11.4033 0.000559729 11.3183 0.0287885C11.2333 0.0570173 11.1552 0.102773 11.0889 0.163096C11.0227 0.22342 10.9699 0.296968 10.9339 0.378983C10.898 0.460999 10.8796 0.549655 10.88 0.63922V1.59922H5.12V0.66642C5.12323 0.503481 5.06598 0.345123 4.95932 0.221909C4.85265 0.0986954 4.70412 0.0193617 4.5424 -0.000779919C4.45326 -0.00951358 4.36328 0.000559729 4.27828 0.0287885C4.19328 0.0570173 4.11515 0.102773 4.04895 0.163096C3.98274 0.22342 3.92993 0.296968 3.89394 0.378983C3.85795 0.460999 3.83957 0.549655 3.84 0.63922V1.59922H2.56C1.88105 1.59922 1.2299 1.86893 0.749807 2.34903C0.269714 2.82912 0 3.48027 0 4.15922L0 14.0792C0 14.5884 0.202285 15.0768 0.562355 15.4369C0.922425 15.7969 1.41078 15.9992 1.92 15.9992H14.08C14.5892 15.9992 15.0776 15.7969 15.4376 15.4369C15.7977 15.0768 16 14.5884 16 14.0792V4.15922C16 3.48027 15.7303 2.82912 15.2502 2.34903C14.7701 1.86893 14.119 1.59922 13.44 1.59922ZM14.72 14.0792C14.72 14.249 14.6526 14.4117 14.5325 14.5318C14.4125 14.6518 14.2497 14.7192 14.08 14.7192H1.92C1.75026 14.7192 1.58747 14.6518 1.46745 14.5318C1.34743 14.4117 1.28 14.249 1.28 14.0792V6.07922C1.28 5.90948 1.34743 5.7467 1.46745 5.62667C1.58747 5.50665 1.75026 5.43922 1.92 5.43922H14.08C14.2497 5.43922 14.4125 5.50665 14.5325 5.62667C14.6526 5.7467 14.72 5.90948 14.72 6.07922V14.0792Z" fill="#B3B3BE"/>
<path d="M3.52006 6.72002H2.88006C2.70333 6.72002 2.56006 6.86329 2.56006 7.04002V7.68002C2.56006 7.85675 2.70333 8.00002 2.88006 8.00002H3.52006C3.69679 8.00002 3.84006 7.85675 3.84006 7.68002V7.04002C3.84006 6.86329 3.69679 6.72002 3.52006 6.72002Z" fill="#B3B3BE"/>
<path d="M6.08 6.72002H5.44C5.26326 6.72002 5.12 6.86329 5.12 7.04002V7.68002C5.12 7.85675 5.26326 8.00002 5.44 8.00002H6.08C6.25673 8.00002 6.4 7.85675 6.4 7.68002V7.04002C6.4 6.86329 6.25673 6.72002 6.08 6.72002Z" fill="#B3B3BE"/>
</g>
<defs>
<clipPath id="clip0">
<rect width="16" height="16" fill="white"/>
</clipPath>
</defs>
</svg>
