<svg width="20" height="20" viewBox="0 0 20 20" fill="none" xmlns="http://www.w3.org/2000/svg">
<g clip-path="url(#clip0)">
<path d="M18.4 7.2H14.8V1.6C14.8 1.17565 14.6314 0.768687 14.3314 0.468629C14.0313 0.168571 13.6243 0 13.2 0L6.8 0C6.37565 0 5.96869 0.168571 5.66863 0.468629C5.36857 0.768687 5.2 1.17565 5.2 1.6V4H1.6C1.17565 4 0.768687 4.16857 0.468629 4.46863C0.168571 4.76869 0 5.17565 0 5.6L0 18.4C0 18.8243 0.168571 19.2313 0.468629 19.5314C0.768687 19.8314 1.17565 20 1.6 20H18.4C18.8243 20 19.2313 19.8314 19.5314 19.5314C19.8314 19.2313 20 18.8243 20 18.4V8.8C20 8.37565 19.8314 7.96869 19.5314 7.66863C19.2313 7.36857 18.8243 7.2 18.4 7.2ZM1.6 5.6H5.2V18.4H1.6V5.6ZM6.8 18.4V1.6H13.2V18.4H6.8ZM18.4 18.4H14.8V8.8H18.4V18.4Z" fill="white"/>
</g>
<defs>
<clipPath id="clip0">
<rect width="20" height="20" fill="white"/>
</clipPath>
</defs>
</svg>
