<svg width="12" height="12" viewBox="0 0 12 12" fill="none" xmlns="http://www.w3.org/2000/svg">
<path d="M7.37176 6.00009L11.7158 1.65609C11.8976 1.47421 11.9998 1.22752 11.9998 0.970295C11.9998 0.71307 11.8976 0.46638 11.7158 0.284495C11.5339 0.102609 11.2872 0.000427267 11.03 0.000427264C10.7727 0.00042726 10.526 0.102609 10.3442 0.284495L6.00016 4.62849L1.65616 0.284495C1.47427 0.102609 1.22758 0.000427246 0.970356 0.000427246C0.713131 0.000427246 0.466441 0.102609 0.284556 0.284495C0.10267 0.46638 0.000488281 0.71307 0.000488281 0.970295C0.000488281 1.22752 0.10267 1.47421 0.284556 1.65609L4.62856 6.00009L0.284556 10.3441C0.10267 10.526 0.000488293 10.7727 0.000488296 11.0299C0.000488298 11.2871 0.10267 11.5338 0.284556 11.7157C0.466441 11.8976 0.713131 11.9998 0.970356 11.9998C1.22758 11.9998 1.47427 11.8976 1.65616 11.7157L6.00016 7.37169L10.3442 11.7157C10.526 11.8976 10.7727 11.9998 11.03 11.9998C11.2872 11.9998 11.5339 11.8976 11.7158 11.7157C11.8976 11.5338 11.9998 11.2871 11.9998 11.0299C11.9998 10.7727 11.8976 10.526 11.7158 10.3441L7.37176 6.00009Z" fill="#1F222E"/>
</svg>
