<svg width="16" height="16" viewBox="0 0 16 16" fill="none" xmlns="http://www.w3.org/2000/svg">
<g clip-path="url(#clip0)">
<path d="M15.36 2.88H11.184C11.1047 2.09068 10.735 1.35896 10.1467 0.826803C9.55832 0.294646 8.7933 -9.96586e-06 8 2.52804e-10V2.52804e-10C7.2067 -9.96586e-06 6.44168 0.294646 5.85335 0.826803C5.26502 1.35896 4.89533 2.09068 4.816 2.88H0.64C0.470261 2.88 0.307475 2.94743 0.187452 3.06745C0.0674284 3.18747 0 3.35026 0 3.52C0 3.68974 0.0674284 3.85252 0.187452 3.97255C0.307475 4.09257 0.470261 4.16 0.64 4.16H1.0224L1.4816 13.5648C1.51367 14.2219 1.79748 14.8414 2.27414 15.2948C2.7508 15.7483 3.38373 16.0008 4.0416 16H11.9616C12.6195 16.0008 13.2524 15.7483 13.7291 15.2948C14.2057 14.8414 14.4895 14.2219 14.5216 13.5648L14.9776 4.16H15.36C15.5297 4.16 15.6925 4.09257 15.8125 3.97255C15.9326 3.85252 16 3.68974 16 3.52C16 3.35026 15.9326 3.18747 15.8125 3.06745C15.6925 2.94743 15.5297 2.88 15.36 2.88ZM8 1.28C8.45368 1.28008 8.89267 1.44081 9.23914 1.73369C9.58562 2.02656 9.81719 2.43267 9.8928 2.88H6.1072C6.18281 2.43267 6.41438 2.02656 6.76086 1.73369C7.10733 1.44081 7.54632 1.28008 8 1.28ZM13.24 13.5024C13.224 13.8309 13.0821 14.1407 12.8437 14.3674C12.6054 14.5941 12.2889 14.7204 11.96 14.72H4.0384C3.70946 14.7204 3.393 14.5941 3.15467 14.3674C2.91634 14.1407 2.77444 13.8309 2.7584 13.5024L2.304 4.16H13.696L13.24 13.5024Z" fill="#FF3F3F"/>
<path d="M8.00011 6.56C7.83037 6.56 7.66758 6.62743 7.54756 6.74745C7.42754 6.86747 7.36011 7.03026 7.36011 7.2V11.68C7.36011 11.8497 7.42754 12.0125 7.54756 12.1325C7.66758 12.2526 7.83037 12.32 8.00011 12.32C8.16984 12.32 8.33263 12.2526 8.45265 12.1325C8.57268 12.0125 8.6401 11.8497 8.6401 11.68V7.2C8.6401 7.03026 8.57268 6.86747 8.45265 6.74745C8.33263 6.62743 8.16984 6.56 8.00011 6.56Z" fill="#FF3F3F"/>
<path d="M5.11998 6.56C4.95024 6.56 4.78746 6.62743 4.66743 6.74745C4.54741 6.86747 4.47998 7.03026 4.47998 7.2V11.68C4.47998 11.8497 4.54741 12.0125 4.66743 12.1325C4.78746 12.2526 4.95024 12.32 5.11998 12.32C5.28972 12.32 5.45251 12.2526 5.57253 12.1325C5.69255 12.0125 5.75998 11.8497 5.75998 11.68V7.2C5.75998 7.03026 5.69255 6.86747 5.57253 6.74745C5.45251 6.62743 5.28972 6.56 5.11998 6.56Z" fill="#FF3F3F"/>
<path d="M10.24 7.2V11.68C10.24 11.8497 10.3074 12.0125 10.4274 12.1325C10.5475 12.2526 10.7103 12.32 10.88 12.32C11.0497 12.32 11.2125 12.2526 11.3325 12.1325C11.4526 12.0125 11.52 11.8497 11.52 11.68V7.2C11.52 7.03026 11.4526 6.86747 11.3325 6.74745C11.2125 6.62743 11.0497 6.56 10.88 6.56C10.7103 6.56 10.5475 6.62743 10.4274 6.74745C10.3074 6.86747 10.24 7.03026 10.24 7.2Z" fill="#FF3F3F"/>
</g>
<defs>
<clipPath id="clip0">
<rect width="16" height="16" fill="white"/>
</clipPath>
</defs>
</svg>
