<svg width="16" height="16" viewBox="0 0 16 16" fill="none" xmlns="http://www.w3.org/2000/svg">
<path d="M8.00009 0.337608C7.79184 0.336287 7.58749 0.394067 7.41077 0.504237C7.23404 0.614407 7.09219 0.772447 7.00169 0.960008L5.30569 4.39361C5.25251 4.50152 5.1739 4.5949 5.07663 4.66569C4.97935 4.73649 4.86633 4.78258 4.74729 4.80001L0.960092 5.35041C0.75541 5.38173 0.563418 5.46918 0.405445 5.60305C0.247471 5.73692 0.129701 5.91196 0.0652166 6.10873C0.000732312 6.30549 -0.00794141 6.51629 0.040159 6.71769C0.0882594 6.91909 0.191251 7.10321 0.337692 7.24961L3.08169 9.92001C3.16783 10.0041 3.23221 10.108 3.26929 10.2225C3.30636 10.3371 3.31501 10.459 3.29449 10.5776L2.65449 14.3552C2.61794 14.5604 2.63985 14.7717 2.71773 14.965C2.79561 15.1583 2.92631 15.3257 3.09489 15.4482C3.26346 15.5708 3.46311 15.6434 3.67101 15.6577C3.8789 15.6721 4.08665 15.6277 4.27049 15.5296L7.66249 13.7456C7.76907 13.6896 7.88768 13.6603 8.00809 13.6603C8.12851 13.6603 8.24712 13.6896 8.35369 13.7456L11.7457 15.5296C11.9295 15.6277 12.1373 15.6721 12.3452 15.6577C12.5531 15.6434 12.7527 15.5708 12.9213 15.4482C13.0899 15.3257 13.2206 15.1583 13.2985 14.965C13.3763 14.7717 13.3982 14.5604 13.3617 14.3552L12.7217 10.5776C12.6991 10.4602 12.7053 10.3392 12.7395 10.2247C12.7738 10.1102 12.8352 10.0057 12.9185 9.92001L15.6625 7.24961C15.8089 7.10321 15.9119 6.91909 15.96 6.71769C16.0081 6.51629 15.9995 6.30549 15.935 6.10873C15.8705 5.91196 15.7527 5.73692 15.5947 5.60305C15.4368 5.46918 15.2448 5.38173 15.0401 5.35041L11.2529 4.80001C11.1339 4.78258 11.0208 4.73649 10.9236 4.66569C10.8263 4.5949 10.7477 4.50152 10.6945 4.39361L8.99849 0.960008C8.90799 0.772447 8.76614 0.614407 8.58942 0.504237C8.41269 0.394067 8.20834 0.336287 8.00009 0.337608Z" fill="#FFC22F"/>
</svg>
