<svg width="16" height="16" viewBox="0 0 16 16" fill="none" xmlns="http://www.w3.org/2000/svg">
<path d="M8.00009 1.82719L9.54729 4.95999C9.69254 5.25395 9.90709 5.50818 10.1724 5.70079C10.4378 5.89339 10.746 6.01859 11.0705 6.06559L14.5281 6.56959L12.0257 9.00799C11.7907 9.23682 11.6149 9.51938 11.5134 9.83129C11.412 10.1432 11.3879 10.4751 11.4433 10.7984L12.0337 14.24L8.94089 12.616C8.65074 12.4635 8.32787 12.3838 8.00009 12.3838C7.67231 12.3838 7.34945 12.4635 7.05929 12.616L3.96649 14.24L4.55689 10.7952C4.61174 10.4724 4.58739 10.1411 4.48594 9.82982C4.3845 9.51851 4.20899 9.2365 3.97449 9.00799L1.47209 6.56959L4.92969 6.06719C5.25435 6.02002 5.56265 5.89458 5.82802 5.70169C6.09338 5.5088 6.30784 5.25425 6.45289 4.95999L8.00009 1.82719ZM8.00009 0.337592C7.79184 0.336272 7.58749 0.394051 7.41077 0.504221C7.23404 0.614392 7.09219 0.772432 7.00169 0.959992L5.30569 4.39359C5.25251 4.50151 5.1739 4.59488 5.07663 4.66568C4.97935 4.73647 4.86633 4.78257 4.74729 4.79999L0.960092 5.35039C0.75541 5.38172 0.563418 5.46917 0.405445 5.60304C0.247471 5.7369 0.129701 5.91194 0.0652166 6.10871C0.000732312 6.30548 -0.00794141 6.51627 0.040159 6.71767C0.0882594 6.91908 0.191251 7.1032 0.337692 7.24959L3.08169 9.91999C3.16783 10.0041 3.23221 10.108 3.26929 10.2225C3.30636 10.3371 3.31501 10.4589 3.29449 10.5776L2.65449 14.3552C2.61794 14.5604 2.63985 14.7717 2.71773 14.965C2.79561 15.1582 2.92631 15.3257 3.09489 15.4482C3.26346 15.5707 3.46311 15.6433 3.671 15.6577C3.8789 15.6721 4.08665 15.6277 4.27049 15.5296L7.66249 13.7456C7.76907 13.6895 7.88767 13.6602 8.00809 13.6602C8.12851 13.6602 8.24712 13.6895 8.35369 13.7456L11.7457 15.5296C11.9295 15.6277 12.1373 15.6721 12.3452 15.6577C12.5531 15.6433 12.7527 15.5707 12.9213 15.4482C13.0899 15.3257 13.2206 15.1582 13.2985 14.965C13.3763 14.7717 13.3982 14.5604 13.3617 14.3552L12.7217 10.5776C12.6991 10.4602 12.7053 10.3392 12.7395 10.2247C12.7738 10.1102 12.8352 10.0057 12.9185 9.91999L15.6625 7.24959C15.8089 7.1032 15.9119 6.91908 15.96 6.71767C16.0081 6.51627 15.9995 6.30548 15.935 6.10871C15.8705 5.91194 15.7527 5.7369 15.5947 5.60304C15.4368 5.46917 15.2448 5.38172 15.0401 5.35039L11.2529 4.79999C11.1339 4.78257 11.0208 4.73647 10.9236 4.66568C10.8263 4.59488 10.7477 4.50151 10.6945 4.39359L8.99849 0.959992C8.90799 0.772432 8.76614 0.614392 8.58942 0.504221C8.41269 0.394051 8.20834 0.336272 8.00009 0.337592Z" fill="#73737A"/>
</svg>
