<svg width="14" height="14" viewBox="0 0 14 14" fill="none" xmlns="http://www.w3.org/2000/svg">
<path d="M0.56 2.52H9.52V0.56C9.52 0.411479 9.579 0.269041 9.68402 0.16402C9.78904 0.0589998 9.93148 0 10.08 0C10.2285 0 10.371 0.0589998 10.476 0.16402C10.581 0.269041 10.64 0.411479 10.64 0.56V2.52H13.44C13.5885 2.52 13.731 2.579 13.836 2.68402C13.941 2.78904 14 2.93148 14 3.08C14 3.22852 13.941 3.37096 13.836 3.47598C13.731 3.581 13.5885 3.64 13.44 3.64H10.64V5.6C10.64 5.74852 10.581 5.89096 10.476 5.99598C10.371 6.101 10.2285 6.16 10.08 6.16C9.93148 6.16 9.78904 6.101 9.68402 5.99598C9.579 5.89096 9.52 5.74852 9.52 5.6V3.64H0.56C0.411479 3.64 0.269041 3.581 0.16402 3.47598C0.0589998 3.37096 0 3.22852 0 3.08C0 2.93148 0.0589998 2.78904 0.16402 2.68402C0.269041 2.579 0.411479 2.52 0.56 2.52Z" fill="#3F3356"/>
<path d="M0.56 10.36H3.36V8.4C3.36 8.25148 3.419 8.10904 3.52402 8.00402C3.62904 7.899 3.77148 7.84 3.92 7.84C4.06852 7.84 4.21096 7.899 4.31598 8.00402C4.421 8.10904 4.48 8.25148 4.48 8.4V10.36H13.44C13.5885 10.36 13.731 10.419 13.836 10.524C13.941 10.629 14 10.7715 14 10.92C14 11.0685 13.941 11.211 13.836 11.316C13.731 11.421 13.5885 11.48 13.44 11.48H4.48V13.44C4.48 13.5885 4.421 13.731 4.31598 13.836C4.21096 13.941 4.06852 14 3.92 14C3.77148 14 3.62904 13.941 3.52402 13.836C3.419 13.731 3.36 13.5885 3.36 13.44V11.48H0.56C0.411479 11.48 0.269041 11.421 0.16402 11.316C0.0589998 11.211 0 11.0685 0 10.92C0 10.7715 0.0589998 10.629 0.16402 10.524C0.269041 10.419 0.411479 10.36 0.56 10.36Z" fill="#3F3356"/>
</svg>
