<svg width="20" height="20" viewBox="0 0 20 20" fill="none" xmlns="http://www.w3.org/2000/svg">
<g clip-path="url(#clip0)">
<path d="M19.308 6.92798L11.152 0.399977C10.825 0.138374 10.4188 -0.00415039 10 -0.00415039C9.58126 -0.00415039 9.17498 0.138374 8.84801 0.399977L0.692004 6.92798C0.475621 7.10036 0.300991 7.31941 0.181162 7.56876C0.061334 7.81812 -0.000594552 8.09133 4.30213e-06 8.36798V18.152C-0.000258484 18.3944 0.0472295 18.6345 0.139757 18.8586C0.232285 19.0826 0.368039 19.2863 0.539271 19.4579C0.710502 19.6295 0.913856 19.7657 1.13772 19.8587C1.36159 19.9517 1.60158 19.9997 1.844 20H6.116C6.60525 19.9994 7.07427 19.8047 7.42003 19.4586C7.76579 19.1125 7.96 18.6432 7.96 18.154V12.282C7.96053 11.9474 8.09366 11.6267 8.33022 11.3902C8.56678 11.1536 8.88746 11.0205 9.222 11.02H10.776C11.1105 11.0205 11.4312 11.1536 11.6678 11.3902C11.9043 11.6267 12.0375 11.9474 12.038 12.282V18.152C12.0377 18.3946 12.0853 18.6348 12.1779 18.859C12.2706 19.0832 12.4065 19.287 12.578 19.4586C12.7494 19.6302 12.953 19.7664 13.1771 19.8593C13.4012 19.9522 13.6414 20 13.884 20H18.156C18.3984 19.9997 18.6384 19.9517 18.8623 19.8587C19.0862 19.7657 19.2895 19.6295 19.4607 19.4579C19.632 19.2863 19.7677 19.0826 19.8603 18.8586C19.9528 18.6345 20.0003 18.3944 20 18.152V8.36798C20.0006 8.09133 19.9387 7.81812 19.8188 7.56876C19.699 7.31941 19.5244 7.10036 19.308 6.92798ZM10.776 9.46598H9.224C8.8536 9.46519 8.48668 9.53743 8.14422 9.67857C7.80176 9.81971 7.49049 10.027 7.22821 10.2885C6.96592 10.5501 6.75777 10.8607 6.61566 11.2028C6.47355 11.5449 6.40027 11.9116 6.4 12.282V18.152C6.4 18.2294 6.36924 18.3037 6.31448 18.3585C6.25972 18.4132 6.18545 18.444 6.108 18.444H1.844C1.76656 18.444 1.69229 18.4132 1.63753 18.3585C1.58277 18.3037 1.552 18.2294 1.552 18.152V8.36798C1.55191 8.32413 1.56176 8.28083 1.58081 8.24134C1.59987 8.20185 1.62763 8.16719 1.662 8.13998L9.818 1.61598C9.86971 1.57476 9.93388 1.55232 10 1.55232C10.0661 1.55232 10.1303 1.57476 10.182 1.61598L18.338 8.14198C18.3724 8.16919 18.4001 8.20385 18.4192 8.24334C18.4382 8.28283 18.4481 8.32613 18.448 8.36998V18.152C18.448 18.2294 18.4172 18.3037 18.3625 18.3585C18.3077 18.4132 18.2334 18.444 18.156 18.444H13.884C13.808 18.4419 13.7357 18.4102 13.6827 18.3557C13.6296 18.3011 13.6 18.2281 13.6 18.152V12.282C13.5997 11.9116 13.5265 11.5449 13.3844 11.2028C13.2422 10.8607 13.0341 10.5501 12.7718 10.2885C12.5095 10.027 12.1982 9.81971 11.8558 9.67857C11.5133 9.53743 11.1464 9.46519 10.776 9.46598Z" fill="#6F51FF"/>
</g>
<defs>
<clipPath id="clip0">
<rect width="20" height="20" fill="white"/>
</clipPath>
</defs>
</svg>
