<svg width="12" height="12" viewBox="0 0 12 12" fill="none" xmlns="http://www.w3.org/2000/svg">
<path d="M11.7912 2.0292C11.6565 1.89655 11.475 1.8222 11.286 1.8222C11.0969 1.8222 10.9155 1.89655 10.7808 2.0292L4.55998 8.2476C4.5447 8.26291 4.52656 8.27506 4.50659 8.28335C4.48662 8.29164 4.4652 8.2959 4.44358 8.2959C4.42195 8.2959 4.40054 8.29164 4.38056 8.28335C4.36059 8.27506 4.34245 8.26291 4.32718 8.2476L1.21918 5.1384C1.08066 5.03061 0.907532 4.97713 0.732352 4.98802C0.557172 4.9989 0.392001 5.07341 0.267891 5.19752C0.143781 5.32163 0.0692798 5.4868 0.0583938 5.66198C0.0475078 5.83716 0.100987 6.01028 0.208776 6.1488L4.09558 10.0356C4.18847 10.1282 4.31425 10.1801 4.44538 10.1801C4.5765 10.1801 4.70229 10.1282 4.79518 10.0356L11.7912 3.0396C11.9238 2.90491 11.9982 2.72345 11.9982 2.5344C11.9982 2.34536 11.9238 2.1639 11.7912 2.0292Z" fill="white"/>
</svg>
