<svg width="20" height="20" viewBox="0 0 20 20" fill="none" xmlns="http://www.w3.org/2000/svg">
<g clip-path="url(#clip0)">
<path d="M10 1.6C10.6725 1.6 11.3298 1.79941 11.8889 2.173C12.4481 2.5466 12.8839 3.07761 13.1412 3.69888C13.3985 4.32014 13.4659 5.00377 13.3347 5.66331C13.2035 6.32284 12.8797 6.92866 12.4042 7.40416C11.9287 7.87966 11.3228 8.20348 10.6633 8.33467C10.0038 8.46586 9.32015 8.39853 8.69888 8.14119C8.07761 7.88385 7.5466 7.44807 7.173 6.88894C6.79941 6.32981 6.6 5.67246 6.6 5C6.6 4.09826 6.95821 3.23346 7.59584 2.59584C8.23346 1.95821 9.09826 1.6 10 1.6ZM10 0C9.01109 0 8.0444 0.293245 7.22215 0.842652C6.3999 1.39206 5.75904 2.17295 5.3806 3.08658C5.00217 4.00021 4.90315 5.00555 5.09608 5.97545C5.289 6.94536 5.76521 7.83627 6.46447 8.53553C7.16373 9.2348 8.05464 9.711 9.02455 9.90393C9.99445 10.0969 10.9998 9.99784 11.9134 9.6194C12.827 9.24096 13.6079 8.6001 14.1573 7.77785C14.7068 6.95561 15 5.98891 15 5C15 3.67392 14.4732 2.40215 13.5355 1.46447C12.5979 0.526784 11.3261 0 10 0V0Z" fill="white"/>
<path d="M5.65 13.614L6.6 14.09C7.65561 14.618 8.81969 14.8929 10 14.8929C11.1803 14.8929 12.3444 14.618 13.4 14.09L14.352 13.614C15.4545 13.7025 16.4832 14.2029 17.2334 15.0157C17.9835 15.8285 18.4 16.894 18.4 18V18.4H1.6V18C1.60001 16.8936 2.01682 15.8279 2.76737 15.0151C3.51793 14.2022 4.54715 13.702 5.65 13.614ZM14 12L12.684 12.658C11.8509 13.0745 10.9324 13.2913 10.001 13.2913C9.06964 13.2913 8.15106 13.0745 7.318 12.658L6 12C4.4087 12 2.88258 12.6321 1.75736 13.7574C0.632141 14.8826 0 16.4087 0 18L0 18.4C0 18.8243 0.168571 19.2313 0.468629 19.5314C0.768687 19.8314 1.17565 20 1.6 20H18.4C18.8243 20 19.2313 19.8314 19.5314 19.5314C19.8314 19.2313 20 18.8243 20 18.4V18C20 16.4087 19.3679 14.8826 18.2426 13.7574C17.1174 12.6321 15.5913 12 14 12Z" fill="white"/>
</g>
<defs>
<clipPath id="clip0">
<rect width="20" height="20" fill="white"/>
</clipPath>
</defs>
</svg>
