<svg width="16" height="16" viewBox="0 0 16 16" fill="none" xmlns="http://www.w3.org/2000/svg">
<g>
<path d="M13.44 3.52H11.4992L11.0672 1.9008C10.9219 1.35569 10.6007 0.873834 10.1534 0.530102C9.70606 0.18637 9.15773 1.5964e-05 8.5936 0L7.4064 0C6.84227 1.5964e-05 6.29394 0.18637 5.84663 0.530102C5.39931 0.873834 5.07806 1.35569 4.9328 1.9008L4.5008 3.52H2.56C1.88105 3.52 1.2299 3.78971 0.749807 4.26981C0.269714 4.7499 0 5.40105 0 6.08L0 13.44C0 14.119 0.269714 14.7701 0.749807 15.2502C1.2299 15.7303 1.88105 16 2.56 16H13.44C14.119 16 14.7701 15.7303 15.2502 15.2502C15.7303 14.7701 16 14.119 16 13.44V6.08C16 5.40105 15.7303 4.7499 15.2502 4.26981C14.7701 3.78971 14.119 3.52 13.44 3.52ZM6.1696 2.2304C6.24223 1.95785 6.40286 1.71692 6.62651 1.54505C6.85017 1.37318 7.12434 1.28001 7.4064 1.28H8.5936C8.87566 1.28001 9.14983 1.37318 9.37349 1.54505C9.59714 1.71692 9.75777 1.95785 9.8304 2.2304L10.1744 3.52H5.8256L6.1696 2.2304ZM14.72 13.44C14.72 13.7795 14.5851 14.105 14.3451 14.3451C14.105 14.5851 13.7795 14.72 13.44 14.72H2.56C2.22052 14.72 1.89495 14.5851 1.6549 14.3451C1.41486 14.105 1.28 13.7795 1.28 13.44V6.08C1.28 5.74052 1.41486 5.41495 1.6549 5.1749C1.89495 4.93486 2.22052 4.8 2.56 4.8H13.44C13.7795 4.8 14.105 4.93486 14.3451 5.1749C14.5851 5.41495 14.72 5.74052 14.72 6.08V13.44Z" fill="#6F51FF"/>
<path d="M7.99998 6.23999C7.30379 6.23999 6.62324 6.44643 6.04438 6.83322C5.46551 7.22 5.01435 7.76975 4.74793 8.41295C4.48151 9.05614 4.4118 9.7639 4.54762 10.4467C4.68344 11.1295 5.01869 11.7567 5.51097 12.249C6.00325 12.7413 6.63045 13.0765 7.31327 13.2124C7.99608 13.3482 8.70383 13.2785 9.34703 13.012C9.99023 12.7456 10.54 12.2945 10.9268 11.7156C11.3135 11.1367 11.52 10.4562 11.52 9.75999C11.52 8.82643 11.1491 7.9311 10.489 7.27097C9.82887 6.61085 8.93355 6.23999 7.99998 6.23999ZM7.99998 12C7.55695 12 7.12387 11.8686 6.75551 11.6225C6.38714 11.3763 6.10003 11.0265 5.93049 10.6172C5.76095 10.2079 5.71659 9.75751 5.80302 9.32299C5.88945 8.88847 6.10279 8.48934 6.41606 8.17607C6.72933 7.8628 7.12846 7.64946 7.56298 7.56303C7.9975 7.4766 8.44789 7.52096 8.85719 7.6905C9.2665 7.86004 9.61634 8.14715 9.86248 8.51551C10.1086 8.88388 10.24 9.31696 10.24 9.75999C10.24 10.3541 10.004 10.9238 9.5839 11.3439C9.16382 11.764 8.59407 12 7.99998 12Z" fill="#6F51FF"/>
</g>
<defs>

</defs>
</svg>
