<svg width="120" height="120" viewBox="0 0 120 120" fill="none" xmlns="http://www.w3.org/2000/svg">
<g>
<path d="M100.8 26.4H86.244L83.004 14.256C81.9145 10.1677 79.5051 6.55376 76.1503 3.97576C72.7954 1.39777 68.683 0.00011973 64.452 0L55.548 0C51.317 0.00011973 47.2046 1.39777 43.8497 3.97576C40.4949 6.55376 38.0855 10.1677 36.996 14.256L33.756 26.4H19.2C14.1078 26.4 9.22425 28.4229 5.62355 32.0236C2.02285 35.6242 0 40.5078 0 45.6L0 100.8C0 105.892 2.02285 110.776 5.62355 114.376C9.22425 117.977 14.1078 120 19.2 120H100.8C105.892 120 110.776 117.977 114.376 114.376C117.977 110.776 120 105.892 120 100.8V45.6C120 40.5078 117.977 35.6242 114.376 32.0236C110.776 28.4229 105.892 26.4 100.8 26.4ZM46.272 16.728C46.8167 14.6839 48.0214 12.8769 49.6989 11.5879C51.3763 10.2989 53.4325 9.60006 55.548 9.6H64.452C66.5675 9.60006 68.6237 10.2989 70.3011 11.5879C71.9786 12.8769 73.1833 14.6839 73.728 16.728L76.308 26.4H43.692L46.272 16.728ZM110.4 100.8C110.4 103.346 109.389 105.788 107.588 107.588C105.788 109.389 103.346 110.4 100.8 110.4H19.2C16.6539 110.4 14.2121 109.389 12.4118 107.588C10.6114 105.788 9.6 103.346 9.6 100.8V45.6C9.6 43.0539 10.6114 40.6121 12.4118 38.8118C14.2121 37.0114 16.6539 36 19.2 36H100.8C103.346 36 105.788 37.0114 107.588 38.8118C109.389 40.6121 110.4 43.0539 110.4 45.6V100.8Z" fill="white"/>
<path d="M59.9999 46.8C54.7784 46.8 49.6743 48.3484 45.3328 51.2493C40.9914 54.1501 37.6076 58.2732 35.6094 63.0972C33.6113 67.9212 33.0885 73.2293 34.1071 78.3504C35.1258 83.4715 37.6401 88.1756 41.3322 91.8677C45.0244 95.5598 49.7284 98.0742 54.8495 99.0928C59.9706 100.111 65.2788 99.5886 70.1027 97.5905C74.9267 95.5923 79.0498 92.2086 81.9507 87.8671C84.8515 83.5257 86.3999 78.4215 86.3999 73.2001C86.3999 66.1983 83.6185 59.4834 78.6675 54.5324C73.7165 49.5815 67.0016 46.8 59.9999 46.8ZM59.9999 90.0001C56.6771 90.0001 53.429 89.0148 50.6663 87.1688C47.9035 85.3227 45.7502 82.6989 44.4787 79.6291C43.2071 76.5593 42.8744 73.1814 43.5227 69.9225C44.1709 66.6637 45.771 63.6702 48.1205 61.3207C50.47 58.9711 53.4635 57.3711 56.7224 56.7229C59.9812 56.0746 63.3592 56.4073 66.429 57.6789C69.4988 58.9504 72.1226 61.1037 73.9686 63.8665C75.8146 66.6292 76.7999 69.8773 76.7999 73.2001C76.7999 77.6557 75.0299 81.9289 71.8793 85.0795C68.7287 88.2301 64.4555 90.0001 59.9999 90.0001Z" fill="white"/>
</g>
<defs>

</defs>
</svg>
