<svg width="16" height="16" viewBox="0 0 16 16" fill="none" xmlns="http://www.w3.org/2000/svg">
<g >
<path d="M13.5504 0H2.4496C1.80006 0.000423846 1.17724 0.258642 0.717939 0.717939C0.258642 1.17724 0.000423846 1.80006 0 2.4496L0 13.5504C0.000423846 14.1999 0.258642 14.8228 0.717939 15.2821C1.17724 15.7414 1.80006 15.9996 2.4496 16H13.5504C14.1999 15.9996 14.8228 15.7414 15.2821 15.2821C15.7414 14.8228 15.9996 14.1999 16 13.5504V2.4496C15.9996 1.80006 15.7414 1.17724 15.2821 0.717939C14.8228 0.258642 14.1999 0.000423846 13.5504 0ZM15.0192 13.5504C15.0188 13.9398 14.8639 14.3132 14.5885 14.5885C14.3132 14.8639 13.9398 15.0188 13.5504 15.0192H2.4496C2.08963 15.0193 1.74215 14.8872 1.47315 14.648C1.20415 14.4088 1.03236 14.0791 0.9904 13.7216L0.9808 13.6464L4.5008 9.8784L7.1216 12.0112C7.24655 12.1116 7.39122 12.1847 7.54622 12.2256C7.70122 12.2666 7.8631 12.2745 8.02135 12.2488C8.1796 12.2232 8.3307 12.1646 8.46484 12.0768C8.59898 11.989 8.71317 11.874 8.8 11.7392L12.1008 6.56L15.0208 10.72L15.0192 13.5504ZM15.0192 9.0176L13.0448 6.1952C12.9368 6.04116 12.7925 5.91617 12.6246 5.83133C12.4567 5.74648 12.2705 5.7044 12.0824 5.70884C11.8944 5.71327 11.7103 5.76407 11.5466 5.85673C11.3829 5.94939 11.2446 6.08105 11.144 6.24L7.8816 11.368L5.2448 9.2176C5.01997 9.03526 4.73445 8.94478 4.44564 8.96437C4.15683 8.98396 3.88614 9.11216 3.688 9.3232L0.9792 12.216V2.456C0.979623 2.06658 1.13451 1.69323 1.40987 1.41787C1.68523 1.14251 2.05858 0.987624 2.448 0.9872H13.5504C13.9398 0.987624 14.3132 1.14251 14.5885 1.41787C14.8639 1.69323 15.0188 2.06658 15.0192 2.456V9.0176Z" fill="#1F222E"/>
<path d="M5.06093 2.61279C4.57637 2.61279 4.10271 2.7565 3.69984 3.02574C3.29697 3.29497 2.983 3.67764 2.79764 4.12534C2.61228 4.57304 2.56387 5.06566 2.65851 5.54087C2.75316 6.01609 2.98662 6.45257 3.32937 6.79509C3.67211 7.13761 4.10873 7.37078 4.58402 7.46512C5.0593 7.55946 5.55188 7.51072 5.99946 7.32507C6.44704 7.13942 6.8295 6.8252 7.09847 6.42215C7.36745 6.01911 7.51084 5.54535 7.51053 5.06079C7.50968 4.41153 7.25127 3.78912 6.79202 3.33017C6.33277 2.87121 5.71019 2.61322 5.06093 2.61279ZM5.06093 6.53119C4.77043 6.53119 4.48645 6.44505 4.24491 6.28366C4.00336 6.12226 3.8151 5.89287 3.70393 5.62448C3.59276 5.35609 3.56368 5.06076 3.62035 4.77584C3.67702 4.49093 3.81691 4.22921 4.02233 4.02379C4.22774 3.81838 4.48946 3.67849 4.77438 3.62182C5.0593 3.56514 5.35462 3.59423 5.62301 3.7054C5.8914 3.81657 6.1208 4.00483 6.28219 4.24637C6.44358 4.48791 6.52973 4.77189 6.52973 5.06239C6.5293 5.45181 6.37442 5.82516 6.09906 6.10052C5.8237 6.37589 5.45035 6.53077 5.06093 6.53119Z" fill="#1F222E"/>
</g>

</svg>
