<svg width="476" height="476" viewBox="0 0 476 476" fill="none" xmlns="http://www.w3.org/2000/svg">

<circle cx="238" cy="238" r="197.109" stroke="#3F3356"/>
<circle cx="238" cy="238" r="237.5" stroke="#3F3356"/>
<rect x="237.483" y="434.609" width="1.03478" height="41.3913" fill="#3F3356"/>
<rect x="237.483" width="1.03478" height="41.3913" fill="#3F3356"/>
<rect x="41.3914" y="237.483" width="1.03478" height="41.3913" transform="rotate(90 41.3914 237.483)" fill="#3F3356"/>
<rect x="476" y="237.483" width="1.03478" height="41.3913" transform="rotate(90 476 237.483)" fill="#3F3356"/>
<rect x="67.9905" y="139.248" width="1.03478" height="41.3913" transform="rotate(120 67.9905 139.248)" fill="#3F3356"/>
<rect x="444.373" y="356.552" width="1.03478" height="41.3913" transform="rotate(120 444.373 356.552)" fill="#3F3356"/>
<rect x="140.144" y="67.4732" width="1.03478" height="41.3913" transform="rotate(150 140.144 67.4732)" fill="#3F3356"/>
<rect x="357.448" y="443.855" width="1.03478" height="41.3913" transform="rotate(150 357.448 443.855)" fill="#3F3356"/>
<rect x="139.247" y="408.009" width="1.03478" height="41.3913" transform="rotate(30 139.247 408.009)" fill="#3F3356"/>
<rect x="356.552" y="31.6272" width="1.03478" height="41.3913" transform="rotate(30 356.552 31.6272)" fill="#3F3356"/>
<rect x="67.4731" y="335.856" width="1.03478" height="41.3913" transform="rotate(60 67.4731 335.856)" fill="#3F3356"/>
<rect x="443.855" y="118.552" width="1.03478" height="41.3913" transform="rotate(60 443.855 118.552)" fill="#3F3356"/>
<g clip-path="url(#clip0)">
<path d="M192.65 442.182C192.666 442.006 192.626 441.829 192.538 441.676C192.45 441.522 192.316 441.4 192.156 441.325L185.41 438.179C185.307 438.127 185.194 438.097 185.079 438.089C184.964 438.082 184.849 438.098 184.74 438.136C184.631 438.174 184.531 438.233 184.446 438.31C184.36 438.388 184.291 438.481 184.242 438.586C184.194 438.69 184.166 438.803 184.162 438.918C184.158 439.034 184.176 439.149 184.217 439.256C184.258 439.364 184.32 439.463 184.4 439.546C184.479 439.629 184.575 439.696 184.68 439.742L189.929 442.19L178.112 449.008L175.343 444.21C175.229 444.012 175.04 443.867 174.819 443.808C174.598 443.749 174.362 443.78 174.164 443.894C173.966 444.009 173.821 444.197 173.762 444.418C173.702 444.639 173.733 444.875 173.848 445.073L176.618 449.872L169.709 453.861C169.605 453.914 169.512 453.988 169.438 454.078C169.363 454.168 169.308 454.273 169.275 454.385C169.242 454.497 169.232 454.615 169.246 454.731C169.259 454.847 169.297 454.959 169.355 455.06C169.414 455.162 169.492 455.25 169.586 455.32C169.679 455.39 169.786 455.44 169.9 455.468C170.014 455.495 170.132 455.499 170.247 455.48C170.362 455.46 170.472 455.417 170.571 455.354L177.48 451.365L179.947 455.634C180 455.738 180.074 455.83 180.164 455.904C180.254 455.979 180.358 456.034 180.47 456.067C180.583 456.101 180.7 456.11 180.816 456.097C180.933 456.083 181.045 456.046 181.146 455.987C181.247 455.929 181.336 455.85 181.406 455.756C181.476 455.663 181.526 455.556 181.553 455.442C181.581 455.329 181.585 455.211 181.565 455.095C181.546 454.98 181.503 454.87 181.439 454.772L178.975 450.503L190.788 443.678L190.285 449.443C190.271 449.668 190.346 449.889 190.493 450.059C190.64 450.229 190.847 450.336 191.071 450.355C191.295 450.375 191.518 450.306 191.692 450.164C191.866 450.021 191.978 449.817 192.004 449.593L192.65 442.182Z" fill="#6F51FF"/>
</g>
<g clip-path="url(#clip1)">
<path d="M88.2119 400.028C88.2335 399.92 88.2329 399.809 88.2102 399.701C88.1874 399.594 88.1429 399.492 88.0794 399.402C88.0159 399.312 87.9348 399.236 87.8409 399.179C87.747 399.121 87.6425 399.083 87.5335 399.068C87.4246 399.052 87.3136 399.059 87.2074 399.088C87.1012 399.116 87.0019 399.166 86.9157 399.235C86.8295 399.303 86.7581 399.388 86.706 399.485C86.6538 399.582 86.622 399.689 86.6124 399.798L86.567 400.136C86.4002 399.615 86.4104 398.85 86.6519 398.609L92.3504 392.91C93.5928 391.659 93.5313 389.724 92.2084 388.401C91.8742 388.056 91.4736 387.782 91.0308 387.595C90.588 387.408 90.112 387.312 89.6314 387.314C89.6453 386.847 89.5616 386.382 89.3854 385.95C89.2092 385.517 88.9446 385.126 88.6084 384.801C88.2742 384.456 87.8737 384.182 87.4308 383.995C86.988 383.808 86.512 383.712 86.0314 383.714C86.0454 383.247 85.9616 382.782 85.7854 382.35C85.6093 381.917 85.3446 381.526 85.0085 381.201C83.6504 379.843 81.6295 379.736 80.4031 380.963C80.2514 381.115 80.1661 381.32 80.1661 381.535C80.1661 381.75 80.2514 381.955 80.4031 382.107C80.5549 382.259 80.7607 382.344 80.9753 382.344C81.1899 382.344 81.3958 382.259 81.5475 382.107C82.2002 381.455 83.2407 381.714 83.8685 382.341C84.5621 383.035 84.6104 383.941 83.9958 384.555L78.2973 390.254C78.1456 390.406 78.0603 390.612 78.0603 390.826C78.0603 391.041 78.1456 391.247 78.2973 391.398C78.4491 391.55 78.6549 391.635 78.8695 391.635C79.0841 391.635 79.2899 391.55 79.4417 391.398L85.1402 385.7C85.7929 385.047 86.8333 385.306 87.4611 385.934C88.1548 386.628 88.2031 387.534 87.5885 388.148L81.89 393.847C81.7382 393.998 81.653 394.204 81.653 394.419C81.653 394.633 81.7382 394.839 81.89 394.991C82.0417 395.143 82.2475 395.228 82.4622 395.228C82.6768 395.228 82.8826 395.143 83.0343 394.991L88.7328 389.293C89.3855 388.64 90.426 388.899 91.0538 389.527C91.7474 390.22 91.7957 391.126 91.1811 391.741L85.4826 397.439C84.6046 398.317 84.6397 400.109 85.2558 401.178L84.688 401.178C84.4734 401.178 84.2675 401.264 84.1158 401.415C83.964 401.567 83.8787 401.773 83.8787 401.988C83.8787 402.202 83.964 402.408 84.1158 402.56C84.2675 402.712 84.4734 402.797 84.688 402.797L87.8124 402.822L88.2119 400.028Z" fill="#6F51FF"/>
</g>
<g clip-path="url(#clip2)">
<path d="M29.3054 303.739L28.0734 299.141C29.0317 299.445 30.0542 299.486 31.0338 299.259C32.0133 299.032 32.9138 298.546 33.6408 297.852C34.3678 297.157 34.8945 296.28 35.1658 295.312C35.4371 294.343 35.4429 293.32 35.1827 292.349C34.9225 291.378 34.4058 290.494 33.6867 289.792C32.9677 289.089 32.0728 288.592 31.0959 288.354C30.1191 288.116 29.0961 288.146 28.1344 288.439C27.1727 288.732 26.3076 289.279 25.6298 290.021L24.3978 285.424C24.3731 285.309 24.3255 285.201 24.2578 285.106C24.19 285.011 24.1037 284.93 24.0039 284.869C23.9042 284.808 23.7931 284.768 23.6774 284.752C23.5617 284.735 23.4438 284.742 23.3309 284.772C23.218 284.803 23.1124 284.855 23.0205 284.928C22.9287 285 22.8525 285.09 22.7965 285.193C22.7406 285.295 22.7061 285.408 22.6951 285.525C22.6841 285.641 22.6968 285.759 22.7326 285.87L24.4799 292.391C24.5273 292.568 24.6299 292.725 24.7729 292.84C24.9158 292.955 25.0916 293.021 25.2748 293.029C25.4579 293.038 25.639 292.987 25.7916 292.886C25.9442 292.784 26.0606 292.637 26.1237 292.464C26.4066 291.69 26.9291 291.025 27.6153 290.567C28.3016 290.109 29.1159 289.882 29.94 289.919C30.7641 289.955 31.5552 290.253 32.1984 290.77C32.8416 291.286 33.3035 291.994 33.517 292.791C33.7305 293.588 33.6845 294.432 33.3857 295.201C33.0869 295.97 32.5509 296.623 31.8554 297.067C31.1599 297.511 30.3411 297.721 29.5179 297.668C28.6947 297.614 27.9099 297.3 27.2775 296.77C27.1367 296.654 26.9625 296.585 26.78 296.574C26.5976 296.563 26.4163 296.61 26.2623 296.708C26.1082 296.806 25.9895 296.951 25.9231 297.122C25.8566 297.292 25.846 297.479 25.8927 297.656L27.6421 304.185C27.6668 304.299 27.7145 304.407 27.7822 304.502C27.8499 304.597 27.9362 304.678 28.036 304.739C28.1358 304.8 28.2469 304.84 28.3626 304.856C28.4783 304.873 28.5961 304.866 28.709 304.836C28.822 304.806 28.9275 304.753 29.0194 304.68C29.1112 304.608 29.1875 304.518 29.2434 304.415C29.2994 304.313 29.3339 304.2 29.3449 304.083C29.3559 303.967 29.3431 303.85 29.3073 303.738L29.3054 303.739Z" fill="#6F51FF"/>
<path d="M25.1414 304.855L20.2317 286.531C20.1639 286.321 20.0176 286.144 19.8231 286.038C19.6286 285.932 19.4007 285.904 19.1867 285.962C18.9726 286.019 18.7889 286.157 18.6734 286.346C18.558 286.535 18.5197 286.761 18.5665 286.978L23.4762 305.301C23.5009 305.415 23.5485 305.523 23.6162 305.618C23.6839 305.714 23.7703 305.794 23.87 305.855C23.9698 305.916 24.0809 305.956 24.1966 305.973C24.3123 305.989 24.4302 305.982 24.5431 305.952C24.656 305.922 24.7616 305.869 24.8534 305.797C24.9453 305.725 25.0215 305.634 25.0775 305.532C25.1334 305.429 25.1679 305.316 25.1789 305.2C25.1899 305.083 25.1771 304.966 25.1414 304.855Z" fill="#6F51FF"/>
</g>
<g clip-path="url(#clip3)">
<path d="M20.8477 189.357L22.0749 184.778C22.1163 184.626 22.1991 184.489 22.314 184.381C23.6025 186.324 25.251 188.002 27.1706 189.325C27.8322 189.774 28.3104 190.029 28.6702 190.125C29.0542 190.229 29.4548 190.255 29.8491 190.203C30.2434 190.152 30.6236 190.023 30.9679 189.824C31.3123 189.625 31.6139 189.36 31.8556 189.044C32.0973 188.728 32.2743 188.368 32.3765 187.984C32.4919 187.551 32.5086 187.098 32.4254 186.658L34.7922 187.292C35.4689 187.472 36.1843 187.442 36.8434 187.205C37.5025 186.969 38.0742 186.538 38.4824 185.969C38.8906 185.4 39.116 184.721 39.1288 184.021C39.1415 183.32 38.9409 182.633 38.5537 182.05C39.0313 181.813 39.4474 181.469 39.7694 181.044C40.0914 180.619 40.3104 180.125 40.4092 179.601C40.508 179.078 40.484 178.538 40.3389 178.025C40.1939 177.512 39.9318 177.04 39.5733 176.645C40.1575 176.437 40.7088 176.146 41.2104 175.781L41.2627 175.746C41.3594 175.681 41.4421 175.597 41.5056 175.499C41.5691 175.402 41.6121 175.292 41.6321 175.177C41.6521 175.062 41.6486 174.945 41.6219 174.831C41.5952 174.718 41.5458 174.611 41.4767 174.517C41.4076 174.423 41.3201 174.345 41.2197 174.285C41.1193 174.226 41.0079 174.188 40.8923 174.173C40.7768 174.158 40.6594 174.167 40.5472 174.199C40.4351 174.23 40.3305 174.284 40.2398 174.358L40.1864 174.397C39.6141 174.82 38.9535 175.108 38.2541 175.24C37.5546 175.371 36.8345 175.343 36.1475 175.157L27.0898 172.73C26.8733 172.683 26.647 172.722 26.4579 172.837C26.2687 172.953 26.1313 173.136 26.0739 173.35C26.0166 173.564 26.0438 173.792 26.1498 173.987C26.2559 174.181 26.4327 174.328 26.6436 174.395L37.4705 177.297C37.9121 177.415 38.2886 177.704 38.5173 178.1C38.7459 178.496 38.8078 178.966 38.6895 179.408C38.5711 179.85 38.2822 180.226 37.8862 180.455C37.4903 180.683 37.0197 180.745 36.5781 180.627L25.7513 177.726C25.5347 177.679 25.3084 177.717 25.1193 177.833C24.9302 177.948 24.7927 178.132 24.7354 178.346C24.678 178.56 24.7052 178.788 24.8112 178.983C24.9173 179.177 25.0941 179.323 25.3051 179.391L36.1319 182.292C36.5738 182.411 36.9506 182.7 37.1793 183.096C37.4081 183.492 37.47 183.963 37.3516 184.405C37.2332 184.847 36.9441 185.223 36.5479 185.452C36.1517 185.681 35.6809 185.743 35.239 185.625L23.5785 182.5C23.4288 182.461 23.2759 182.435 23.1215 182.423L20.8277 178.461C20.7743 178.357 20.7003 178.265 20.6103 178.191C20.5202 178.116 20.4159 178.061 20.3038 178.027C20.1916 177.994 20.0739 177.984 19.9578 177.998C19.8417 178.012 19.7296 178.049 19.6283 178.108C19.527 178.166 19.4387 178.245 19.3686 178.338C19.2986 178.432 19.2483 178.539 19.2209 178.653C19.1934 178.766 19.1894 178.884 19.209 179C19.2285 179.115 19.2713 179.225 19.3347 179.323L21.4016 182.9C20.9143 183.248 20.5634 183.755 20.4091 184.333L19.1825 188.911C19.1467 189.023 19.134 189.14 19.145 189.256C19.156 189.373 19.1905 189.486 19.2464 189.588C19.3024 189.691 19.3786 189.781 19.4704 189.853C19.5623 189.926 19.6679 189.978 19.7808 190.009C19.8937 190.039 20.0116 190.046 20.1273 190.029C20.243 190.013 20.3541 189.973 20.4538 189.912C20.5536 189.851 20.64 189.77 20.7077 189.675C20.7754 189.58 20.823 189.472 20.8477 189.357ZM30.7093 187.537C30.62 187.868 30.4031 188.15 30.1062 188.322C29.8092 188.493 29.4564 188.54 29.1251 188.451C29.0831 188.44 28.835 188.359 28.1426 187.888C26.7931 186.963 25.5911 185.839 24.5771 184.555L29.7946 185.953C30.1257 186.042 30.4079 186.259 30.5793 186.556C30.7507 186.853 30.7975 187.206 30.7093 187.537Z" fill="#6F51FF"/>
</g>
<g clip-path="url(#clip4)">
<path d="M80.3898 84.0397C79.8109 83.8235 79.1854 83.763 78.5758 83.8642C77.9662 83.9654 77.3937 84.2247 76.9157 84.6163C76.8086 84.7037 76.7061 84.7965 76.6084 84.8943C75.8483 85.6497 75.4189 86.6759 75.4145 87.7475C75.4101 88.8191 75.8311 89.8487 76.5849 90.6104C76.7491 90.7592 76.9642 90.8391 77.1857 90.8337C77.4072 90.8283 77.6181 90.7379 77.7748 90.5812C77.9315 90.4245 78.0219 90.2136 78.0273 89.9921C78.0328 89.7706 77.9528 89.5555 77.804 89.3913C77.3735 88.9532 77.1344 88.3621 77.1391 87.7479C77.1437 87.1337 77.3918 86.5464 77.8288 86.1148C77.8856 86.0581 77.9452 86.0044 78.0074 85.9538C78.2538 85.749 78.5504 85.6138 78.8666 85.5621C79.1828 85.5103 79.5071 85.544 79.8059 85.6597C80.1413 85.7787 80.4395 85.9837 80.6709 86.2541C80.9022 86.5245 81.0586 86.8509 81.1244 87.2006C81.5444 89.4148 82.1459 90.8913 82.9522 91.6977C84.1127 92.8581 85.6866 93.5101 87.3278 93.5101C88.969 93.5101 90.5429 92.8581 91.7034 91.6977C92.8638 90.5372 93.5158 88.9632 93.5158 87.3221C93.5158 85.6809 92.8638 84.107 91.7034 82.9465C90.7668 82.0158 89.0166 81.4246 87.3234 81.069C87.4097 80.9826 87.5107 80.908 87.5985 80.8202C88.3013 80.1053 88.7768 79.1983 88.9651 78.2136C89.1534 77.2289 89.046 76.2105 88.6565 75.2868C88.267 74.363 87.6128 73.5751 86.7764 73.0225C85.9399 72.4698 84.9586 72.1771 83.9561 72.1812C82.9536 72.1853 81.9747 72.4859 81.1428 73.0453C80.3108 73.6048 79.6631 74.3979 79.2811 75.3248C78.8991 76.2517 78.8 77.2709 78.9963 78.2541C79.1925 79.2372 79.6754 80.1402 80.3839 80.8495C80.8676 81.3335 81.4448 81.714 82.0804 81.9676C82.7159 82.2212 83.3965 82.3427 84.0805 82.3246C87.1917 82.6231 89.6429 83.3299 90.48 84.167C91.3171 85.0042 91.7875 86.1396 91.7875 87.3236C91.7875 88.5075 91.3171 89.6429 90.48 90.4801C89.6428 91.3173 88.5073 91.7876 87.3234 91.7876C86.1395 91.7876 85.004 91.3173 84.1668 90.4801C83.7907 90.104 83.2507 89.1748 82.8132 86.8787C82.6884 86.2358 82.3994 85.6363 81.9742 85.1382C81.549 84.6402 81.0022 84.2608 80.3869 84.0367L80.3898 84.0397ZM81.6337 74.8554C82.1076 74.3935 82.7076 74.0822 83.358 73.9605C84.0085 73.8388 84.6804 73.9122 85.2892 74.1715C85.8981 74.4307 86.4166 74.8642 86.7797 75.4175C87.1428 75.9707 87.3341 76.619 87.3296 77.2807C87.3252 77.9424 87.1251 78.588 86.7546 79.1363C86.3841 79.6846 85.8597 80.1111 85.2475 80.3621C84.6352 80.6131 83.9623 80.6774 83.3136 80.547C82.6648 80.4165 82.0692 80.0971 81.6015 79.629C80.9737 78.9912 80.6246 78.1304 80.6306 77.2355C80.6367 76.3406 80.9974 75.4846 81.6337 74.8554Z" fill="#6F51FF"/>
</g>
<g clip-path="url(#clip5)">
<path d="M187.864 25.9005C187.13 26.0959 186.471 26.5023 185.967 27.0691C185.463 27.6359 185.136 28.3383 185.027 29.0891C184.919 29.8398 185.033 30.606 185.355 31.2925C185.678 31.9791 186.196 32.5557 186.843 32.9509C183.839 34.132 180.571 34.4782 177.386 33.9529L173.711 33.3415C173.599 33.323 173.485 33.3266 173.374 33.3523C173.264 33.378 173.159 33.4252 173.067 33.4912C172.975 33.5572 172.896 33.6407 172.836 33.737C172.777 33.8332 172.736 33.9404 172.718 34.0523C172.699 34.1642 172.703 34.2786 172.728 34.3891C172.754 34.4996 172.801 34.6039 172.867 34.6961C172.933 34.7884 173.017 34.8667 173.113 34.9267C173.209 34.9866 173.316 35.027 173.428 35.0456L177.105 35.6544C181.536 36.3856 186.083 35.5748 189.988 33.3574C190.962 33.0619 191.781 32.3953 192.268 31.5014C192.755 30.6075 192.871 29.558 192.591 28.5793C192.311 27.6006 191.658 26.7712 190.772 26.27C189.886 25.7689 188.838 25.6363 187.855 25.9007L187.864 25.9005ZM189.426 31.7318C189.014 31.8421 188.579 31.8279 188.175 31.6908C187.771 31.5537 187.417 31.2999 187.157 30.9615C186.897 30.6232 186.744 30.2154 186.716 29.7898C186.688 29.3642 186.787 28.9399 187 28.5705C187.214 28.2011 187.532 27.9033 187.914 27.7147C188.297 27.526 188.726 27.455 189.149 27.5107C189.572 27.5664 189.969 27.7462 190.29 28.0274C190.61 28.3086 190.84 28.6786 190.951 29.0906C191.098 29.6428 191.02 30.2307 190.734 30.7255C190.448 31.2202 189.977 31.5813 189.425 31.7298L189.426 31.7318Z" fill="#6F51FF"/>
<path d="M170.899 27.5579C171.062 28.1711 171.373 28.7349 171.804 29.2001C172.236 29.6653 172.775 30.0175 173.374 30.2261C173.973 30.4346 174.614 30.4931 175.241 30.3963C175.868 30.2995 176.462 30.0505 176.971 29.671C177.479 29.2915 177.887 28.7931 178.158 28.2195C178.429 27.646 178.555 27.0146 178.526 26.3809C178.496 25.7471 178.312 25.1303 177.989 24.5843C177.665 24.0384 177.213 23.58 176.672 23.2494C179.676 22.0687 182.944 21.7232 186.129 22.2494L189.804 22.8588C190.03 22.8963 190.261 22.8425 190.448 22.7092C190.634 22.5759 190.76 22.374 190.797 22.1481C190.835 21.9221 190.781 21.6905 190.648 21.5042C190.514 21.3179 190.312 21.1922 190.086 21.1547L186.411 20.5434C183.652 20.0874 180.828 20.2268 178.128 20.9523C176.519 21.384 174.972 22.0196 173.525 22.8435C172.561 23.1356 171.749 23.7904 171.259 24.67C170.769 25.5496 170.64 26.585 170.899 27.5579ZM174.089 24.4706C174.501 24.3602 174.937 24.3744 175.341 24.5115C175.744 24.6486 176.099 24.9024 176.358 25.2408C176.618 25.5792 176.771 25.9869 176.799 26.4125C176.827 26.8381 176.728 27.2624 176.515 27.6318C176.302 28.0012 175.984 28.299 175.601 28.4877C175.219 28.6763 174.789 28.7473 174.366 28.6916C173.943 28.6359 173.546 28.4561 173.226 28.1749C172.905 27.8937 172.675 27.5237 172.564 27.1117C172.417 26.5593 172.495 25.9709 172.781 25.4758C173.066 24.9806 173.537 24.6191 174.089 24.4706Z" fill="#6F51FF"/>
</g>
<g clip-path="url(#clip6)">
<path d="M302.618 449.782C301.767 450.01 301.02 450.853 300.451 451.689L298.669 445.036C298.435 444.129 297.937 443.313 297.238 442.69C296.539 442.068 295.671 441.667 294.743 441.539C293.816 441.411 292.872 441.562 292.03 441.973C291.189 442.383 290.489 443.035 290.019 443.844C289.171 442.286 287.91 440.993 286.374 440.107C286.175 439.993 285.939 439.962 285.718 440.022C285.497 440.082 285.309 440.227 285.195 440.425C285.081 440.624 285.05 440.859 285.11 441.08C285.169 441.302 285.314 441.49 285.513 441.604C286.421 442.125 287.217 442.821 287.854 443.652C288.491 444.482 288.958 445.431 289.226 446.443L291.851 456.239C291.876 456.353 291.923 456.461 291.991 456.556C292.059 456.651 292.145 456.732 292.245 456.793C292.345 456.854 292.456 456.894 292.571 456.91C292.687 456.927 292.805 456.92 292.918 456.89C293.031 456.86 293.136 456.807 293.228 456.734C293.32 456.662 293.396 456.572 293.452 456.469C293.508 456.367 293.543 456.254 293.554 456.137C293.565 456.021 293.552 455.904 293.516 455.792L291.172 447.045C290.965 446.271 291.073 445.447 291.474 444.754C291.874 444.061 292.533 443.555 293.306 443.348C294.08 443.141 294.904 443.249 295.597 443.649C296.29 444.05 296.796 444.709 297.003 445.482L299.253 453.878L298.466 455.25C298.25 455.626 297.961 455.956 297.617 456.22C297.273 456.484 296.88 456.677 296.461 456.788C296.347 456.813 296.239 456.86 296.144 456.928C296.048 456.996 295.968 457.082 295.907 457.182C295.846 457.282 295.806 457.393 295.789 457.508C295.773 457.624 295.78 457.742 295.81 457.855C295.84 457.968 295.893 458.073 295.965 458.165C296.037 458.257 296.128 458.333 296.23 458.389C296.333 458.445 296.446 458.48 296.562 458.491C296.679 458.502 296.796 458.489 296.907 458.453C297.545 458.284 298.144 457.99 298.667 457.588C299.191 457.186 299.63 456.685 299.959 456.112L300.459 455.245C301.477 455.892 303.164 456.777 304.404 456.445C304.851 456.336 305.272 456.14 305.642 455.866C306.012 455.593 306.324 455.248 306.559 454.853C306.794 454.457 306.947 454.018 307.01 453.563C307.073 453.107 307.044 452.643 306.925 452.198C306.806 451.754 306.599 451.338 306.317 450.974C306.034 450.611 305.682 450.308 305.281 450.083C304.88 449.857 304.437 449.715 303.98 449.663C303.523 449.611 303.06 449.652 302.618 449.782ZM303.958 454.779C303.472 454.91 302.286 454.37 301.266 453.716C301.822 452.637 302.579 451.577 303.065 451.447C303.507 451.329 303.977 451.391 304.374 451.619C304.77 451.848 305.059 452.225 305.177 452.667C305.296 453.109 305.234 453.579 305.005 453.976C304.776 454.372 304.399 454.661 303.958 454.779Z" fill="#6F51FF"/>
</g>
<g clip-path="url(#clip7)">
<path d="M394.221 381.096C394.091 381.046 393.95 381.029 393.811 381.045C393.672 381.062 393.54 381.112 393.425 381.191C393.309 381.27 393.215 381.376 393.15 381.5C393.085 381.624 393.051 381.761 393.051 381.901L393.049 386.691L389.976 385.374C389.845 385.318 389.702 385.295 389.56 385.308C389.418 385.321 389.282 385.368 389.163 385.447C389.044 385.525 388.946 385.632 388.878 385.757C388.81 385.883 388.775 386.023 388.774 386.165L388.777 390.962L385.704 389.645C385.579 389.592 385.443 389.569 385.307 389.578C385.171 389.587 385.04 389.628 384.923 389.698C384.806 389.768 384.707 389.864 384.635 389.979C384.562 390.095 384.518 390.225 384.506 390.361L383.906 397.066C383.889 397.182 383.896 397.3 383.927 397.413C383.957 397.526 384.01 397.632 384.083 397.724C384.155 397.816 384.246 397.892 384.349 397.948C384.452 398.004 384.565 398.038 384.682 398.048C384.798 398.059 384.916 398.046 385.027 398.01C385.138 397.973 385.241 397.915 385.329 397.838C385.417 397.76 385.489 397.666 385.539 397.56C385.589 397.455 385.618 397.34 385.622 397.223L386.126 391.697L389.303 393.059C389.434 393.115 389.577 393.138 389.719 393.125C389.861 393.112 389.997 393.064 390.116 392.986C390.235 392.908 390.333 392.801 390.4 392.676C390.468 392.55 390.504 392.41 390.504 392.268L390.506 387.478L393.579 388.795C393.71 388.851 393.853 388.873 393.995 388.861C394.137 388.848 394.273 388.8 394.392 388.722C394.511 388.643 394.609 388.537 394.677 388.411C394.744 388.286 394.78 388.146 394.78 388.003L394.774 383.156L397.561 384.234C397.771 384.303 398.001 384.289 398.201 384.194C398.402 384.099 398.558 383.931 398.638 383.723C398.717 383.516 398.714 383.286 398.628 383.082C398.543 382.877 398.382 382.713 398.178 382.624L394.221 381.096Z" fill="#6F51FF"/>
<path d="M399.709 386.584C399.578 386.534 399.438 386.517 399.299 386.533C399.16 386.55 399.028 386.6 398.912 386.679C398.797 386.758 398.703 386.864 398.638 386.988C398.573 387.111 398.539 387.249 398.538 387.389L398.537 392.178L395.464 390.861C395.333 390.805 395.19 390.783 395.048 390.796C394.906 390.808 394.769 390.856 394.65 390.935C394.531 391.013 394.434 391.12 394.366 391.245C394.298 391.37 394.263 391.511 394.262 391.653L394.265 396.45L391.192 395.133C391.067 395.08 390.931 395.056 390.795 395.066C390.659 395.075 390.527 395.116 390.411 395.186C390.294 395.255 390.195 395.352 390.123 395.467C390.05 395.582 390.006 395.713 389.994 395.849L389.399 402.56C389.383 402.676 389.39 402.794 389.42 402.907C389.451 403.02 389.504 403.126 389.576 403.218C389.649 403.309 389.739 403.386 389.842 403.441C389.945 403.497 390.059 403.531 390.175 403.542C390.292 403.553 390.409 403.539 390.521 403.503C390.632 403.467 390.735 403.408 390.823 403.331C390.911 403.254 390.982 403.16 391.033 403.054C391.083 402.948 391.111 402.833 391.116 402.716L391.615 397.186L394.792 398.549C394.923 398.604 395.066 398.627 395.208 398.614C395.35 398.601 395.486 398.554 395.605 398.475C395.724 398.397 395.822 398.29 395.89 398.165C395.957 398.04 395.993 397.899 395.993 397.757L395.993 392.966L399.067 394.283C399.198 394.339 399.341 394.361 399.482 394.348C399.624 394.336 399.761 394.288 399.88 394.21C399.999 394.131 400.097 394.024 400.164 393.899C400.232 393.774 400.268 393.634 400.268 393.491L400.262 388.644L403.05 389.723C403.157 389.77 403.272 389.794 403.389 389.795C403.506 389.796 403.621 389.774 403.729 389.729C403.837 389.684 403.934 389.617 404.016 389.534C404.097 389.45 404.16 389.35 404.202 389.241C404.244 389.132 404.263 389.016 404.259 388.9C404.254 388.783 404.226 388.668 404.176 388.563C404.126 388.457 404.055 388.363 403.968 388.286C403.881 388.209 403.778 388.15 403.668 388.113L399.709 386.584Z" fill="#6F51FF"/>
</g>
<g clip-path="url(#clip8)">
<path d="M447.76 301.962L448.771 298.188C450.554 298.755 452.242 299.588 453.776 300.66L456.266 302.399C456.359 302.47 456.465 302.521 456.577 302.55C456.69 302.579 456.808 302.584 456.923 302.567C457.038 302.549 457.148 302.508 457.247 302.447C457.346 302.385 457.431 302.304 457.498 302.209C457.565 302.113 457.611 302.006 457.635 301.892C457.659 301.778 457.66 301.66 457.637 301.546C457.615 301.432 457.569 301.323 457.504 301.227C457.438 301.131 457.354 301.049 457.256 300.987L454.765 299.248C453.067 298.06 451.197 297.14 449.22 296.52L450.32 292.413C452.342 292.865 454.422 293.004 456.486 292.825L459.512 292.565C459.733 292.536 459.934 292.423 460.073 292.249C460.213 292.076 460.28 291.855 460.26 291.634C460.241 291.412 460.137 291.206 459.969 291.06C459.802 290.913 459.584 290.837 459.362 290.847L456.335 291.107C454.471 291.269 452.593 291.147 450.765 290.746L451.777 286.97C451.824 286.753 451.785 286.527 451.67 286.338C451.555 286.148 451.371 286.011 451.157 285.954C450.943 285.896 450.715 285.923 450.52 286.03C450.326 286.136 450.179 286.312 450.112 286.523L449.1 290.298C447.317 289.731 445.629 288.897 444.096 287.825L441.605 286.087C441.512 286.016 441.407 285.965 441.294 285.936C441.181 285.907 441.064 285.901 440.949 285.919C440.834 285.937 440.723 285.978 440.624 286.039C440.526 286.101 440.44 286.182 440.374 286.277C440.307 286.372 440.26 286.48 440.236 286.594C440.212 286.708 440.211 286.826 440.234 286.94C440.257 287.054 440.302 287.162 440.368 287.258C440.433 287.355 440.518 287.436 440.616 287.499L443.107 289.238C444.805 290.426 446.676 291.346 448.653 291.967L447.553 296.073C445.531 295.622 443.451 295.484 441.387 295.663L438.361 295.924C438.244 295.929 438.13 295.958 438.025 296.008C437.92 296.059 437.827 296.13 437.75 296.217C437.673 296.305 437.615 296.407 437.579 296.518C437.543 296.628 437.53 296.745 437.54 296.861C437.55 296.977 437.583 297.09 437.638 297.192C437.693 297.295 437.768 297.386 437.859 297.459C437.949 297.531 438.054 297.585 438.166 297.617C438.278 297.648 438.395 297.657 438.511 297.642L441.537 297.381C443.402 297.22 445.28 297.342 447.108 297.743L446.096 301.517C446.061 301.628 446.048 301.745 446.059 301.862C446.07 301.978 446.104 302.091 446.16 302.194C446.216 302.296 446.292 302.387 446.384 302.459C446.476 302.531 446.582 302.584 446.695 302.614C446.808 302.644 446.925 302.651 447.041 302.635C447.157 302.618 447.268 302.578 447.368 302.517C447.467 302.456 447.554 302.376 447.622 302.281C447.689 302.185 447.737 302.077 447.762 301.963L447.76 301.962Z" fill="#6F51FF"/>
</g>
<g clip-path="url(#clip9)">
<path d="M438.183 178.279C438.431 179.209 438.983 180.028 439.751 180.607C440.519 181.186 441.459 181.491 442.42 181.474C442.442 181.468 442.464 181.462 442.49 181.47L454.3 180.32L443.495 185.229C443.473 185.235 443.451 185.241 443.433 185.261C442.592 185.727 441.931 186.462 441.556 187.348C441.181 188.233 441.113 189.219 441.364 190.148C441.654 191.223 442.358 192.14 443.323 192.698C444.288 193.255 445.435 193.407 446.511 193.12C446.918 193.012 447.3 192.825 447.634 192.569C447.968 192.313 448.248 191.993 448.458 191.628L449.803 189.298C449.904 189.101 449.925 188.873 449.863 188.66C449.8 188.448 449.658 188.268 449.466 188.157C449.274 188.046 449.047 188.014 448.832 188.065C448.617 188.117 448.43 188.25 448.31 188.436L446.965 190.766C446.868 190.934 446.739 191.081 446.585 191.2C446.431 191.318 446.255 191.404 446.067 191.454C445.431 191.624 444.753 191.535 444.183 191.206C443.612 190.877 443.196 190.334 443.026 189.698C442.877 189.146 442.916 188.56 443.136 188.032C443.356 187.505 443.744 187.065 444.241 186.782L457.421 180.795C457.443 180.789 457.465 180.783 457.483 180.763C457.736 180.623 457.934 180.403 458.047 180.137C458.16 179.872 458.18 179.576 458.106 179.297C458.031 179.018 457.865 178.772 457.635 178.599C457.404 178.425 457.122 178.333 456.833 178.338C456.811 178.344 456.789 178.35 456.764 178.342L442.356 179.747C441.784 179.751 441.227 179.564 440.773 179.216C440.318 178.869 439.992 178.38 439.845 177.828C439.675 177.191 439.764 176.513 440.093 175.943C440.422 175.373 440.965 174.956 441.601 174.786C441.788 174.735 441.984 174.722 442.177 174.747C442.369 174.772 442.555 174.836 442.723 174.933L445.052 176.278C445.249 176.379 445.477 176.401 445.69 176.338C445.902 176.275 446.082 176.134 446.193 175.942C446.304 175.75 446.337 175.523 446.285 175.308C446.233 175.092 446.1 174.905 445.914 174.785L443.585 173.44C443.22 173.231 442.818 173.095 442.401 173.042C441.984 172.988 441.56 173.018 441.155 173.129C440.079 173.419 439.162 174.124 438.604 175.09C438.047 176.055 437.896 177.202 438.183 178.279Z" fill="#6F51FF"/>
</g>
<g clip-path="url(#clip13)">
<path d="M378.548 84.0383L379.78 85.2704C380.258 85.7482 380.864 86.0753 381.526 86.2111C382.187 86.3469 382.874 86.2854 383.5 86.0343L386.427 84.8636C386.741 84.7379 387.084 84.7071 387.415 84.775C387.745 84.8429 388.049 85.0066 388.287 85.2456L390.755 87.7129C390.993 87.95 391.157 88.2518 391.226 88.581C391.295 88.9102 391.267 89.2524 391.144 89.5655L389.973 92.4923C389.719 93.1193 389.656 93.807 389.79 94.4699C389.925 95.1327 390.251 95.7413 390.73 96.2196L391.962 97.4518C392.126 97.6006 392.341 97.6806 392.563 97.6752C392.784 97.6698 392.995 97.5793 393.152 97.4227C393.308 97.266 393.399 97.0551 393.404 96.8336C393.41 96.6121 393.33 96.3969 393.181 96.2328L391.949 95.0006C391.71 94.7635 391.546 94.4617 391.477 94.1325C391.408 93.8033 391.436 93.4611 391.559 93.1479L392.73 90.2211C392.989 89.5729 393.044 88.8614 392.888 88.1811C394.145 88.3712 395.43 88.1597 396.56 87.5766C397.689 86.9936 398.606 86.0687 399.179 84.934C399.753 83.7993 399.953 82.5126 399.752 81.2573C399.551 80.002 398.959 78.8423 398.06 77.9434C397.161 77.0444 396.001 76.4522 394.746 76.2512C393.49 76.0501 392.204 76.2504 391.069 76.8236C389.934 77.3968 389.009 78.3136 388.426 79.4433C387.843 80.573 387.632 81.8579 387.822 83.1148C387.142 82.9594 386.43 83.0145 385.782 83.2729L382.855 84.4436C382.542 84.5693 382.198 84.6001 381.868 84.5322C381.537 84.4643 381.234 84.3007 380.995 84.0617L379.763 82.8295C379.684 82.7429 379.589 82.6731 379.483 82.6245C379.377 82.5758 379.262 82.5492 379.145 82.5464C379.028 82.5435 378.912 82.5644 378.803 82.6078C378.695 82.6512 378.596 82.7162 378.513 82.7989C378.431 82.8815 378.366 82.9801 378.322 83.0886C378.279 83.1972 378.258 83.3134 378.261 83.4302C378.264 83.5471 378.29 83.6622 378.339 83.7684C378.388 83.8747 378.457 83.97 378.544 84.0485L378.548 84.0383ZM390.743 79.1607C391.346 78.5578 392.114 78.1473 392.95 77.9809C393.786 77.8146 394.653 77.9 395.441 78.2262C396.229 78.5525 396.902 79.1051 397.376 79.814C397.849 80.5229 398.102 81.3564 398.102 82.209C398.102 83.0616 397.849 83.8951 397.376 84.604C396.902 85.3129 396.229 85.8655 395.441 86.1918C394.653 86.518 393.786 86.6034 392.95 86.4371C392.114 86.2707 391.346 85.8602 390.743 85.2573C389.936 84.448 389.483 83.3518 389.483 82.209C389.483 81.0662 389.936 79.97 390.743 79.1607Z" fill="#6F51FF"/>
</g>
<g clip-path="url(#clip12)">
<path d="M306.119 22.215C306.319 22.1325 306.481 21.9779 306.572 21.7817C306.664 21.5855 306.678 21.3622 306.613 21.156C306.547 20.9497 306.406 20.7756 306.219 20.6681C306.031 20.5606 305.809 20.5277 305.598 20.5757C302.549 21.5277 299.292 21.5941 296.207 20.7673C293.121 19.9405 290.334 18.2545 288.169 15.9054C288.01 15.7604 287.802 15.6801 287.587 15.6803C287.371 15.6805 287.164 15.7611 287.005 15.9064C286.846 16.0517 286.747 16.2511 286.728 16.4655C286.708 16.68 286.77 16.8939 286.9 17.0653C288.087 18.358 289.452 19.4743 290.955 20.3801L287.535 33.142C285.781 33.1751 284.04 33.459 282.366 33.9853C282.166 34.0678 282.005 34.2224 281.913 34.4186C281.822 34.6147 281.807 34.8381 281.873 35.0443C281.938 35.2506 282.079 35.4247 282.267 35.5322C282.455 35.6396 282.676 35.6726 282.887 35.6246C285.937 34.6737 289.194 34.6083 292.279 35.4362C295.364 36.264 298.151 37.951 300.315 40.3008C300.474 40.4459 300.682 40.5262 300.897 40.526C301.113 40.5258 301.32 40.4452 301.479 40.2999C301.638 40.1546 301.737 39.9552 301.756 39.7407C301.775 39.5263 301.714 39.3124 301.584 39.1409C300.398 37.8462 299.033 36.728 297.531 35.8202L300.95 23.0583C302.705 23.0252 304.445 22.7412 306.119 22.215ZM295.968 34.9902C294.926 34.4848 293.84 34.0775 292.723 33.7734C291.603 33.4781 290.458 33.2876 289.303 33.2044L292.517 21.2101C294.608 22.2135 296.868 22.8189 299.18 22.9954L295.968 34.9902Z" fill="#6F51FF"/>
</g>
<defs>
<linearGradient id="paint0_linear" x1="226.617" y1="228.687" x2="226.617" y2="247.313" gradientUnits="userSpaceOnUse">
<stop stop-color="#7558FF"/>
<stop offset="1" stop-color="#6544E9"/>
</linearGradient>
<linearGradient id="paint1_linear" x1="251.452" y1="207.991" x2="251.452" y2="226.617" gradientUnits="userSpaceOnUse">
<stop stop-color="#7558FF"/>
<stop offset="1" stop-color="#6544E9"/>
</linearGradient>
<linearGradient id="paint2_linear" x1="275.252" y1="228.687" x2="275.252" y2="247.313" gradientUnits="userSpaceOnUse">
<stop stop-color="#7558FF"/>
<stop offset="1" stop-color="#6544E9"/>
</linearGradient>
<linearGradient id="paint3_linear" x1="276.287" y1="259.73" x2="276.287" y2="278.357" gradientUnits="userSpaceOnUse">
<stop stop-color="#7558FF"/>
<stop offset="1" stop-color="#6544E9"/>
</linearGradient>
<linearGradient id="paint4_linear" x1="257.661" y1="287.67" x2="257.661" y2="306.296" gradientUnits="userSpaceOnUse">
<stop stop-color="#7558FF"/>
<stop offset="1" stop-color="#6544E9"/>
</linearGradient>
<linearGradient id="paint5_linear" x1="308.365" y1="202.817" x2="308.365" y2="221.443" gradientUnits="userSpaceOnUse">
<stop stop-color="#7558FF"/>
<stop offset="1" stop-color="#6544E9"/>
</linearGradient>
<linearGradient id="paint6_linear" x1="321.817" y1="250.417" x2="321.817" y2="269.043" gradientUnits="userSpaceOnUse">
<stop stop-color="#7558FF"/>
<stop offset="1" stop-color="#6544E9"/>
</linearGradient>
<linearGradient id="paint7_linear" x1="307.33" y1="300.087" x2="307.33" y2="318.713" gradientUnits="userSpaceOnUse">
<stop stop-color="#7558FF"/>
<stop offset="1" stop-color="#6544E9"/>
</linearGradient>
<linearGradient id="paint8_linear" x1="213.165" y1="337.339" x2="213.165" y2="355.965" gradientUnits="userSpaceOnUse">
<stop stop-color="#7558FF"/>
<stop offset="1" stop-color="#6544E9"/>
</linearGradient>
<linearGradient id="paint9_linear" x1="349.756" y1="173.843" x2="349.756" y2="192.47" gradientUnits="userSpaceOnUse">
<stop stop-color="#7558FF"/>
<stop offset="1" stop-color="#6544E9"/>
</linearGradient>
<linearGradient id="paint10_linear" x1="365.278" y1="176.948" x2="365.278" y2="195.574" gradientUnits="userSpaceOnUse">
<stop stop-color="#7558FF"/>
<stop offset="1" stop-color="#6544E9"/>
</linearGradient>
<linearGradient id="paint11_linear" x1="294.913" y1="366.313" x2="294.913" y2="384.939" gradientUnits="userSpaceOnUse">
<stop stop-color="#7558FF"/>
<stop offset="1" stop-color="#6544E9"/>
</linearGradient>
<linearGradient id="paint12_linear" x1="124.174" y1="343.548" x2="124.174" y2="362.174" gradientUnits="userSpaceOnUse">
<stop stop-color="#7558FF"/>
<stop offset="1" stop-color="#6544E9"/>
</linearGradient>
<linearGradient id="paint13_linear" x1="346.652" y1="92.0956" x2="346.652" y2="110.722" gradientUnits="userSpaceOnUse">
<stop stop-color="#7558FF"/>
<stop offset="1" stop-color="#6544E9"/>
</linearGradient>
<linearGradient id="paint14_linear" x1="225.741" y1="250.907" x2="244.367" y2="250.907" gradientUnits="userSpaceOnUse">
<stop stop-color="#FF698F"/>
<stop offset="1" stop-color="#FF8AAF"/>
</linearGradient>
<linearGradient id="paint15_linear" x1="212.178" y1="221.562" x2="230.804" y2="221.562" gradientUnits="userSpaceOnUse">
<stop stop-color="#FF698F"/>
<stop offset="1" stop-color="#FF8AAF"/>
</linearGradient>
<linearGradient id="paint16_linear" x1="238.328" y1="203.93" x2="256.954" y2="203.93" gradientUnits="userSpaceOnUse">
<stop stop-color="#FF698F"/>
<stop offset="1" stop-color="#FF8AAF"/>
</linearGradient>
<linearGradient id="paint17_linear" x1="268.582" y1="210.965" x2="287.208" y2="210.965" gradientUnits="userSpaceOnUse">
<stop stop-color="#FF698F"/>
<stop offset="1" stop-color="#FF8AAF"/>
</linearGradient>
<linearGradient id="paint18_linear" x1="290.748" y1="236.187" x2="309.374" y2="236.187" gradientUnits="userSpaceOnUse">
<stop stop-color="#FF698F"/>
<stop offset="1" stop-color="#FF8AAF"/>
</linearGradient>
<linearGradient id="paint19_linear" x1="221.911" y1="165.249" x2="240.537" y2="165.249" gradientUnits="userSpaceOnUse">
<stop stop-color="#FF698F"/>
<stop offset="1" stop-color="#FF8AAF"/>
</linearGradient>
<linearGradient id="paint20_linear" x1="271.371" y1="164.575" x2="289.997" y2="164.575" gradientUnits="userSpaceOnUse">
<stop stop-color="#FF698F"/>
<stop offset="1" stop-color="#FF8AAF"/>
</linearGradient>
<linearGradient id="paint21_linear" x1="315.598" y1="191.424" x2="334.224" y2="191.424" gradientUnits="userSpaceOnUse">
<stop stop-color="#FF698F"/>
<stop offset="1" stop-color="#FF8AAF"/>
</linearGradient>
<linearGradient id="paint22_linear" x1="327.209" y1="292.022" x2="345.835" y2="292.022" gradientUnits="userSpaceOnUse">
<stop stop-color="#FF698F"/>
<stop offset="1" stop-color="#FF8AAF"/>
</linearGradient>
<linearGradient id="paint23_linear" x1="204.637" y1="117.769" x2="223.263" y2="117.769" gradientUnits="userSpaceOnUse">
<stop stop-color="#FF698F"/>
<stop offset="1" stop-color="#FF8AAF"/>
</linearGradient>
<linearGradient id="paint24_linear" x1="211.653" y1="103.58" x2="230.279" y2="103.58" gradientUnits="userSpaceOnUse">
<stop stop-color="#FF698F"/>
<stop offset="1" stop-color="#FF8AAF"/>
</linearGradient>
<linearGradient id="paint25_linear" x1="376.354" y1="220.559" x2="394.98" y2="220.559" gradientUnits="userSpaceOnUse">
<stop stop-color="#FF698F"/>
<stop offset="1" stop-color="#FF8AAF"/>
</linearGradient>
<linearGradient id="paint26_linear" x1="310.174" y1="379.588" x2="328.8" y2="379.588" gradientUnits="userSpaceOnUse">
<stop stop-color="#FF698F"/>
<stop offset="1" stop-color="#FF8AAF"/>
</linearGradient>
<linearGradient id="paint27_linear" x1="124.871" y1="99.6101" x2="143.497" y2="99.6101" gradientUnits="userSpaceOnUse">
<stop stop-color="#FF698F"/>
<stop offset="1" stop-color="#FF8AAF"/>
</linearGradient>



</defs>
</svg>
