<svg width="16" height="16" viewBox="0 0 16 16" fill="none" xmlns="http://www.w3.org/2000/svg">
<g clip-path="url(#clip0)">
<path d="M15.8135 14.9078L11.3607 10.4502C12.3988 9.17852 12.9086 7.55657 12.7847 5.91966C12.6607 4.28276 11.9125 2.75606 10.6948 1.6552C9.47702 0.554349 7.88281 -0.036481 6.24174 0.00486479C4.60067 0.0462106 3.03823 0.71657 1.87745 1.87735C0.716668 3.03813 0.0463079 4.60057 0.00496207 6.24164C-0.0363838 7.88271 0.554446 9.47693 1.6553 10.6947C2.75616 11.9124 4.28285 12.6606 5.91976 12.7846C7.55667 12.9085 9.17861 12.3987 10.4503 11.3606L14.9079 15.8134C14.9673 15.8728 15.0379 15.92 15.1156 15.9522C15.1933 15.9844 15.2766 16.0009 15.3607 16.0009C15.4448 16.0009 15.528 15.9844 15.6057 15.9522C15.6834 15.92 15.754 15.8728 15.8135 15.8134C15.8729 15.7539 15.9201 15.6833 15.9523 15.6056C15.9845 15.5279 16.001 15.4447 16.001 15.3606C16.001 15.2765 15.9845 15.1932 15.9523 15.1155C15.9201 15.0378 15.8729 14.9672 15.8135 14.9078ZM1.28066 6.40057C1.28066 5.38793 1.58095 4.39803 2.14354 3.55605C2.70613 2.71407 3.50577 2.05782 4.44132 1.6703C5.37688 1.28278 6.40634 1.18139 7.39953 1.37895C8.39271 1.5765 9.30501 2.06414 10.0211 2.78018C10.7371 3.49622 11.2247 4.40852 11.4223 5.4017C11.6198 6.39489 11.5184 7.42435 11.1309 8.35991C10.7434 9.29546 10.0872 10.0951 9.24518 10.6577C8.4032 11.2203 7.4133 11.5206 6.40066 11.5206C5.04275 11.5206 3.74046 10.9811 2.78028 10.021C1.82009 9.06077 1.28066 7.75848 1.28066 6.40057Z" fill="#6F51FF"/>
</g>
<defs>
<clipPath id="clip0">
<rect width="16" height="16" fill="white"/>
</clipPath>
</defs>
</svg>
