<svg width="16" height="16" viewBox="0 0 16 16" fill="none" xmlns="http://www.w3.org/2000/svg">
<g clip-path="url(#clip0)">
<path d="M13.44 0H2.56C1.88105 0 1.2299 0.269714 0.749807 0.749807C0.269714 1.2299 0 1.88105 0 2.56L0 13.44C0 14.119 0.269714 14.7701 0.749807 15.2502C1.2299 15.7303 1.88105 16 2.56 16H13.44C14.119 16 14.7701 15.7303 15.2502 15.2502C15.7303 14.7701 16 14.119 16 13.44V2.56C16 1.88105 15.7303 1.2299 15.2502 0.749807C14.7701 0.269714 14.119 0 13.44 0V0ZM1.28 4.8V2.56C1.28 2.22052 1.41486 1.89495 1.6549 1.6549C1.89495 1.41486 2.22052 1.28 2.56 1.28H13.44C13.7795 1.28 14.105 1.41486 14.3451 1.6549C14.5851 1.89495 14.72 2.22052 14.72 2.56V4.8H1.28ZM8.64 9.92V6.08H14.72V9.92H8.64ZM1.28 9.92V6.08H7.36V9.92H1.28ZM8.64 14.72V11.2H14.72V13.44C14.72 13.7795 14.5851 14.105 14.3451 14.3451C14.105 14.5851 13.7795 14.72 13.44 14.72H8.64ZM2.56 14.72C2.22052 14.72 1.89495 14.5851 1.6549 14.3451C1.41486 14.105 1.28 13.7795 1.28 13.44V11.2H7.36V14.72H2.56Z" fill="#6F51FF"/>
</g>
<defs>
<clipPath id="clip0">
<rect width="16" height="16" fill="white"/>
</clipPath>
</defs>
</svg>
