<svg width="11" height="14" viewBox="0 0 11 14" fill="none" xmlns="http://www.w3.org/2000/svg">
<path d="M5.168 11.192C4.63467 11.192 4.13333 11.1173 3.664 10.968C3.20533 10.808 2.80533 10.552 2.464 10.2C2.13333 9.83733 1.872 9.368 1.68 8.792C1.488 8.216 1.392 7.50667 1.392 6.664V0.504H2.72V6.696C2.72 7.32533 2.784 7.85333 2.912 8.28C3.04 8.70667 3.21067 9.048 3.424 9.304C3.648 9.56 3.90933 9.74667 4.208 9.864C4.50667 9.97067 4.82667 10.024 5.168 10.024C5.52 10.024 5.84533 9.97067 6.144 9.864C6.44267 9.74667 6.704 9.56 6.928 9.304C7.152 9.048 7.328 8.70667 7.456 8.28C7.584 7.85333 7.648 7.32533 7.648 6.696V0.504H8.928V6.664C8.928 7.50667 8.832 8.216 8.64 8.792C8.448 9.368 8.18133 9.83733 7.84 10.2C7.50933 10.552 7.11467 10.808 6.656 10.968C6.19733 11.1173 5.70133 11.192 5.168 11.192Z" fill="#1F222E"/>
<path d="M0 12.6H10.32V13.4H0V12.6Z" fill="#1F222E"/>
</svg>
