<svg width="26" height="26" viewBox="0 0 26 26" fill="none" xmlns="http://www.w3.org/2000/svg">
<g clip-path="url(#clip0)">
<path d="M4.84769 20.3575L6.07485 15.7776C6.11634 15.6259 6.19911 15.4886 6.31395 15.3811C7.60245 17.3238 9.25102 19.002 11.1706 20.3248C11.8322 20.7741 12.3104 21.0287 12.6702 21.1251C13.0542 21.2285 13.4548 21.2552 13.8491 21.2035C14.2434 21.1518 14.6236 21.0228 14.9679 20.8238C15.3123 20.6248 15.6139 20.3599 15.8556 20.0441C16.0973 19.7283 16.2743 19.3679 16.3765 18.9836C16.4919 18.5508 16.5086 18.0977 16.4254 17.6576L18.7922 18.2918C19.4689 18.4718 20.1843 18.4417 20.8434 18.2055C21.5025 17.9692 22.0742 17.538 22.4824 16.9692C22.8906 16.4003 23.116 15.7206 23.1288 15.0206C23.1415 14.3205 22.9409 13.6331 22.5537 13.0498C23.0313 12.813 23.4474 12.4687 23.7694 12.0438C24.0914 11.619 24.3104 11.1252 24.4092 10.6014C24.508 10.0775 24.484 9.53793 24.3389 9.02497C24.1939 8.51202 23.9318 8.0397 23.5733 7.64519C24.1575 7.43687 24.7088 7.1459 25.2104 6.78115L25.2627 6.74588C25.3594 6.68096 25.4421 6.59711 25.5056 6.49939C25.5691 6.40167 25.6121 6.2921 25.6321 6.17729C25.6521 6.06248 25.6486 5.94481 25.6219 5.83137C25.5952 5.71794 25.5458 5.61109 25.4767 5.51726C25.4076 5.42344 25.3201 5.34459 25.2197 5.28547C25.1193 5.22635 25.0079 5.18818 24.8923 5.17327C24.7768 5.15836 24.6594 5.16701 24.5472 5.1987C24.4351 5.23039 24.3305 5.28447 24.2398 5.35768L24.1864 5.39694C23.6141 5.81995 22.9535 6.10807 22.2541 6.23974C21.5546 6.37142 20.8345 6.34324 20.1475 6.15732L11.0898 3.73032C10.8733 3.68352 10.647 3.72181 10.4579 3.83726C10.2687 3.95271 10.1313 4.13648 10.0739 4.3505C10.0166 4.56452 10.0438 4.7924 10.1498 4.98694C10.2559 5.18148 10.4327 5.32777 10.6436 5.39553L21.4705 8.29657C21.9121 8.41491 22.2886 8.70384 22.5173 9.0998C22.7459 9.49576 22.8078 9.96632 22.6895 10.408C22.5711 10.8496 22.2822 11.2261 21.8862 11.4548C21.4903 11.6834 21.0197 11.7453 20.5781 11.627L9.75125 8.72594C9.53468 8.67914 9.30841 8.71743 9.11929 8.83288C8.93018 8.94833 8.79271 9.1321 8.73536 9.34611C8.67802 9.56014 8.70518 9.78801 8.81124 9.98255C8.91729 10.1771 9.0941 10.3234 9.30506 10.3911L20.1319 13.2922C20.5738 13.4106 20.9506 13.6997 21.1793 14.0959C21.4081 14.4921 21.47 14.9629 21.3516 15.4048C21.2332 15.8468 20.9441 16.2235 20.5479 16.4523C20.1517 16.681 19.6809 16.743 19.239 16.6246L7.57854 13.5002C7.42882 13.4607 7.27586 13.4348 7.12151 13.4227L4.82768 9.4614C4.77431 9.35735 4.70034 9.26523 4.61028 9.19064C4.52023 9.11604 4.41595 9.06053 4.30378 9.02747C4.19161 8.99441 4.07389 8.98449 3.95777 8.99831C3.84165 9.01213 3.72956 9.04941 3.62829 9.10788C3.52701 9.16635 3.43868 9.24479 3.36865 9.33844C3.29862 9.4321 3.24835 9.539 3.2209 9.65267C3.19345 9.76634 3.18938 9.88441 3.20895 9.9997C3.22852 10.115 3.27132 10.2251 3.33474 10.3233L5.4016 13.9003C4.91431 14.2482 4.56338 14.7549 4.40911 15.3334L3.18249 19.9113C3.14674 20.0226 3.13398 20.1399 3.14497 20.2563C3.15596 20.3727 3.19048 20.4856 3.24643 20.5882C3.30238 20.6909 3.37859 20.7811 3.47045 20.8534C3.5623 20.9256 3.66789 20.9785 3.78079 21.0088C3.8937 21.039 4.01157 21.046 4.12727 21.0294C4.24296 21.0127 4.35406 20.9727 4.45383 20.9118C4.5536 20.8509 4.63995 20.7703 4.70766 20.675C4.77536 20.5798 4.823 20.4717 4.84769 20.3575ZM14.7093 18.5369C14.62 18.8679 14.4031 19.1501 14.1062 19.3215C13.8092 19.493 13.4564 19.5397 13.1251 19.4515C13.0831 19.4403 12.835 19.3588 12.1426 18.8883C10.7931 17.9628 9.59108 16.839 8.57713 15.5547L13.7946 16.9527C14.1257 17.042 14.4079 17.2588 14.5793 17.5558C14.7507 17.8527 14.7975 18.2055 14.7093 18.5369Z" fill="#6F51FF"/>
</g>
<defs>
<clipPath id="clip0">
<rect x="25.8083" y="5.44043" width="20.6957" height="20.6957" transform="rotate(105 25.8083 5.44043)" fill="white"/>
</clipPath>
</defs>
</svg>
