<svg width="300" height="182" viewBox="0 0 300 182" fill="none" xmlns="http://www.w3.org/2000/svg">
<rect x="0.5" y="0.5" width="299" height="181" rx="3.5" fill="white" stroke="#B3B3BE"/>
<rect x="16.8638" y="10.5097" width="266.273" height="160.98" stroke="#B3B3BE"/>
<rect x="200.113" y="0.113636" width="0.227273" height="9.78272" stroke="#B3B3BE" stroke-width="0.227273"/>
<rect x="99.6586" y="0.113636" width="0.227273" height="9.78272" stroke="#B3B3BE" stroke-width="0.227273"/>
<rect x="200.113" y="172.104" width="0.227273" height="9.78272" stroke="#B3B3BE" stroke-width="0.227273"/>
<rect x="99.6586" y="172.104" width="0.227273" height="9.78272" stroke="#B3B3BE" stroke-width="0.227273"/>
<rect x="0.11375" y="60.8564" width="0.2275" height="16.1361" transform="rotate(-90 0.11375 60.8564)" stroke="#B3B3BE" stroke-width="0.2275"/>
<rect x="0.11375" y="121.371" width="0.2275" height="16.1361" transform="rotate(-90 0.11375 121.371)" stroke="#B3B3BE" stroke-width="0.2275"/>
<rect x="283.75" y="60.8564" width="0.2275" height="16.1361" transform="rotate(-90 283.75 60.8564)" stroke="#B3B3BE" stroke-width="0.2275"/>
<rect x="283.75" y="121.371" width="0.2275" height="16.1361" transform="rotate(-90 283.75 121.371)" stroke="#B3B3BE" stroke-width="0.2275"/>
<path d="M39.3763 9.27502V8.73902C39.7283 8.39769 40.0456 8.08302 40.3283 7.79502C40.6163 7.50702 40.8589 7.24036 41.0563 6.99502C41.2589 6.74969 41.4136 6.52036 41.5203 6.30702C41.6269 6.09369 41.6803 5.89102 41.6803 5.69902C41.6803 5.42702 41.6083 5.21369 41.4643 5.05902C41.3203 4.89902 41.1123 4.81902 40.8403 4.81902C40.6429 4.81902 40.4616 4.87502 40.2963 4.98702C40.1363 5.09902 39.9869 5.23236 39.8483 5.38702L39.3363 4.87502C39.5709 4.62436 39.8109 4.43236 40.0563 4.29902C40.3069 4.16036 40.6083 4.09102 40.9603 4.09102C41.2056 4.09102 41.4269 4.12836 41.6243 4.20302C41.8216 4.27769 41.9896 4.38436 42.1283 4.52302C42.2669 4.65636 42.3736 4.81902 42.4483 5.01102C42.5283 5.20302 42.5683 5.41636 42.5683 5.65102C42.5683 5.87502 42.5176 6.10436 42.4163 6.33902C42.3203 6.56836 42.1869 6.80302 42.0163 7.04302C41.8509 7.27769 41.6563 7.52036 41.4323 7.77102C41.2083 8.02169 40.9709 8.28036 40.7203 8.54702C40.8536 8.53636 40.9976 8.52569 41.1523 8.51502C41.3069 8.49902 41.4456 8.49102 41.5683 8.49102H42.8163V9.27502H39.3763ZM45.3594 9.27502V5.34702H46.1194L46.1834 5.87502H46.2154C46.3914 5.70436 46.5807 5.55769 46.7834 5.43502C46.9914 5.31236 47.2314 5.25102 47.5034 5.25102C47.9247 5.25102 48.2314 5.38702 48.4234 5.65902C48.6154 5.92569 48.7114 6.30969 48.7114 6.81102V9.27502H47.7914V6.93102C47.7914 6.60569 47.7434 6.37636 47.6474 6.24302C47.5514 6.10969 47.3941 6.04302 47.1754 6.04302C47.0047 6.04302 46.8527 6.08569 46.7194 6.17102C46.5914 6.25102 46.4447 6.37102 46.2794 6.53102V9.27502H45.3594ZM51.212 9.37102C50.716 9.37102 50.3213 9.19236 50.028 8.83502C49.74 8.47236 49.596 7.96569 49.596 7.31502C49.596 6.99502 49.6413 6.70702 49.732 6.45102C49.828 6.19502 49.9533 5.97902 50.108 5.80302C50.2626 5.62702 50.4386 5.49102 50.636 5.39502C50.8386 5.29902 51.0466 5.25102 51.26 5.25102C51.484 5.25102 51.6733 5.29102 51.828 5.37102C51.9826 5.44569 52.1373 5.54969 52.292 5.68302L52.26 5.05102V3.62702H53.18V9.27502H52.42L52.356 8.85102H52.324C52.18 8.99502 52.012 9.11769 51.82 9.21902C51.628 9.32036 51.4253 9.37102 51.212 9.37102ZM51.436 8.61102C51.7293 8.61102 52.004 8.46436 52.26 8.17102V6.33902C52.1213 6.21636 51.9853 6.13102 51.852 6.08302C51.724 6.03502 51.5933 6.01102 51.46 6.01102C51.204 6.01102 50.988 6.12302 50.812 6.34702C50.636 6.57102 50.548 6.89102 50.548 7.30702C50.548 7.73369 50.6226 8.05902 50.772 8.28302C50.9266 8.50169 51.148 8.61102 51.436 8.61102ZM55.9531 9.27502V3.62702H56.8731V5.08302L56.8411 5.84302C57.0065 5.68836 57.1878 5.55236 57.3851 5.43502C57.5878 5.31236 57.8251 5.25102 58.0971 5.25102C58.5185 5.25102 58.8251 5.38702 59.0171 5.65902C59.2091 5.92569 59.3051 6.30969 59.3051 6.81102V9.27502H58.3851V6.93102C58.3851 6.60569 58.3371 6.37636 58.2411 6.24302C58.1451 6.10969 57.9878 6.04302 57.7691 6.04302C57.5985 6.04302 57.4465 6.08569 57.3131 6.17102C57.1851 6.25102 57.0385 6.37102 56.8731 6.53102V9.27502H55.9531ZM60.9341 9.37102C60.7634 9.37102 60.6194 9.31236 60.5021 9.19502C60.3901 9.07769 60.3341 8.92836 60.3341 8.74702C60.3341 8.56569 60.3901 8.41636 60.5021 8.29902C60.6194 8.18169 60.7634 8.12302 60.9341 8.12302C61.1047 8.12302 61.2461 8.18169 61.3581 8.29902C61.4701 8.41636 61.5261 8.56569 61.5261 8.74702C61.5261 8.92836 61.4701 9.07769 61.3581 9.19502C61.2461 9.31236 61.1047 9.37102 60.9341 9.37102Z" fill="#1F222E"/>
<path d="M141.968 7.27502V6.71102H142.82V4.20302H142.118V3.77102C142.31 3.73502 142.474 3.69302 142.61 3.64502C142.75 3.59302 142.88 3.53102 143 3.45902H143.516V6.71102H144.266V7.27502H141.968ZM147.061 7.34702C146.857 7.34702 146.655 7.30902 146.455 7.23302C146.259 7.15302 146.089 7.05502 145.945 6.93902L146.269 6.49502C146.401 6.59902 146.531 6.68102 146.659 6.74102C146.791 6.79702 146.933 6.82502 147.085 6.82502C147.245 6.82502 147.363 6.79302 147.439 6.72902C147.515 6.66102 147.553 6.57502 147.553 6.47102C147.553 6.41102 147.535 6.35902 147.499 6.31502C147.463 6.26702 147.415 6.22502 147.355 6.18902C147.295 6.15302 147.227 6.12102 147.151 6.09302C147.075 6.06102 146.999 6.02902 146.923 5.99702C146.827 5.96102 146.729 5.91902 146.629 5.87102C146.529 5.82302 146.439 5.76502 146.359 5.69702C146.283 5.62902 146.219 5.55102 146.167 5.46302C146.119 5.37102 146.095 5.26302 146.095 5.13902C146.095 4.87902 146.191 4.66702 146.383 4.50302C146.575 4.33902 146.837 4.25702 147.169 4.25702C147.373 4.25702 147.557 4.29302 147.721 4.36502C147.885 4.43702 148.027 4.51902 148.147 4.61102L147.829 5.03102C147.725 4.95502 147.619 4.89502 147.511 4.85102C147.407 4.80302 147.297 4.77902 147.181 4.77902C147.033 4.77902 146.923 4.81102 146.851 4.87502C146.783 4.93502 146.749 5.01102 146.749 5.10302C146.749 5.16302 146.765 5.21502 146.797 5.25902C146.833 5.29902 146.879 5.33502 146.935 5.36702C146.991 5.39902 147.055 5.42902 147.127 5.45702C147.203 5.48502 147.281 5.51302 147.361 5.54102C147.461 5.57702 147.561 5.61902 147.661 5.66702C147.761 5.71102 147.851 5.76702 147.931 5.83502C148.015 5.90302 148.081 5.98702 148.129 6.08702C148.181 6.18302 148.207 6.29902 148.207 6.43502C148.207 6.56302 148.181 6.68302 148.129 6.79502C148.081 6.90302 148.009 6.99902 147.913 7.08302C147.817 7.16302 147.697 7.22702 147.553 7.27502C147.409 7.32302 147.245 7.34702 147.061 7.34702ZM149.744 7.34702C149.572 7.34702 149.426 7.32102 149.306 7.26902C149.19 7.21702 149.094 7.14502 149.018 7.05302C148.946 6.95702 148.892 6.84502 148.856 6.71702C148.824 6.58502 148.808 6.43902 148.808 6.27902V4.87502H148.388V4.35902L148.844 4.32902L148.928 3.52502H149.504V4.32902H150.254V4.87502H149.504V6.27902C149.504 6.62302 149.642 6.79502 149.918 6.79502C149.97 6.79502 150.022 6.78902 150.074 6.77702C150.13 6.76502 150.18 6.74902 150.224 6.72902L150.344 7.23902C150.264 7.26702 150.172 7.29102 150.068 7.31102C149.968 7.33502 149.86 7.34702 149.744 7.34702ZM152.075 7.27502V3.03902H152.765V4.13102L152.741 4.70102C152.865 4.58502 153.001 4.48302 153.149 4.39502C153.301 4.30302 153.479 4.25702 153.683 4.25702C153.999 4.25702 154.229 4.35902 154.373 4.56302C154.517 4.76302 154.589 5.05102 154.589 5.42702V7.27502H153.899V5.51702C153.899 5.27302 153.863 5.10102 153.791 5.00102C153.719 4.90102 153.601 4.85102 153.437 4.85102C153.309 4.85102 153.195 4.88302 153.095 4.94702C152.999 5.00702 152.889 5.09702 152.765 5.21702V7.27502H152.075ZM155.811 7.34702C155.683 7.34702 155.575 7.30302 155.487 7.21502C155.403 7.12702 155.361 7.01502 155.361 6.87902C155.361 6.74302 155.403 6.63102 155.487 6.54302C155.575 6.45502 155.683 6.41102 155.811 6.41102C155.939 6.41102 156.045 6.45502 156.129 6.54302C156.213 6.63102 156.255 6.74302 156.255 6.87902C156.255 7.01502 156.213 7.12702 156.129 7.21502C156.045 7.30302 155.939 7.34702 155.811 7.34702Z" fill="#1F222E"/>
<path d="M240.627 7.27502V6.71102H241.479V4.20302H240.777V3.77102C240.969 3.73502 241.133 3.69302 241.269 3.64502C241.409 3.59302 241.539 3.53102 241.659 3.45902H242.175V6.71102H242.925V7.27502H240.627ZM243.487 7.27502V6.87302C243.751 6.61702 243.989 6.38102 244.201 6.16502C244.417 5.94902 244.599 5.74902 244.747 5.56502C244.899 5.38102 245.015 5.20902 245.095 5.04902C245.175 4.88902 245.215 4.73702 245.215 4.59302C245.215 4.38902 245.161 4.22902 245.053 4.11302C244.945 3.99302 244.789 3.93302 244.585 3.93302C244.437 3.93302 244.301 3.97502 244.177 4.05902C244.057 4.14302 243.945 4.24302 243.841 4.35902L243.457 3.97502C243.633 3.78702 243.813 3.64302 243.997 3.54302C244.185 3.43902 244.411 3.38702 244.675 3.38702C244.859 3.38702 245.025 3.41502 245.173 3.47102C245.321 3.52702 245.447 3.60702 245.551 3.71102C245.655 3.81102 245.735 3.93302 245.791 4.07702C245.851 4.22102 245.881 4.38102 245.881 4.55702C245.881 4.72502 245.843 4.89702 245.767 5.07302C245.695 5.24502 245.595 5.42102 245.467 5.60102C245.343 5.77702 245.197 5.95902 245.029 6.14702C244.861 6.33502 244.683 6.52902 244.495 6.72902C244.595 6.72102 244.703 6.71302 244.819 6.70502C244.935 6.69302 245.039 6.68702 245.131 6.68702H246.067V7.27502H243.487ZM249.012 7.34702C248.84 7.34702 248.694 7.32102 248.574 7.26902C248.458 7.21702 248.362 7.14502 248.286 7.05302C248.214 6.95702 248.16 6.84502 248.124 6.71702C248.092 6.58502 248.076 6.43902 248.076 6.27902V4.87502H247.656V4.35902L248.112 4.32902L248.196 3.52502H248.772V4.32902H249.522V4.87502H248.772V6.27902C248.772 6.62302 248.91 6.79502 249.186 6.79502C249.238 6.79502 249.29 6.78902 249.342 6.77702C249.398 6.76502 249.448 6.74902 249.492 6.72902L249.612 7.23902C249.532 7.26702 249.44 7.29102 249.336 7.31102C249.236 7.33502 249.128 7.34702 249.012 7.34702ZM250.142 7.27502V3.03902H250.832V4.13102L250.808 4.70102C250.932 4.58502 251.068 4.48302 251.216 4.39502C251.368 4.30302 251.546 4.25702 251.75 4.25702C252.066 4.25702 252.296 4.35902 252.44 4.56302C252.584 4.76302 252.656 5.05102 252.656 5.42702V7.27502H251.966V5.51702C251.966 5.27302 251.93 5.10102 251.858 5.00102C251.786 4.90102 251.668 4.85102 251.504 4.85102C251.376 4.85102 251.262 4.88302 251.162 4.94702C251.066 5.00702 250.956 5.09702 250.832 5.21702V7.27502H250.142ZM254.689 7.27502V3.03902H255.379V4.13102L255.355 4.70102C255.479 4.58502 255.615 4.48302 255.763 4.39502C255.915 4.30302 256.093 4.25702 256.297 4.25702C256.613 4.25702 256.843 4.35902 256.987 4.56302C257.131 4.76302 257.203 5.05102 257.203 5.42702V7.27502H256.513V5.51702C256.513 5.27302 256.477 5.10102 256.405 5.00102C256.333 4.90102 256.215 4.85102 256.051 4.85102C255.923 4.85102 255.809 4.88302 255.709 4.94702C255.613 5.00702 255.503 5.09702 255.379 5.21702V7.27502H254.689ZM258.425 7.34702C258.297 7.34702 258.189 7.30302 258.101 7.21502C258.017 7.12702 257.975 7.01502 257.975 6.87902C257.975 6.74302 258.017 6.63102 258.101 6.54302C258.189 6.45502 258.297 6.41102 258.425 6.41102C258.553 6.41102 258.659 6.45502 258.743 6.54302C258.827 6.63102 258.869 6.74302 258.869 6.87902C258.869 7.01502 258.827 7.12702 258.743 7.21502C258.659 7.30302 258.553 7.34702 258.425 7.34702Z" fill="#1F222E"/>
<path d="M42.2804 179.337C42.0924 179.337 41.9144 179.301 41.7464 179.229C41.5784 179.153 41.4304 179.039 41.3024 178.887C41.1784 178.735 41.0784 178.541 41.0024 178.305C40.9304 178.069 40.8944 177.791 40.8944 177.471C40.8944 177.099 40.9364 176.781 41.0204 176.517C41.1044 176.253 41.2144 176.037 41.3504 175.869C41.4904 175.701 41.6504 175.577 41.8304 175.497C42.0104 175.417 42.1984 175.377 42.3944 175.377C42.6264 175.377 42.8244 175.419 42.9884 175.503C43.1564 175.587 43.2984 175.689 43.4144 175.809L43.0424 176.229C42.9744 176.145 42.8844 176.077 42.7724 176.025C42.6644 175.969 42.5524 175.941 42.4364 175.941C42.3164 175.941 42.2024 175.965 42.0944 176.013C41.9904 176.061 41.8984 176.141 41.8184 176.253C41.7384 176.361 41.6724 176.505 41.6204 176.685C41.5724 176.865 41.5444 177.087 41.5364 177.351C41.6484 177.211 41.7784 177.101 41.9264 177.021C42.0784 176.941 42.2244 176.901 42.3644 176.901C42.5284 176.901 42.6784 176.925 42.8144 176.973C42.9544 177.021 43.0724 177.095 43.1684 177.195C43.2684 177.291 43.3444 177.413 43.3964 177.561C43.4524 177.709 43.4804 177.883 43.4804 178.083C43.4804 178.275 43.4484 178.449 43.3844 178.605C43.3204 178.757 43.2344 178.887 43.1264 178.995C43.0184 179.103 42.8904 179.187 42.7424 179.247C42.5984 179.307 42.4444 179.337 42.2804 179.337ZM42.2684 178.809C42.4284 178.809 42.5624 178.747 42.6704 178.623C42.7824 178.499 42.8384 178.319 42.8384 178.083C42.8384 177.855 42.7864 177.685 42.6824 177.573C42.5784 177.461 42.4304 177.405 42.2384 177.405C42.1304 177.405 42.0164 177.439 41.8964 177.507C41.7764 177.571 41.6624 177.683 41.5544 177.843C41.5904 178.183 41.6704 178.429 41.7944 178.581C41.9224 178.733 42.0804 178.809 42.2684 178.809ZM46.3837 179.337C46.2117 179.337 46.0657 179.311 45.9457 179.259C45.8297 179.207 45.7337 179.135 45.6577 179.043C45.5857 178.947 45.5317 178.835 45.4957 178.707C45.4637 178.575 45.4477 178.429 45.4477 178.269V176.865H45.0277V176.349L45.4837 176.319L45.5677 175.515H46.1437V176.319H46.8937V176.865H46.1437V178.269C46.1437 178.613 46.2817 178.785 46.5577 178.785C46.6097 178.785 46.6617 178.779 46.7137 178.767C46.7697 178.755 46.8197 178.739 46.8637 178.719L46.9837 179.229C46.9037 179.257 46.8117 179.281 46.7077 179.301C46.6077 179.325 46.4997 179.337 46.3837 179.337ZM47.5137 179.265V175.029H48.2037V176.121L48.1797 176.691C48.3037 176.575 48.4397 176.473 48.5877 176.385C48.7397 176.293 48.9177 176.247 49.1217 176.247C49.4377 176.247 49.6677 176.349 49.8117 176.553C49.9557 176.753 50.0277 177.041 50.0277 177.417V179.265H49.3377V177.507C49.3377 177.263 49.3017 177.091 49.2297 176.991C49.1577 176.891 49.0397 176.841 48.8757 176.841C48.7477 176.841 48.6337 176.873 48.5337 176.937C48.4377 176.997 48.3277 177.087 48.2037 177.207V179.265H47.5137ZM52.0606 179.265V175.029H52.7506V176.121L52.7266 176.691C52.8506 176.575 52.9866 176.473 53.1346 176.385C53.2866 176.293 53.4646 176.247 53.6686 176.247C53.9846 176.247 54.2146 176.349 54.3586 176.553C54.5026 176.753 54.5746 177.041 54.5746 177.417V179.265H53.8846V177.507C53.8846 177.263 53.8486 177.091 53.7766 176.991C53.7046 176.891 53.5866 176.841 53.4226 176.841C53.2946 176.841 53.1806 176.873 53.0806 176.937C52.9846 176.997 52.8746 177.087 52.7506 177.207V179.265H52.0606ZM55.7963 179.337C55.6683 179.337 55.5603 179.293 55.4723 179.205C55.3883 179.117 55.3463 179.005 55.3463 178.869C55.3463 178.733 55.3883 178.621 55.4723 178.533C55.5603 178.445 55.6683 178.401 55.7963 178.401C55.9243 178.401 56.0303 178.445 56.1143 178.533C56.1983 178.621 56.2403 178.733 56.2403 178.869C56.2403 179.005 56.1983 179.117 56.1143 179.205C56.0303 179.293 55.9243 179.337 55.7963 179.337Z" fill="#1F222E"/>
<path d="M141.638 179.265C141.654 178.925 141.684 178.615 141.728 178.335C141.772 178.051 141.834 177.781 141.914 177.525C141.998 177.269 142.104 177.021 142.232 176.781C142.36 176.537 142.516 176.287 142.7 176.031H140.894V175.449H143.456V175.869C143.232 176.145 143.05 176.409 142.91 176.661C142.774 176.909 142.666 177.165 142.586 177.429C142.506 177.689 142.448 177.967 142.412 178.263C142.38 178.559 142.356 178.893 142.34 179.265H141.638ZM146.383 179.337C146.211 179.337 146.065 179.311 145.945 179.259C145.829 179.207 145.733 179.135 145.657 179.043C145.585 178.947 145.531 178.835 145.495 178.707C145.463 178.575 145.447 178.429 145.447 178.269V176.865H145.027V176.349L145.483 176.319L145.567 175.515H146.143V176.319H146.893V176.865H146.143V178.269C146.143 178.613 146.281 178.785 146.557 178.785C146.609 178.785 146.661 178.779 146.713 178.767C146.769 178.755 146.819 178.739 146.863 178.719L146.983 179.229C146.903 179.257 146.811 179.281 146.707 179.301C146.607 179.325 146.499 179.337 146.383 179.337ZM147.513 179.265V175.029H148.203V176.121L148.179 176.691C148.303 176.575 148.439 176.473 148.587 176.385C148.739 176.293 148.917 176.247 149.121 176.247C149.437 176.247 149.667 176.349 149.811 176.553C149.955 176.753 150.027 177.041 150.027 177.417V179.265H149.337V177.507C149.337 177.263 149.301 177.091 149.229 176.991C149.157 176.891 149.039 176.841 148.875 176.841C148.747 176.841 148.633 176.873 148.533 176.937C148.437 176.997 148.327 177.087 148.203 177.207V179.265H147.513ZM152.06 179.265V175.029H152.75V176.121L152.726 176.691C152.85 176.575 152.986 176.473 153.134 176.385C153.286 176.293 153.464 176.247 153.668 176.247C153.984 176.247 154.214 176.349 154.358 176.553C154.502 176.753 154.574 177.041 154.574 177.417V179.265H153.884V177.507C153.884 177.263 153.848 177.091 153.776 176.991C153.704 176.891 153.586 176.841 153.422 176.841C153.294 176.841 153.18 176.873 153.08 176.937C152.984 176.997 152.874 177.087 152.75 177.207V179.265H152.06ZM155.796 179.337C155.668 179.337 155.56 179.293 155.472 179.205C155.388 179.117 155.346 179.005 155.346 178.869C155.346 178.733 155.388 178.621 155.472 178.533C155.56 178.445 155.668 178.401 155.796 178.401C155.924 178.401 156.03 178.445 156.114 178.533C156.198 178.621 156.24 178.733 156.24 178.869C156.24 179.005 156.198 179.117 156.114 179.205C156.03 179.293 155.924 179.337 155.796 179.337Z" fill="#1F222E"/>
<path d="M242.626 179.337C242.438 179.337 242.264 179.311 242.104 179.259C241.948 179.207 241.812 179.135 241.696 179.043C241.584 178.951 241.494 178.841 241.426 178.713C241.362 178.585 241.33 178.443 241.33 178.287C241.33 178.167 241.348 178.059 241.384 177.963C241.424 177.863 241.476 177.773 241.54 177.693C241.604 177.613 241.676 177.541 241.756 177.477C241.84 177.413 241.928 177.357 242.02 177.309V177.285C241.872 177.181 241.746 177.057 241.642 176.913C241.542 176.769 241.492 176.595 241.492 176.391C241.492 176.235 241.52 176.095 241.576 175.971C241.636 175.847 241.716 175.741 241.816 175.653C241.92 175.565 242.042 175.497 242.182 175.449C242.326 175.401 242.48 175.377 242.644 175.377C242.816 175.377 242.97 175.403 243.106 175.455C243.246 175.503 243.364 175.573 243.46 175.665C243.56 175.753 243.636 175.861 243.688 175.989C243.74 176.113 243.766 176.253 243.766 176.409C243.766 176.505 243.75 176.597 243.718 176.685C243.69 176.769 243.652 176.849 243.604 176.925C243.556 176.997 243.5 177.065 243.436 177.129C243.376 177.189 243.316 177.241 243.256 177.285V177.309C243.344 177.357 243.428 177.413 243.508 177.477C243.588 177.537 243.658 177.607 243.718 177.687C243.778 177.767 243.826 177.857 243.862 177.957C243.898 178.057 243.916 178.171 243.916 178.299C243.916 178.447 243.884 178.585 243.82 178.713C243.76 178.837 243.674 178.947 243.562 179.043C243.45 179.135 243.314 179.207 243.154 179.259C242.994 179.311 242.818 179.337 242.626 179.337ZM242.878 177.111C242.982 177.007 243.06 176.901 243.112 176.793C243.168 176.685 243.196 176.571 243.196 176.451C243.196 176.283 243.146 176.145 243.046 176.037C242.95 175.925 242.812 175.869 242.632 175.869C242.484 175.869 242.36 175.915 242.26 176.007C242.16 176.095 242.11 176.223 242.11 176.391C242.11 176.487 242.13 176.571 242.17 176.643C242.21 176.715 242.264 176.779 242.332 176.835C242.404 176.887 242.486 176.937 242.578 176.985C242.67 177.029 242.77 177.071 242.878 177.111ZM242.638 178.845C242.822 178.845 242.972 178.795 243.088 178.695C243.208 178.595 243.268 178.455 243.268 178.275C243.268 178.171 243.244 178.083 243.196 178.011C243.148 177.935 243.082 177.869 242.998 177.813C242.918 177.753 242.822 177.699 242.71 177.651C242.598 177.603 242.478 177.553 242.35 177.501C242.23 177.589 242.13 177.693 242.05 177.813C241.974 177.933 241.936 178.067 241.936 178.215C241.936 178.407 242.004 178.561 242.14 178.677C242.276 178.789 242.442 178.845 242.638 178.845ZM246.837 179.337C246.665 179.337 246.519 179.311 246.399 179.259C246.283 179.207 246.187 179.135 246.111 179.043C246.039 178.947 245.985 178.835 245.949 178.707C245.917 178.575 245.901 178.429 245.901 178.269V176.865H245.481V176.349L245.937 176.319L246.021 175.515H246.597V176.319H247.347V176.865H246.597V178.269C246.597 178.613 246.735 178.785 247.011 178.785C247.063 178.785 247.115 178.779 247.167 178.767C247.223 178.755 247.273 178.739 247.317 178.719L247.437 179.229C247.357 179.257 247.265 179.281 247.161 179.301C247.061 179.325 246.953 179.337 246.837 179.337ZM247.967 179.265V175.029H248.657V176.121L248.633 176.691C248.757 176.575 248.893 176.473 249.041 176.385C249.193 176.293 249.371 176.247 249.575 176.247C249.891 176.247 250.121 176.349 250.265 176.553C250.409 176.753 250.481 177.041 250.481 177.417V179.265H249.791V177.507C249.791 177.263 249.755 177.091 249.683 176.991C249.611 176.891 249.493 176.841 249.329 176.841C249.201 176.841 249.087 176.873 248.987 176.937C248.891 176.997 248.781 177.087 248.657 177.207V179.265H247.967ZM252.514 179.265V175.029H253.204V176.121L253.18 176.691C253.304 176.575 253.44 176.473 253.588 176.385C253.74 176.293 253.918 176.247 254.122 176.247C254.438 176.247 254.668 176.349 254.812 176.553C254.956 176.753 255.028 177.041 255.028 177.417V179.265H254.338V177.507C254.338 177.263 254.302 177.091 254.23 176.991C254.158 176.891 254.04 176.841 253.876 176.841C253.748 176.841 253.634 176.873 253.534 176.937C253.438 176.997 253.328 177.087 253.204 177.207V179.265H252.514ZM256.25 179.337C256.122 179.337 256.014 179.293 255.926 179.205C255.842 179.117 255.8 179.005 255.8 178.869C255.8 178.733 255.842 178.621 255.926 178.533C256.014 178.445 256.122 178.401 256.25 178.401C256.378 178.401 256.484 178.445 256.568 178.533C256.652 178.621 256.694 178.733 256.694 178.869C256.694 179.005 256.652 179.117 256.568 179.205C256.484 179.293 256.378 179.337 256.25 179.337Z" fill="#1F222E"/>
<path d="M10.5261 158.997C10.5261 159.305 10.4741 159.565 10.3701 159.777C10.2621 159.985 10.1381 160.159 9.9981 160.299L9.5541 159.981C9.6621 159.865 9.7581 159.735 9.8421 159.591C9.9221 159.447 9.9621 159.279 9.9621 159.087C9.9621 158.871 9.8981 158.695 9.7701 158.559C9.6421 158.419 9.4621 158.349 9.2301 158.349C9.0021 158.349 8.8261 158.413 8.7021 158.541C8.5781 158.669 8.5161 158.839 8.5161 159.051C8.5161 159.175 8.5341 159.279 8.5701 159.363C8.6021 159.447 8.6561 159.547 8.7321 159.663L8.5221 159.993L6.6381 159.879L6.6381 157.839L7.2201 157.839L7.2201 159.279L8.1441 159.357C8.1041 159.277 8.0741 159.199 8.0541 159.123C8.0301 159.043 8.0181 158.953 8.0181 158.853C8.0181 158.689 8.0421 158.535 8.0901 158.391C8.1381 158.243 8.2121 158.115 8.3121 158.007C8.4081 157.899 8.5321 157.813 8.6841 157.749C8.8321 157.685 9.0081 157.653 9.2121 157.653C9.4201 157.653 9.6061 157.691 9.7701 157.767C9.9341 157.839 10.0721 157.937 10.1841 158.061C10.2961 158.185 10.3821 158.329 10.4421 158.493C10.4981 158.653 10.5261 158.821 10.5261 158.997ZM10.5261 154.69C10.5261 154.862 10.5001 155.008 10.4481 155.128C10.3961 155.244 10.3241 155.34 10.2321 155.416C10.1361 155.488 10.0241 155.542 9.8961 155.578C9.7641 155.61 9.6181 155.626 9.4581 155.626L8.0541 155.626L8.0541 156.046L7.5381 156.046L7.5081 155.59L6.7041 155.506L6.7041 154.93L7.5081 154.93L7.5081 154.18L8.0541 154.18L8.0541 154.93L9.4581 154.93C9.8021 154.93 9.9741 154.792 9.9741 154.516C9.9741 154.464 9.9681 154.412 9.9561 154.36C9.9441 154.304 9.9281 154.254 9.9081 154.21L10.4181 154.09C10.4461 154.17 10.4701 154.262 10.4901 154.366C10.5141 154.466 10.5261 154.574 10.5261 154.69ZM10.4541 153.56L6.2181 153.56L6.2181 152.87L7.3101 152.87L7.8801 152.894C7.7641 152.77 7.6621 152.634 7.5741 152.486C7.4821 152.334 7.4361 152.156 7.4361 151.952C7.4361 151.636 7.5381 151.406 7.7421 151.262C7.9421 151.118 8.2301 151.046 8.6061 151.046L10.4541 151.046L10.4541 151.736L8.6961 151.736C8.4521 151.736 8.2801 151.772 8.1801 151.844C8.0801 151.916 8.0301 152.034 8.0301 152.198C8.0301 152.326 8.0621 152.44 8.1261 152.54C8.1861 152.636 8.2761 152.746 8.3961 152.87L10.4541 152.87L10.4541 153.56ZM10.4541 149.013L6.2181 149.013L6.2181 148.323L7.3101 148.323L7.8801 148.347C7.7641 148.223 7.6621 148.087 7.5741 147.939C7.4821 147.787 7.4361 147.609 7.4361 147.405C7.4361 147.089 7.5381 146.859 7.7421 146.715C7.9421 146.571 8.2301 146.499 8.6061 146.499L10.4541 146.499L10.4541 147.189L8.6961 147.189C8.4521 147.189 8.2801 147.225 8.1801 147.297C8.0801 147.369 8.0301 147.487 8.0301 147.651C8.0301 147.779 8.0621 147.893 8.1261 147.993C8.1861 148.089 8.2761 148.199 8.3961 148.323L10.4541 148.323L10.4541 149.013ZM10.5261 145.277C10.5261 145.405 10.4821 145.513 10.3941 145.601C10.3061 145.685 10.1941 145.727 10.0581 145.727C9.9221 145.727 9.8101 145.685 9.7221 145.601C9.6341 145.513 9.5901 145.405 9.5901 145.277C9.5901 145.149 9.6341 145.043 9.7221 144.959C9.8101 144.875 9.9221 144.833 10.0581 144.833C10.1941 144.833 10.3061 144.875 10.3941 144.959C10.4821 145.043 10.5261 145.149 10.5261 145.277Z" fill="#1F222E"/>
<path d="M10.4541 98.1342L9.4701 98.1342L9.4701 99.8202L9.0021 99.8202L6.6381 98.3082L6.6381 97.4862L8.9361 97.4862L8.9361 97.0062L9.4701 97.0062L9.4701 97.4862L10.4541 97.4862L10.4541 98.1342ZM8.9361 99.1362L8.9361 98.1342L8.0721 98.1342C7.9601 98.1342 7.8281 98.1322 7.6761 98.1282C7.5241 98.1202 7.3921 98.1122 7.2801 98.1042L7.2801 98.1282C7.3801 98.1762 7.4781 98.2262 7.5741 98.2782C7.6701 98.3302 7.7701 98.3842 7.8741 98.4402L8.9361 99.1362ZM10.5261 94.1749C10.5261 94.3469 10.5001 94.4929 10.4481 94.6129C10.3961 94.7289 10.3241 94.8249 10.2321 94.9009C10.1361 94.9729 10.0241 95.0269 9.8961 95.0629C9.7641 95.0949 9.6181 95.1109 9.4581 95.1109L8.0541 95.1109L8.0541 95.5309L7.5381 95.5309L7.5081 95.0749L6.7041 94.9909L6.7041 94.4149L7.5081 94.4149L7.5081 93.6649L8.0541 93.6649L8.0541 94.4149L9.4581 94.4149C9.8021 94.4149 9.9741 94.2769 9.9741 94.0009C9.9741 93.9489 9.9681 93.8969 9.9561 93.8449C9.9441 93.7889 9.9281 93.7389 9.9081 93.6949L10.4181 93.5749C10.4461 93.6549 10.4701 93.7469 10.4901 93.8509C10.5141 93.9509 10.5261 94.0589 10.5261 94.1749ZM10.4541 93.0449L6.2181 93.0449L6.2181 92.3549L7.3101 92.3549L7.8801 92.3789C7.7641 92.2549 7.6621 92.1189 7.5741 91.9709C7.4821 91.8189 7.4361 91.6409 7.4361 91.4369C7.4361 91.1209 7.5381 90.8909 7.7421 90.7469C7.9421 90.6029 8.2301 90.5309 8.6061 90.5309L10.4541 90.5309L10.4541 91.2209L8.6961 91.2209C8.4521 91.2209 8.2801 91.2569 8.1801 91.3289C8.0801 91.4009 8.0301 91.5189 8.0301 91.6829C8.0301 91.8109 8.0621 91.9249 8.1261 92.0249C8.1861 92.1209 8.2761 92.2309 8.3961 92.3549L10.4541 92.3549L10.4541 93.0449ZM10.4541 88.498L6.2181 88.498L6.2181 87.808L7.3101 87.808L7.8801 87.832C7.7641 87.708 7.6621 87.572 7.5741 87.424C7.4821 87.272 7.4361 87.094 7.4361 86.89C7.4361 86.574 7.5381 86.344 7.7421 86.2C7.9421 86.056 8.2301 85.984 8.6061 85.984L10.4541 85.984L10.4541 86.674L8.6961 86.674C8.4521 86.674 8.2801 86.71 8.1801 86.782C8.0801 86.854 8.0301 86.972 8.0301 87.136C8.0301 87.264 8.0621 87.378 8.1261 87.478C8.1861 87.574 8.2761 87.684 8.3961 87.808L10.4541 87.808L10.4541 88.498ZM10.5261 84.7623C10.5261 84.8903 10.4821 84.9983 10.3941 85.0863C10.3061 85.1703 10.1941 85.2123 10.0581 85.2123C9.9221 85.2123 9.8101 85.1703 9.7221 85.0863C9.6341 84.9983 9.5901 84.8903 9.5901 84.7623C9.5901 84.6343 9.6341 84.5283 9.7221 84.4443C9.8101 84.3603 9.9221 84.3183 10.0581 84.3183C10.1941 84.3183 10.3061 84.3603 10.3941 84.4443C10.4821 84.5283 10.5261 84.6343 10.5261 84.7623Z" fill="#1F222E"/>
<path d="M10.5261 37.4996C10.5261 37.8116 10.4741 38.0716 10.3701 38.2796C10.2661 38.4876 10.1381 38.6596 9.9861 38.7956L9.5421 38.4656C9.6581 38.3496 9.7581 38.2176 9.8421 38.0696C9.9221 37.9216 9.9621 37.7516 9.9621 37.5596C9.9621 37.3516 9.9121 37.1836 9.8121 37.0556C9.7081 36.9236 9.5661 36.8576 9.3861 36.8576C9.2861 36.8576 9.1961 36.8756 9.1161 36.9116C9.0361 36.9476 8.9681 37.0096 8.9121 37.0976C8.8561 37.1816 8.8141 37.2956 8.7861 37.4396C8.7541 37.5836 8.7381 37.7636 8.7381 37.9796L8.2341 37.9796C8.2341 37.7916 8.2201 37.6356 8.1921 37.5116C8.1601 37.3836 8.1181 37.2816 8.0661 37.2056C8.0101 37.1256 7.9441 37.0696 7.8681 37.0376C7.7921 37.0016 7.7101 36.9836 7.6221 36.9836C7.4621 36.9836 7.3381 37.0336 7.2501 37.1336C7.1581 37.2336 7.1121 37.3716 7.1121 37.5476C7.1121 37.6996 7.1461 37.8376 7.2141 37.9616C7.2781 38.0816 7.3641 38.1996 7.4721 38.3156L7.0461 38.6696C6.9021 38.5056 6.7861 38.3316 6.6981 38.1476C6.6101 37.9596 6.5661 37.7516 6.5661 37.5236C6.5661 37.3396 6.5881 37.1716 6.6321 37.0196C6.6761 36.8676 6.7421 36.7376 6.8301 36.6296C6.9141 36.5216 7.0201 36.4376 7.1481 36.3776C7.2721 36.3176 7.4141 36.2876 7.5741 36.2876C7.7901 36.2876 7.9701 36.3476 8.1141 36.4676C8.2581 36.5836 8.3701 36.7456 8.4501 36.9536L8.4741 36.9536C8.5341 36.7256 8.6441 36.5376 8.8041 36.3896C8.9641 36.2376 9.1701 36.1616 9.4221 36.1616C9.5981 36.1616 9.7541 36.1976 9.8901 36.2696C10.0261 36.3376 10.1421 36.4336 10.2381 36.5576C10.3301 36.6776 10.4021 36.8196 10.4541 36.9836C10.5021 37.1436 10.5261 37.3156 10.5261 37.4996ZM10.4541 34.2242L7.5081 34.2242L7.5081 33.6542L8.0301 33.6062L8.0301 33.5822C7.8381 33.4782 7.6921 33.3522 7.5921 33.2042C7.4881 33.0562 7.4361 32.9042 7.4361 32.7482C7.4361 32.6082 7.4561 32.4962 7.4961 32.4122L8.0961 32.5322C8.0801 32.5842 8.0681 32.6322 8.0601 32.6762C8.0521 32.7202 8.0481 32.7742 8.0481 32.8382C8.0481 32.9542 8.0941 33.0762 8.1861 33.2042C8.2741 33.3322 8.4301 33.4422 8.6541 33.5342L10.4541 33.5342L10.4541 34.2242ZM10.5261 31.0125C10.5261 31.3845 10.3921 31.6805 10.1241 31.9005C9.8521 32.1165 9.4721 32.2245 8.9841 32.2245C8.7441 32.2245 8.5281 32.1905 8.3361 32.1225C8.1441 32.0505 7.9821 31.9565 7.8501 31.8405C7.7181 31.7245 7.6161 31.5925 7.5441 31.4445C7.4721 31.2925 7.4361 31.1365 7.4361 30.9765C7.4361 30.8085 7.4661 30.6665 7.5261 30.5505C7.5821 30.4345 7.6601 30.3185 7.7601 30.2025L7.2861 30.2265L6.2181 30.2265L6.2181 29.5365L10.4541 29.5365L10.4541 30.1065L10.1361 30.1545L10.1361 30.1785C10.2441 30.2865 10.3361 30.4125 10.4121 30.5565C10.4881 30.7005 10.5261 30.8525 10.5261 31.0125ZM9.9561 30.8445C9.9561 30.6245 9.8461 30.4185 9.6261 30.2265L8.2521 30.2265C8.1601 30.3305 8.0961 30.4325 8.0601 30.5325C8.0241 30.6285 8.0061 30.7265 8.0061 30.8265C8.0061 31.0185 8.0901 31.1805 8.2581 31.3125C8.4261 31.4445 8.6661 31.5105 8.9781 31.5105C9.2981 31.5105 9.5421 31.4545 9.7101 31.3425C9.8741 31.2265 9.9561 31.0605 9.9561 30.8445ZM10.4541 27.4567L6.2181 27.4567L6.2181 26.7667L7.3101 26.7667L7.8801 26.7907C7.7641 26.6667 7.6621 26.5307 7.5741 26.3827C7.4821 26.2307 7.4361 26.0527 7.4361 25.8487C7.4361 25.5327 7.5381 25.3027 7.7421 25.1587C7.9421 25.0147 8.2301 24.9427 8.6061 24.9427L10.4541 24.9427L10.4541 25.6327L8.6961 25.6327C8.4521 25.6327 8.2801 25.6687 8.1801 25.7407C8.0801 25.8127 8.0301 25.9307 8.0301 26.0947C8.0301 26.2227 8.0621 26.3367 8.1261 26.4367C8.1861 26.5327 8.2761 26.6427 8.3961 26.7667L10.4541 26.7667L10.4541 27.4567ZM10.5261 23.7209C10.5261 23.8489 10.4821 23.9569 10.3941 24.0449C10.3061 24.1289 10.1941 24.1709 10.0581 24.1709C9.9221 24.1709 9.8101 24.1289 9.7221 24.0449C9.6341 23.9569 9.5901 23.8489 9.5901 23.7209C9.5901 23.5929 9.6341 23.4869 9.7221 23.4029C9.8101 23.3189 9.9221 23.2769 10.0581 23.2769C10.1941 23.2769 10.3061 23.3189 10.3941 23.4029C10.4821 23.4869 10.5261 23.5929 10.5261 23.7209Z" fill="#1F222E"/>
<path d="M292.134 158.979C292.134 158.867 292.1 158.751 292.032 158.631C291.96 158.507 291.846 158.395 291.69 158.295C291.354 158.331 291.11 158.415 290.958 158.547C290.806 158.675 290.73 158.831 290.73 159.015C290.73 159.171 290.792 159.305 290.916 159.417C291.04 159.529 291.218 159.585 291.45 159.585C291.678 159.585 291.85 159.533 291.966 159.429C292.078 159.321 292.134 159.171 292.134 158.979ZM294.162 159.141C294.162 159.369 294.12 159.567 294.036 159.735C293.952 159.903 293.85 160.045 293.73 160.161L293.31 159.789C293.394 159.717 293.464 159.627 293.52 159.519C293.572 159.407 293.598 159.293 293.598 159.177C293.598 159.057 293.574 158.945 293.526 158.841C293.478 158.733 293.4 158.639 293.292 158.559C293.18 158.479 293.034 158.415 292.854 158.367C292.674 158.315 292.452 158.285 292.188 158.277C292.328 158.389 292.438 158.521 292.518 158.673C292.594 158.825 292.632 158.971 292.632 159.111C292.632 159.275 292.608 159.425 292.56 159.561C292.512 159.697 292.44 159.815 292.344 159.915C292.244 160.011 292.12 160.087 291.972 160.143C291.824 160.195 291.65 160.221 291.45 160.221C291.258 160.221 291.086 160.189 290.934 160.125C290.778 160.061 290.646 159.975 290.538 159.867C290.43 159.759 290.348 159.633 290.292 159.489C290.232 159.341 290.202 159.185 290.202 159.021C290.202 158.837 290.24 158.661 290.316 158.493C290.388 158.325 290.5 158.179 290.652 158.055C290.804 157.927 290.998 157.827 291.234 157.755C291.466 157.679 291.742 157.641 292.062 157.641C292.434 157.641 292.752 157.683 293.016 157.767C293.28 157.847 293.498 157.957 293.67 158.097C293.838 158.233 293.962 158.393 294.042 158.577C294.122 158.757 294.162 158.945 294.162 159.141ZM294.162 154.69C294.162 154.862 294.136 155.008 294.084 155.128C294.032 155.244 293.96 155.34 293.868 155.416C293.772 155.488 293.66 155.542 293.532 155.578C293.4 155.61 293.254 155.626 293.094 155.626L291.69 155.626L291.69 156.046L291.174 156.046L291.144 155.59L290.34 155.506L290.34 154.93L291.144 154.93L291.144 154.18L291.69 154.18L291.69 154.93L293.094 154.93C293.438 154.93 293.61 154.792 293.61 154.516C293.61 154.464 293.604 154.412 293.592 154.36C293.58 154.304 293.564 154.254 293.544 154.21L294.054 154.09C294.082 154.17 294.106 154.262 294.126 154.366C294.15 154.466 294.162 154.574 294.162 154.69ZM294.09 153.56L289.854 153.56L289.854 152.87L290.946 152.87L291.516 152.894C291.4 152.77 291.298 152.634 291.21 152.486C291.118 152.334 291.072 152.156 291.072 151.952C291.072 151.636 291.174 151.406 291.378 151.262C291.578 151.118 291.866 151.046 292.242 151.046L294.09 151.046L294.09 151.736L292.332 151.736C292.088 151.736 291.916 151.772 291.816 151.844C291.716 151.916 291.666 152.034 291.666 152.198C291.666 152.326 291.698 152.44 291.762 152.54C291.822 152.636 291.912 152.746 292.032 152.87L294.09 152.87L294.09 153.56ZM294.09 149.013L289.854 149.013L289.854 148.323L290.946 148.323L291.516 148.347C291.4 148.223 291.298 148.087 291.21 147.939C291.118 147.787 291.072 147.609 291.072 147.405C291.072 147.089 291.174 146.859 291.378 146.715C291.578 146.571 291.866 146.499 292.242 146.499L294.09 146.499L294.09 147.189L292.332 147.189C292.088 147.189 291.916 147.225 291.816 147.297C291.716 147.369 291.666 147.487 291.666 147.651C291.666 147.779 291.698 147.893 291.762 147.993C291.822 148.089 291.912 148.199 292.032 148.323L294.09 148.323L294.09 149.013ZM294.162 145.277C294.162 145.405 294.118 145.513 294.03 145.601C293.942 145.685 293.83 145.727 293.694 145.727C293.558 145.727 293.446 145.685 293.358 145.601C293.27 145.513 293.226 145.405 293.226 145.277C293.226 145.149 293.27 145.043 293.358 144.959C293.446 144.875 293.558 144.833 293.694 144.833C293.83 144.833 293.942 144.875 294.03 144.959C294.118 145.043 294.162 145.149 294.162 145.277Z" fill="#1F222E"/>
<path d="M294.09 100.387L293.526 100.387L293.526 99.5353L291.018 99.5353L291.018 100.237L290.586 100.237C290.55 100.045 290.508 99.8813 290.46 99.7453C290.408 99.6053 290.346 99.4753 290.274 99.3553L290.274 98.8393L293.526 98.8393L293.526 98.0893L294.09 98.0893L294.09 100.387ZM294.162 96.2191C294.162 96.6191 293.992 96.9351 293.652 97.1671C293.308 97.3991 292.812 97.5151 292.164 97.5151C291.516 97.5151 291.028 97.3991 290.7 97.1671C290.368 96.9351 290.202 96.6191 290.202 96.2191C290.202 95.8191 290.368 95.5031 290.7 95.2711C291.032 95.0391 291.52 94.9231 292.164 94.9231C292.812 94.9231 293.308 95.0391 293.652 95.2711C293.992 95.5031 294.162 95.8191 294.162 96.2191ZM293.622 96.2191C293.622 96.1271 293.598 96.0431 293.55 95.9671C293.498 95.8871 293.414 95.8191 293.298 95.7631C293.182 95.7071 293.032 95.6631 292.848 95.6311C292.664 95.5991 292.436 95.5831 292.164 95.5831C291.896 95.5831 291.672 95.5991 291.492 95.6311C291.308 95.6631 291.16 95.7071 291.048 95.7631C290.936 95.8191 290.858 95.8871 290.814 95.9671C290.766 96.0431 290.742 96.1271 290.742 96.2191C290.742 96.3111 290.766 96.3971 290.814 96.4771C290.858 96.5531 290.936 96.6191 291.048 96.6751C291.16 96.7311 291.308 96.7751 291.492 96.8071C291.672 96.8391 291.896 96.8551 292.164 96.8551C292.436 96.8551 292.664 96.8391 292.848 96.8071C293.032 96.7751 293.182 96.7311 293.298 96.6751C293.414 96.6191 293.498 96.5531 293.55 96.4771C293.598 96.3971 293.622 96.3111 293.622 96.2191ZM294.162 92.0018C294.162 92.1738 294.136 92.3198 294.084 92.4398C294.032 92.5558 293.96 92.6518 293.868 92.7278C293.772 92.7998 293.66 92.8538 293.532 92.8898C293.4 92.9218 293.254 92.9378 293.094 92.9378L291.69 92.9378L291.69 93.3578L291.174 93.3578L291.144 92.9018L290.34 92.8178L290.34 92.2418L291.144 92.2418L291.144 91.4918L291.69 91.4918L291.69 92.2418L293.094 92.2418C293.438 92.2418 293.61 92.1038 293.61 91.8278C293.61 91.7758 293.604 91.7238 293.592 91.6718C293.58 91.6158 293.564 91.5658 293.544 91.5218L294.054 91.4018C294.082 91.4818 294.106 91.5738 294.126 91.6778C294.15 91.7778 294.162 91.8858 294.162 92.0018ZM294.09 90.8718L289.854 90.8718L289.854 90.1818L290.946 90.1818L291.516 90.2058C291.4 90.0818 291.298 89.9458 291.21 89.7978C291.118 89.6458 291.072 89.4678 291.072 89.2638C291.072 88.9478 291.174 88.7178 291.378 88.5738C291.578 88.4298 291.866 88.3578 292.242 88.3578L294.09 88.3578L294.09 89.0478L292.332 89.0478C292.088 89.0478 291.916 89.0838 291.816 89.1558C291.716 89.2278 291.666 89.3458 291.666 89.5098C291.666 89.6378 291.698 89.7518 291.762 89.8518C291.822 89.9478 291.912 90.0578 292.032 90.1818L294.09 90.1818L294.09 90.8718ZM294.09 86.3249L289.854 86.3249L289.854 85.6349L290.946 85.6349L291.516 85.6589C291.4 85.5349 291.298 85.3989 291.21 85.2509C291.118 85.0989 291.072 84.9209 291.072 84.7169C291.072 84.4009 291.174 84.1709 291.378 84.0269C291.578 83.8829 291.866 83.8109 292.242 83.8109L294.09 83.8109L294.09 84.5009L292.332 84.5009C292.088 84.5009 291.916 84.5369 291.816 84.6089C291.716 84.6809 291.666 84.7989 291.666 84.9629C291.666 85.0909 291.698 85.2049 291.762 85.3049C291.822 85.4009 291.912 85.5109 292.032 85.6349L294.09 85.6349L294.09 86.3249ZM294.162 82.5892C294.162 82.7172 294.118 82.8252 294.03 82.9132C293.942 82.9972 293.83 83.0392 293.694 83.0392C293.558 83.0392 293.446 82.9972 293.358 82.9132C293.27 82.8252 293.226 82.7172 293.226 82.5892C293.226 82.4612 293.27 82.3552 293.358 82.2712C293.446 82.1872 293.558 82.1452 293.694 82.1452C293.83 82.1452 293.942 82.1872 294.03 82.2712C294.118 82.3552 294.162 82.4612 294.162 82.5892Z" fill="#1F222E"/>
<path d="M294.09 39.8723L293.526 39.8723L293.526 39.0203L291.018 39.0203L291.018 39.7223L290.586 39.7223C290.55 39.5303 290.508 39.3663 290.46 39.2303C290.408 39.0903 290.346 38.9603 290.274 38.8403L290.274 38.3243L293.526 38.3243L293.526 37.5743L294.09 37.5743L294.09 39.8723ZM294.09 36.7961L293.526 36.7961L293.526 35.9441L291.018 35.9441L291.018 36.6461L290.586 36.6461C290.55 36.4541 290.508 36.2901 290.46 36.1541C290.408 36.0141 290.346 35.8841 290.274 35.7641L290.274 35.2481L293.526 35.2481L293.526 34.4981L294.09 34.4981L294.09 36.7961ZM294.162 31.4868C294.162 31.6588 294.136 31.8048 294.084 31.9248C294.032 32.0408 293.96 32.1368 293.868 32.2128C293.772 32.2848 293.66 32.3388 293.532 32.3748C293.4 32.4068 293.254 32.4228 293.094 32.4228L291.69 32.4228L291.69 32.8428L291.174 32.8428L291.144 32.3868L290.34 32.3028L290.34 31.7268L291.144 31.7268L291.144 30.9768L291.69 30.9768L291.69 31.7268L293.094 31.7268C293.438 31.7268 293.61 31.5888 293.61 31.3128C293.61 31.2608 293.604 31.2088 293.592 31.1568C293.58 31.1008 293.564 31.0508 293.544 31.0068L294.054 30.8868C294.082 30.9668 294.106 31.0588 294.126 31.1628C294.15 31.2628 294.162 31.3708 294.162 31.4868ZM294.09 30.3568L289.854 30.3568L289.854 29.6668L290.946 29.6668L291.516 29.6908C291.4 29.5668 291.298 29.4308 291.21 29.2828C291.118 29.1308 291.072 28.9528 291.072 28.7488C291.072 28.4328 291.174 28.2028 291.378 28.0588C291.578 27.9148 291.866 27.8428 292.242 27.8428L294.09 27.8428L294.09 28.5328L292.332 28.5328C292.088 28.5328 291.916 28.5688 291.816 28.6408C291.716 28.7128 291.666 28.8308 291.666 28.9948C291.666 29.1228 291.698 29.2368 291.762 29.3368C291.822 29.4328 291.912 29.5428 292.032 29.6668L294.09 29.6668L294.09 30.3568ZM294.09 25.8099L289.854 25.8099L289.854 25.1199L290.946 25.1199L291.516 25.1439C291.4 25.0199 291.298 24.8839 291.21 24.7359C291.118 24.5839 291.072 24.4059 291.072 24.2019C291.072 23.8859 291.174 23.6559 291.378 23.5119C291.578 23.3679 291.866 23.2959 292.242 23.2959L294.09 23.2959L294.09 23.9859L292.332 23.9859C292.088 23.9859 291.916 24.0219 291.816 24.0939C291.716 24.1659 291.666 24.2839 291.666 24.4479C291.666 24.5759 291.698 24.6899 291.762 24.7899C291.822 24.8859 291.912 24.9959 292.032 25.1199L294.09 25.1199L294.09 25.8099ZM294.162 22.0742C294.162 22.2022 294.118 22.3102 294.03 22.3982C293.942 22.4822 293.83 22.5242 293.694 22.5242C293.558 22.5242 293.446 22.4822 293.358 22.3982C293.27 22.3102 293.226 22.2022 293.226 22.0742C293.226 21.9462 293.27 21.8402 293.358 21.7562C293.446 21.6722 293.558 21.6302 293.694 21.6302C293.83 21.6302 293.942 21.6722 294.03 21.7562C294.118 21.8402 294.162 21.9462 294.162 22.0742Z" fill="#1F222E"/>
<path d="M16.8179 91.0002L150 10.4652" stroke="#B3B3BE"/>
<path d="M150 171.535L283.182 91.0004" stroke="#B3B3BE"/>
<path d="M283.182 91.0002L150 10.4652" stroke="#B3B3BE"/>
<path d="M150 171.535L16.8187 91.0004" stroke="#B3B3BE"/>
<path d="M299.545 181.545L0.454102 0.455139" stroke="#B3B3BE"/>
<path d="M0.454102 181.545L299.545 0.455139" stroke="#B3B3BE"/>
</svg>
