<svg width="30" height="30" viewBox="0 0 30 30" fill="none" xmlns="http://www.w3.org/2000/svg">
<g clip-path="url(#clip0)">
<path d="M16.2213 4.0962C16.0907 4.04637 15.95 4.02899 15.8112 4.04556C15.6725 4.06213 15.5398 4.11215 15.4246 4.19133C15.3095 4.2705 15.2153 4.37645 15.1501 4.50008C15.0849 4.62371 15.0508 4.76132 15.0505 4.90107L15.0491 9.69079L11.9759 8.37372C11.8449 8.31784 11.702 8.29529 11.5601 8.30807C11.4181 8.32085 11.2816 8.36857 11.1626 8.44698C11.0436 8.52538 10.9459 8.63202 10.8782 8.75739C10.8105 8.88275 10.7748 9.02294 10.7745 9.16543L10.7774 13.9625L7.70426 12.6454C7.57908 12.5919 7.44302 12.5688 7.30721 12.578C7.17139 12.5871 7.03966 12.6283 6.92279 12.698C6.80591 12.7678 6.7072 12.8643 6.63472 12.9795C6.56223 13.0947 6.51803 13.2254 6.50573 13.361L5.90573 20.0663C5.88907 20.1822 5.89617 20.3003 5.92659 20.4134C5.95702 20.5265 6.01014 20.6322 6.08272 20.724C6.1553 20.8159 6.24582 20.8921 6.34877 20.9479C6.45172 21.0037 6.56495 21.0379 6.68156 21.0486C6.79817 21.0592 6.91573 21.046 7.02708 21.0098C7.13843 20.9735 7.24123 20.915 7.32924 20.8378C7.41725 20.7605 7.48861 20.6662 7.539 20.5605C7.58938 20.4548 7.61773 20.3399 7.62231 20.2229L8.12572 14.6971L11.3028 16.0595C11.4338 16.1154 11.5767 16.138 11.7186 16.1252C11.8605 16.1124 11.9971 16.0647 12.1161 15.9863C12.2351 15.9079 12.3328 15.8012 12.4005 15.6759C12.4682 15.5505 12.5039 15.4103 12.5042 15.2678L12.5057 10.4781L15.5788 11.7952C15.7099 11.851 15.8528 11.8736 15.9947 11.8608C16.1366 11.848 16.2732 11.8003 16.3921 11.7219C16.5111 11.6435 16.6088 11.5369 16.6766 11.4115C16.7443 11.2861 16.7799 11.146 16.7803 11.0035L16.7744 6.15667L19.5608 7.23374C19.7714 7.30347 20.0009 7.28937 20.2014 7.19436C20.402 7.09935 20.5582 6.93075 20.6377 6.72356C20.7172 6.51637 20.7138 6.28652 20.6282 6.08176C20.5427 5.877 20.3816 5.71306 20.1783 5.62399L16.2213 4.0962Z" fill="#6F51FF"/>
<path d="M21.7091 9.58399C21.5785 9.53416 21.4378 9.51678 21.299 9.53335C21.1602 9.54992 21.0276 9.59995 20.9124 9.67912C20.7973 9.75829 20.7031 9.86425 20.6379 9.98788C20.5727 10.1115 20.5386 10.2491 20.5383 10.3889L20.5369 15.1786L17.4637 13.8615C17.3326 13.8056 17.1898 13.7831 17.0479 13.7959C16.9059 13.8086 16.7694 13.8564 16.6504 13.9348C16.5314 14.0132 16.4337 14.1198 16.366 14.2452C16.2983 14.3705 16.2626 14.5107 16.2623 14.6532L16.2652 19.4503L13.192 18.1332C13.0669 18.0797 12.9308 18.0566 12.795 18.0658C12.6592 18.0749 12.5275 18.116 12.4106 18.1858C12.2937 18.2556 12.195 18.3521 12.1225 18.4673C12.05 18.5825 12.0058 18.7132 11.9935 18.8488L11.3994 25.56C11.3827 25.6759 11.3898 25.794 11.4202 25.907C11.4507 26.0201 11.5038 26.1258 11.5764 26.2177C11.6489 26.3096 11.7395 26.3857 11.8424 26.4415C11.9454 26.4973 12.0586 26.5316 12.1752 26.5422C12.2918 26.5529 12.4094 26.5397 12.5207 26.5034C12.6321 26.4672 12.7349 26.4086 12.8229 26.3314C12.9109 26.2542 12.9823 26.1598 13.0326 26.0541C13.083 25.9484 13.1114 25.8336 13.116 25.7166L13.615 20.1863L16.792 21.5488C16.9231 21.6047 17.066 21.6272 17.2079 21.6144C17.3498 21.6017 17.4863 21.5539 17.6053 21.4755C17.7243 21.3971 17.822 21.2905 17.8898 21.1651C17.9575 21.0398 17.9931 20.8996 17.9935 20.7571L17.9935 15.9659L21.0666 17.283C21.1977 17.3388 21.3406 17.3614 21.4825 17.3486C21.6244 17.3358 21.7609 17.2881 21.8799 17.2097C21.9989 17.1313 22.0966 17.0247 22.1644 16.8993C22.2321 16.7739 22.2677 16.6337 22.2681 16.4913L22.2622 11.6445L25.05 12.723C25.1569 12.7698 25.2722 12.7945 25.3889 12.7955C25.5057 12.7965 25.6214 12.7738 25.7291 12.7288C25.8368 12.6839 25.9342 12.6175 26.0155 12.5337C26.0968 12.45 26.1603 12.3506 26.2021 12.2417C26.2439 12.1327 26.2632 12.0164 26.2588 11.8997C26.2543 11.7831 26.2263 11.6686 26.1763 11.5631C26.1263 11.4576 26.0555 11.3633 25.968 11.286C25.8806 11.2087 25.7784 11.1499 25.6676 11.1132L21.7091 9.58399Z" fill="#6F51FF"/>
</g>
<defs>
<clipPath id="clip0">
<rect x="0.0581055" y="14.6575" width="20.6957" height="20.6957" transform="rotate(-45 0.0581055 14.6575)" fill="white"/>
</clipPath>
</defs>
</svg>
