<svg width="12" height="12" viewBox="0 0 12 12" fill="none" xmlns="http://www.w3.org/2000/svg">
<path d="M9.24005 11.7227C9.41775 11.5449 9.51758 11.3038 9.51758 11.0525C9.51758 10.8011 9.41775 10.56 9.24005 10.3823L4.86965 6.00828C4.86745 6.00603 4.86622 6.00302 4.86622 5.99988C4.86622 5.99674 4.86745 5.99372 4.86965 5.99148L9.24005 1.61748C9.39974 1.43688 9.48463 1.20224 9.47745 0.961276C9.47027 0.720314 9.37157 0.491138 9.20141 0.320371C9.03126 0.149604 8.80244 0.0500747 8.5615 0.0420321C8.32057 0.0339895 8.08562 0.118037 7.90445 0.277077L2.68805 5.49348C2.55468 5.62828 2.47987 5.81025 2.47987 5.99988C2.47987 6.18951 2.55468 6.37148 2.68805 6.50628L7.90445 11.7227C8.08218 11.8986 8.32216 11.9973 8.57225 11.9973C8.82234 11.9973 9.06232 11.8986 9.24005 11.7227Z" fill="#3F3356"/>
</svg>
