<svg width="8" height="8" viewBox="0 0 8 8" fill="none" xmlns="http://www.w3.org/2000/svg">
<path d="M7.81516 1.84C7.69664 1.72153 7.53593 1.65498 7.36836 1.65498C7.20079 1.65498 7.04007 1.72153 6.92156 1.84L4.00556 4.7536C4.00406 4.75507 4.00205 4.75589 3.99996 4.75589C3.99786 4.75589 3.99585 4.75507 3.99436 4.7536L1.07836 1.84C0.957963 1.73354 0.801533 1.67695 0.640892 1.68173C0.48025 1.68652 0.327466 1.75232 0.213621 1.86576C0.0997765 1.9792 0.0334238 2.13175 0.0280621 2.29237C0.0227004 2.45299 0.0787324 2.60962 0.184759 2.7304L3.66236 6.208C3.75222 6.29692 3.87354 6.34679 3.99996 6.34679C4.12638 6.34679 4.24769 6.29692 4.33756 6.208L7.81516 2.7304C7.93246 2.61192 7.99826 2.45193 7.99826 2.2852C7.99826 2.11847 7.93246 1.95849 7.81516 1.84Z" fill="#1F222E"/>
</svg>
