<svg width="14" height="14" viewBox="0 0 14 14" fill="none" xmlns="http://www.w3.org/2000/svg">
<g clip-path="url(#clip0)">
<path d="M9.82948 2.59001C9.72574 2.48218 9.58495 2.41773 9.43553 2.40967C9.28612 2.40162 9.13921 2.45055 9.02448 2.54661C8.96683 2.59819 8.92032 2.661 8.88779 2.73118C8.85526 2.80137 8.83741 2.87745 8.83531 2.95478C8.83321 3.03211 8.84692 3.10905 8.8756 3.18089C8.90427 3.25274 8.94731 3.31797 9.00208 3.37261L12.0555 6.42741H0.593677C0.448945 6.42452 0.308258 6.47525 0.198676 6.56984C0.0890946 6.66443 0.0183596 6.7962 7.73179e-05 6.93981C-0.00768895 7.01838 0.00096113 7.09772 0.0254788 7.17278C0.0499965 7.24783 0.0898465 7.31698 0.142501 7.37582C0.195155 7.43466 0.259464 7.48191 0.331349 7.51459C0.403233 7.54726 0.481123 7.56463 0.560077 7.56561H12.0401L9.01328 10.6106C8.91848 10.703 8.85829 10.8252 8.84274 10.9567C8.8272 11.0882 8.85725 11.221 8.92788 11.333C8.97413 11.4042 9.03568 11.4641 9.10804 11.5084C9.18041 11.5527 9.26176 11.5803 9.34615 11.5891C9.43054 11.598 9.51585 11.5879 9.59583 11.5596C9.67582 11.5312 9.74847 11.4854 9.80848 11.4254L13.8335 7.39901C13.9401 7.29218 14 7.14743 14 6.99651C14 6.84559 13.9401 6.70083 13.8335 6.59401L9.82948 2.59001Z" fill="#6F51FF"/>
</g>
<defs>
<clipPath id="clip0">
<rect width="14" height="14" fill="white"/>
</clipPath>
</defs>
</svg>
