<svg width="16" height="12" viewBox="0 0 16 12" fill="none" xmlns="http://www.w3.org/2000/svg">
<path d="M4.76617 11.04C4.88473 11.1632 5.04564 11.2369 5.2164 11.2461C5.38716 11.2553 5.55505 11.1994 5.68617 11.0896C5.75205 11.0306 5.80521 10.9589 5.84238 10.8786C5.87956 10.7984 5.89997 10.7115 5.90237 10.6231C5.90476 10.5347 5.88909 10.4468 5.85632 10.3647C5.82355 10.2826 5.77436 10.208 5.71177 10.1456L2.22217 6.65438L15.3214 6.65439C15.4868 6.65768 15.6476 6.59971 15.7728 6.4916C15.898 6.3835 15.9789 6.2329 15.9998 6.06879C16.0086 5.97898 15.9988 5.88832 15.9707 5.80254C15.9427 5.71675 15.8972 5.63773 15.837 5.57049C15.7768 5.50324 15.7033 5.44923 15.6212 5.4119C15.539 5.37456 15.45 5.3547 15.3598 5.35359L2.23977 5.35358L5.69897 1.87358C5.80731 1.76795 5.87611 1.62833 5.89387 1.47806C5.91163 1.32779 5.87729 1.17597 5.79657 1.04799C5.74372 0.966678 5.67337 0.898201 5.59067 0.847556C5.50796 0.796912 5.41499 0.765378 5.31855 0.755258C5.2221 0.745137 5.12461 0.756687 5.03319 0.789062C4.94178 0.821436 4.85875 0.873819 4.79017 0.942386L0.19017 5.54398C0.0683322 5.66607 -9.4894e-05 5.8315 -9.49091e-05 6.00398C-9.49241e-05 6.17646 0.0683321 6.3419 0.19017 6.46398L4.76617 11.04Z" fill="white"/>
</svg>
