<svg width="26" height="26" viewBox="0 0 26 26" fill="none" xmlns="http://www.w3.org/2000/svg">
<g clip-path="url(#clip0)">
<path d="M18.8635 10.9006C18.1305 11.096 17.471 11.5023 16.9668 12.0691C16.4626 12.6359 16.1359 13.3383 16.0272 14.0891C15.9185 14.8399 16.0327 15.6061 16.3555 16.2926C16.6783 16.9791 17.1955 17.5557 17.843 17.951C14.8389 19.132 11.5713 19.4782 8.38637 18.9529L4.71088 18.3415C4.59899 18.323 4.48454 18.3267 4.37407 18.3523C4.26359 18.378 4.15926 18.4252 4.06702 18.4912C3.97478 18.5572 3.89644 18.6407 3.83648 18.737C3.77652 18.8333 3.73611 18.9404 3.71755 19.0523C3.699 19.1642 3.70266 19.2786 3.72834 19.3891C3.75402 19.4996 3.8012 19.6039 3.8672 19.6962C3.9332 19.7884 4.01672 19.8667 4.11299 19.9267C4.20927 19.9867 4.31641 20.0271 4.4283 20.0456L8.10525 20.6545C12.5358 21.3856 17.0831 20.5748 20.988 18.3574C21.9621 18.062 22.7811 17.3954 23.2681 16.5015C23.7551 15.6076 23.8712 14.558 23.5912 13.5793C23.3112 12.6006 22.6577 11.7712 21.7716 11.2701C20.8856 10.769 19.838 10.6363 18.855 10.9007L18.8635 10.9006ZM20.426 16.7318C20.014 16.8422 19.5785 16.8279 19.1747 16.6908C18.7708 16.5537 18.4166 16.2999 18.157 15.9616C17.8973 15.6232 17.7439 15.2154 17.716 14.7898C17.6881 14.3642 17.787 13.9399 18.0003 13.5705C18.2135 13.2012 18.5315 12.9033 18.914 12.7147C19.2966 12.526 19.7264 12.4551 20.1493 12.5107C20.5722 12.5664 20.969 12.7462 21.2897 13.0274C21.6104 13.3087 21.8405 13.6787 21.9508 14.0906C22.0977 14.6429 22.0196 15.2308 21.7336 15.7255C21.4477 16.2202 20.9772 16.5814 20.4254 16.7298L20.426 16.7318Z" fill="#6F51FF"/>
<path d="M1.89921 12.558C2.06216 13.1712 2.37296 13.735 2.80441 14.2002C3.23585 14.6653 3.77477 15.0176 4.37396 15.2262C4.97315 15.4347 5.61433 15.4932 6.24135 15.3964C6.86837 15.2996 7.4621 15.0506 7.97054 14.6711C8.47897 14.2916 8.88661 13.7932 9.15773 13.2196C9.42886 12.646 9.55521 12.0147 9.52571 11.381C9.49622 10.7472 9.31178 10.1303 8.98855 9.58441C8.66532 9.03847 8.21317 8.58012 7.67168 8.24949C10.6761 7.06882 13.944 6.72329 17.1289 7.24953L20.8038 7.8589C21.0298 7.89637 21.2614 7.84254 21.4477 7.70925C21.634 7.57596 21.7597 7.37413 21.7972 7.14815C21.8346 6.92218 21.7808 6.69058 21.6475 6.50429C21.5142 6.31801 21.3124 6.1923 21.0864 6.15483L17.4109 5.54346C14.6524 5.08751 11.8282 5.22694 9.12804 5.95237C7.5193 6.3841 5.97235 7.01965 4.52475 7.84359C3.56128 8.13564 2.74892 8.79054 2.25907 9.6701C1.76922 10.5497 1.6402 11.5851 1.89921 12.558ZM5.08928 9.47066C5.50126 9.36027 5.93672 9.37453 6.3406 9.51163C6.74448 9.64872 7.09863 9.90251 7.35828 10.2409C7.61792 10.5793 7.77139 10.987 7.79929 11.4126C7.82719 11.8382 7.72825 12.2625 7.51499 12.6319C7.30174 13.0013 6.98374 13.2991 6.60121 13.4878C6.21868 13.6764 5.78881 13.7474 5.36594 13.6917C4.94308 13.636 4.54622 13.4562 4.22555 13.175C3.90488 12.8938 3.6748 12.5238 3.56441 12.1118C3.41696 11.5594 3.49471 10.971 3.78059 10.4759C4.06647 9.98069 4.53714 9.61917 5.08928 9.47066Z" fill="#6F51FF"/>
</g>
<defs>
<clipPath id="clip0">
<rect x="25.4309" y="20.4172" width="20.6957" height="20.6957" transform="rotate(165 25.4309 20.4172)" fill="white"/>
</clipPath>
</defs>
</svg>
