<svg width="26" height="26" viewBox="0 0 26 26" fill="none" xmlns="http://www.w3.org/2000/svg">
<g clip-path="url(#clip0)">
<path d="M19.6184 14.7816C18.7668 15.0098 18.0199 15.8527 17.4512 16.6885L15.6685 10.0357C15.4349 9.12928 14.9369 8.31283 14.238 7.69019C13.539 7.06755 12.6707 6.66686 11.7434 6.53908C10.8161 6.41131 9.87176 6.56222 9.03047 6.97263C8.18918 7.38304 7.48896 8.03439 7.01887 8.84385C6.17123 7.2862 4.90975 5.993 3.37363 5.10693C3.17513 4.99277 2.93941 4.96214 2.71832 5.02179C2.49723 5.08143 2.30889 5.22645 2.19473 5.42496C2.08057 5.62346 2.04995 5.85919 2.10959 6.08028C2.16923 6.30136 2.31426 6.4897 2.51276 6.60386C3.42087 7.12499 4.21665 7.82099 4.85405 8.65163C5.49146 9.48226 5.95785 10.431 6.22624 11.4431L8.85089 21.2384C8.87558 21.3526 8.92322 21.4607 8.99093 21.556C9.05863 21.6513 9.14499 21.7318 9.24476 21.7927C9.34452 21.8536 9.45562 21.8936 9.57132 21.9103C9.68701 21.927 9.80489 21.92 9.91779 21.8897C10.0307 21.8595 10.1363 21.8066 10.2281 21.7343C10.32 21.662 10.3962 21.5718 10.4522 21.4692C10.5081 21.3665 10.5426 21.2536 10.5536 21.1373C10.5646 21.0209 10.5518 20.9035 10.5161 20.7922L8.17212 12.0444C7.96493 11.2711 8.0734 10.4472 8.47367 9.7539C8.87394 9.06061 9.53323 8.55472 10.3065 8.34752C11.0798 8.14033 11.9037 8.2488 12.597 8.64907C13.2903 9.04934 13.7961 9.70863 14.0033 10.4819L16.253 18.8779L15.4659 20.2501C15.2499 20.6261 14.9615 20.9557 14.6174 21.2196C14.2733 21.4835 13.8803 21.6767 13.4611 21.7878C13.3468 21.8125 13.2388 21.8602 13.1435 21.9279C13.0482 21.9956 12.9677 22.0819 12.9068 22.1817C12.8459 22.2815 12.8059 22.3926 12.7892 22.5083C12.7725 22.624 12.7795 22.7418 12.8098 22.8548C12.84 22.9677 12.8929 23.0732 12.9652 23.1651C13.0375 23.257 13.1277 23.3332 13.2303 23.3891C13.3329 23.4451 13.4459 23.4796 13.5622 23.4906C13.6786 23.5016 13.796 23.4888 13.9073 23.4531C14.5454 23.2839 15.1437 22.9899 15.6675 22.5881C16.1912 22.1863 16.6302 21.6846 16.9588 21.112L17.4593 20.2452C18.4767 20.8917 20.1643 21.7765 21.4037 21.4444C21.851 21.3362 22.2721 21.1397 22.6423 20.8663C23.0124 20.5929 23.3241 20.2482 23.5591 19.8526C23.794 19.4569 23.9474 19.0182 24.0103 18.5624C24.0732 18.1065 24.0442 17.6427 23.9251 17.1982C23.806 16.7537 23.5992 16.3375 23.3168 15.9742C23.0344 15.6108 22.6822 15.3076 22.2809 15.0825C21.8796 14.8573 21.4373 14.7146 20.9801 14.663C20.5228 14.6113 20.0599 14.6516 19.6184 14.7816ZM20.9575 19.7792C20.4718 19.9093 19.286 19.3701 18.2664 18.7155C18.8216 17.6369 19.5788 16.5769 20.0646 16.4468C20.5065 16.3284 20.9774 16.3904 21.3736 16.6191C21.7698 16.8479 22.0589 17.2246 22.1773 17.6665C22.2957 18.1084 22.2337 18.5793 22.0049 18.9755C21.7762 19.3717 21.3994 19.6608 20.9575 19.7792Z" fill="#6F51FF"/>
</g>
<defs>
<clipPath id="clip0">
<rect x="0.638672" y="5.58276" width="20.6957" height="20.6957" transform="rotate(-15 0.638672 5.58276)" fill="white"/>
</clipPath>
</defs>
</svg>
