<svg width="20" height="20" viewBox="0 0 20 20" fill="none" xmlns="http://www.w3.org/2000/svg">
<g clip-path="url(#clip0)">
<path d="M14.614 -1.6861e-05C13.014 -1.6861e-05 11.414 0.757983 9.86 1.49198C8.4 2.17998 7.02 2.83198 5.784 2.83198C4.33903 2.81152 2.91978 2.44676 1.644 1.76798L1.59 1.73998V0.799983C1.59002 0.589531 1.5071 0.387549 1.35923 0.237804C1.21136 0.0880591 1.01044 0.00261379 0.8 -1.6861e-05C0.587827 -1.6861e-05 0.384344 0.0842686 0.234315 0.234298C0.0842855 0.384327 0 0.58781 0 0.799983L0 19.2C0 19.4121 0.0842855 19.6156 0.234315 19.7657C0.384344 19.9157 0.587827 20 0.8 20C1.01217 20 1.21566 19.9157 1.36569 19.7657C1.51571 19.6156 1.6 19.4121 1.6 19.2V15.142L1.742 15.204C3.02066 15.7652 4.39967 16.0618 5.796 16.076C7.396 16.076 8.996 15.308 10.554 14.564C12 13.866 13.382 13.2 14.614 13.2C16.0744 13.1862 17.5034 13.6234 18.706 14.452L19.346 14.98C19.4041 15.0277 19.4745 15.0582 19.5491 15.0678C19.6237 15.0773 19.6995 15.0657 19.7678 15.0342C19.836 15.0026 19.894 14.9525 19.9351 14.8895C19.9762 14.8265 19.9987 14.7532 20 14.678V2.22398C20.0004 2.10447 19.974 1.98638 19.9228 1.87839C19.8716 1.77041 19.7968 1.67528 19.704 1.59998C18.2206 0.539001 16.4376 -0.0214665 14.614 -1.6861e-05ZM18.414 12.452L18.272 12.388C17.1221 11.8759 15.8768 11.6128 14.618 11.616C13.018 11.616 11.418 12.384 9.86 13.128C8.398 13.826 7.02 14.484 5.788 14.484C4.35531 14.4631 2.94883 14.0967 1.688 13.416L1.634 13.388V3.52998L1.774 3.58798C3.04034 4.1237 4.39909 4.407 5.774 4.42198C7.374 4.42198 8.974 3.66398 10.528 2.92998C12 2.24198 13.378 1.59998 14.614 1.59998C15.9326 1.59646 17.2277 1.94959 18.362 2.62198L18.41 2.65198L18.414 12.452Z" fill="white"/>
</g>
<defs>
<clipPath id="clip2">
<rect width="20" height="20" fill="white"/>
</clipPath>
</defs>
</svg>
