<svg width="20" height="20" viewBox="0 0 20 20" fill="none" xmlns="http://www.w3.org/2000/svg">
<g clip-path="url(#clip0)">
<path d="M10 1.8C11.6218 1.8 13.2072 2.28092 14.5557 3.18195C15.9042 4.08298 16.9552 5.36364 17.5758 6.862C18.1965 8.36035 18.3588 10.0091 18.0424 11.5997C17.726 13.1904 16.9451 14.6515 15.7983 15.7983C14.6515 16.9451 13.1904 17.726 11.5997 18.0424C10.0091 18.3588 8.36035 18.1964 6.862 17.5758C5.36365 16.9552 4.08298 15.9042 3.18195 14.5557C2.28093 13.2072 1.8 11.6218 1.8 10C1.8 7.82522 2.66393 5.73952 4.20173 4.20172C5.73953 2.66393 7.82523 1.8 10 1.8ZM10 0C8.02219 0 6.08879 0.58649 4.4443 1.6853C2.79981 2.78412 1.51809 4.3459 0.761209 6.17317C0.00433283 8.00043 -0.193701 10.0111 0.192152 11.9509C0.578004 13.8907 1.53041 15.6725 2.92894 17.0711C4.32746 18.4696 6.10929 19.422 8.0491 19.8079C9.98891 20.1937 11.9996 19.9957 13.8268 19.2388C15.6541 18.4819 17.2159 17.2002 18.3147 15.5557C19.4135 13.9112 20 11.9778 20 10C20 7.34783 18.9464 4.8043 17.0711 2.92893C15.1957 1.05357 12.6522 0 10 0V0Z" fill="white"/>
<path d="M9.45997 15.124V13.924C9.08375 13.8756 8.71495 13.7809 8.36197 13.642C7.98009 13.4978 7.62817 13.2842 7.32397 13.012L8.21197 11.612C8.48366 11.8196 8.7799 11.9929 9.09397 12.128C9.33957 12.2292 9.60235 12.2821 9.86797 12.284C10.0961 12.3049 10.3245 12.2478 10.516 12.122C10.5854 12.0574 10.6395 11.9781 10.6741 11.8898C10.7087 11.8015 10.723 11.7065 10.716 11.612C10.7103 11.5299 10.6862 11.4502 10.6453 11.3789C10.6044 11.3075 10.5479 11.2463 10.48 11.2C10.3009 11.0588 10.1079 10.9361 9.90397 10.834C9.67197 10.714 9.42397 10.588 9.15997 10.456C8.89625 10.3241 8.64692 10.1653 8.41597 9.98198C8.18721 9.80169 7.9922 9.5823 7.83997 9.33398C7.68144 9.06114 7.60246 8.74938 7.61197 8.43398C7.57775 7.88812 7.74809 7.34908 8.08975 6.922C8.43142 6.49492 8.91992 6.21041 9.45997 6.12398V4.87598H10.8V6.09998C11.1577 6.15465 11.5018 6.27681 11.814 6.45998C12.1092 6.63804 12.3785 6.85611 12.614 7.10798L11.6 8.28398C11.4142 8.11296 11.2064 7.96766 10.982 7.85198C10.7859 7.75592 10.5703 7.70663 10.352 7.70798C10.1512 7.69418 9.95074 7.74011 9.77597 7.83998C9.70424 7.89879 9.64836 7.97462 9.61343 8.06055C9.5785 8.14649 9.56562 8.23979 9.57597 8.33198C9.57795 8.4123 9.59981 8.49088 9.6396 8.56069C9.67939 8.63049 9.73587 8.68935 9.80397 8.73198C9.98531 8.86134 10.1781 8.97381 10.38 9.06798L11.124 9.42798C11.3884 9.55617 11.6379 9.71312 11.868 9.89598C12.0988 10.0788 12.2941 10.3025 12.444 10.556C12.6023 10.8376 12.6811 11.157 12.672 11.48C12.6853 12.0206 12.5232 12.5511 12.21 12.992C11.8601 13.4405 11.3589 13.7462 10.8 13.852V15.124H9.45997Z" fill="white"/>
</g>
<defs>
<clipPath id="clip0">
<rect width="20" height="20" fill="white"/>
</clipPath>
</defs>
</svg>
