<svg width="16" height="16" viewBox="0 0 16 16" fill="none" xmlns="http://www.w3.org/2000/svg">
<g clip-path="url(#clip0)">
<path d="M14.5712 9.7392C14.4071 9.73962 14.2499 9.80499 14.1338 9.92102C14.0178 10.0371 13.9524 10.1943 13.952 10.3584V13.7936C13.9512 14.0393 13.8531 14.2747 13.6792 14.4483C13.5053 14.6219 13.2697 14.7196 13.024 14.72H2.168C1.92201 14.7196 1.68621 14.6217 1.51227 14.4477C1.33833 14.2738 1.24042 14.038 1.24 13.792V3.712C1.24084 3.46614 1.33889 3.23059 1.51274 3.05674C1.68659 2.88288 1.92214 2.78484 2.168 2.784H5.6C5.76443 2.784 5.92213 2.71868 6.03841 2.6024C6.15468 2.48613 6.22 2.32843 6.22 2.164C6.22 1.99956 6.15468 1.84187 6.03841 1.72559C5.92213 1.60932 5.76443 1.544 5.6 1.544H2.1664C1.59208 1.54569 1.04179 1.7747 0.635826 2.18095C0.229867 2.58721 0.00126627 3.13768 0 3.712L0 13.792C0.000845252 14.3669 0.229479 14.918 0.635829 15.3246C1.04218 15.7313 1.59312 15.9603 2.168 15.9616H13.024C13.5986 15.9603 14.1493 15.7315 14.5556 15.3252C14.9619 14.9189 15.1907 14.3682 15.192 13.7936V10.3584C15.1916 10.194 15.126 10.0365 15.0096 9.92046C14.8932 9.80438 14.7356 9.7392 14.5712 9.7392Z" fill="#3F3356"/>
<path d="M15.424 1.0704L14.9696 0.616003C14.5994 0.2458 14.0972 0.0378265 13.5736 0.0378265C13.05 0.0378265 12.5479 0.2458 12.1776 0.616003L5.28003 7.52C5.20381 7.59573 5.14866 7.69004 5.12003 7.7936L4.20803 11.0688C4.17714 11.1751 4.17521 11.2876 4.20244 11.3949C4.22967 11.5021 4.28506 11.6001 4.3629 11.6788C4.44073 11.7574 4.53816 11.8138 4.64512 11.8422C4.75208 11.8705 4.86467 11.8698 4.97123 11.84L8.24803 10.9328C8.35151 10.904 8.44577 10.8489 8.52163 10.7728L15.424 3.8624C15.7931 3.49152 16.0002 2.9896 16.0002 2.4664C16.0002 1.9432 15.7931 1.44129 15.424 1.0704ZM6.92803 10.0032L5.69603 10.344L6.03683 9.12L6.92803 10.0032ZM13.4256 4.1088L8.10563 9.4272L6.61283 7.936L11.9328 2.616L13.4256 4.1088ZM14.5456 2.9888L14.3024 3.232L12.8096 1.7392L13.056 1.4928C13.1938 1.35514 13.3805 1.2778 13.5752 1.2778C13.77 1.2778 13.9567 1.35514 14.0944 1.4928L14.5488 1.9472C14.6855 2.08554 14.762 2.27226 14.7617 2.46673C14.7614 2.6612 14.6843 2.84768 14.5472 2.9856L14.5456 2.9888Z" fill="#3F3356"/>
</g>
<defs>
<clipPath id="clip0">
<rect width="16" height="16" fill="white"/>
</clipPath>
</defs>
</svg>
