<svg width="20" height="20" viewBox="0 0 20 20" fill="none" xmlns="http://www.w3.org/2000/svg">
<path d="M9.99993 2.2839L11.9339 6.1999C12.1155 6.56735 12.3837 6.88514 12.7154 7.12589C13.0471 7.36665 13.4323 7.52315 13.8379 7.5819L18.1599 8.2119L15.0319 11.2599C14.7382 11.5459 14.5184 11.8991 14.3916 12.289C14.2648 12.6789 14.2347 13.0938 14.3039 13.4979L15.0419 17.7999L11.1759 15.7699C10.8132 15.5793 10.4097 15.4797 9.99993 15.4797C9.59021 15.4797 9.18662 15.5793 8.82393 15.7699L4.95793 17.7999L5.69593 13.4939C5.76449 13.0904 5.73405 12.6763 5.60725 12.2872C5.48044 11.8981 5.26105 11.5455 4.96793 11.2599L1.83993 8.2119L6.16193 7.5839C6.56775 7.52494 6.95313 7.36814 7.28484 7.12703C7.61655 6.88591 7.88462 6.56772 8.06593 6.1999L9.99993 2.2839ZM9.99993 0.421903C9.73962 0.420252 9.48418 0.492477 9.26328 0.630189C9.04237 0.767902 8.86506 0.965452 8.75193 1.1999L6.63193 5.4919C6.56546 5.6268 6.46719 5.74352 6.3456 5.83201C6.22401 5.9205 6.08273 5.97812 5.93393 5.9999L1.19993 6.6879C0.944079 6.72706 0.704089 6.83637 0.506623 7.00371C0.309156 7.17104 0.161943 7.38984 0.0813377 7.6358C0.000732285 7.88176 -0.0101099 8.14525 0.0500156 8.397C0.110141 8.64876 0.23888 8.87891 0.421932 9.0619L3.85193 12.3999C3.95961 12.5051 4.04008 12.6349 4.08643 12.7781C4.13277 12.9213 4.14358 13.0736 4.11793 13.2219L3.31793 17.9439C3.27224 18.2004 3.29963 18.4645 3.39698 18.7061C3.49433 18.9477 3.6577 19.1571 3.86842 19.3102C4.07914 19.4633 4.32871 19.5541 4.58857 19.5721C4.84844 19.5901 5.10812 19.5345 5.33793 19.4119L9.57793 17.1819C9.71115 17.1118 9.85941 17.0752 10.0099 17.0752C10.1605 17.0752 10.3087 17.1118 10.4419 17.1819L14.6819 19.4119C14.9117 19.5345 15.1714 19.5901 15.4313 19.5721C15.6912 19.5541 15.9407 19.4633 16.1514 19.3102C16.3622 19.1571 16.5255 18.9477 16.6229 18.7061C16.7202 18.4645 16.7476 18.2004 16.7019 17.9439L15.9019 13.2219C15.8738 13.0752 15.8814 12.9239 15.9242 12.7808C15.9671 12.6377 16.0438 12.507 16.1479 12.3999L19.5779 9.0619C19.761 8.87891 19.8897 8.64876 19.9498 8.397C20.01 8.14525 19.9991 7.88176 19.9185 7.6358C19.8379 7.38984 19.6907 7.17104 19.4932 7.00371C19.2958 6.83637 19.0558 6.72706 18.7999 6.6879L14.0659 5.9999C13.9171 5.97812 13.7759 5.9205 13.6543 5.83201C13.5327 5.74352 13.4344 5.6268 13.3679 5.4919L11.2479 1.1999C11.1348 0.965452 10.9575 0.767902 10.7366 0.630189C10.5157 0.492477 10.2602 0.420252 9.99993 0.421903Z" fill="white"/>
</svg>
