<svg width="30" height="30" viewBox="0 0 30 30" fill="none" xmlns="http://www.w3.org/2000/svg">
<g clip-path="url(#clip0)">
<path d="M11.3898 15.0395C10.8109 14.8234 10.1854 14.7629 9.57577 14.8641C8.96615 14.9652 8.39374 15.2245 7.91568 15.6161C7.80863 15.7036 7.70606 15.7964 7.60836 15.8941C6.84826 16.6496 6.41891 17.6757 6.41452 18.7473C6.41013 19.819 6.83106 20.8486 7.58495 21.6102C7.7491 21.759 7.96421 21.839 8.18571 21.8336C8.40721 21.8281 8.61814 21.7377 8.77482 21.5811C8.93149 21.4244 9.0219 21.2135 9.02733 20.992C9.03275 20.7704 8.95278 20.5553 8.80396 20.3912C8.37351 19.953 8.13439 19.362 8.13906 18.7478C8.14372 18.1335 8.39178 17.5462 8.82884 17.1146C8.88556 17.058 8.94515 17.0042 9.00737 16.9537C9.25378 16.7489 9.55042 16.6136 9.86662 16.5619C10.1828 16.5102 10.5071 16.5439 10.8059 16.6595C11.1413 16.7786 11.4395 16.9836 11.6709 17.254C11.9022 17.5244 12.0586 17.8507 12.1244 18.2005C12.5444 20.4146 13.1459 21.8912 13.9522 22.6975C15.1127 23.858 16.6866 24.5099 18.3278 24.5099C19.969 24.5099 21.5429 23.858 22.7034 22.6975C23.8638 21.537 24.5158 19.9631 24.5158 18.3219C24.5158 16.6808 23.8638 15.1068 22.7034 13.9464C21.7668 13.0156 20.0166 12.4244 18.3234 12.0688C18.4097 11.9825 18.5107 11.9078 18.5985 11.82C19.3013 11.1051 19.7768 10.1982 19.9651 9.21346C20.1534 8.22877 20.046 7.21039 19.6565 6.28661C19.267 5.36283 18.6128 4.57499 17.7764 4.02234C16.9399 3.4697 15.9586 3.17696 14.9561 3.18103C13.9536 3.1851 12.9747 3.48578 12.1428 4.0452C11.3108 4.60461 10.6631 5.39774 10.2811 6.32464C9.89913 7.25155 9.80002 8.27077 9.99628 9.2539C10.1925 10.237 10.6754 11.1401 11.3839 11.8493C11.8676 12.3334 12.4448 12.7138 13.0804 12.9674C13.7159 13.221 14.3965 13.3425 15.0805 13.3244C18.1917 13.6229 20.6429 14.3298 21.48 15.1668C22.3171 16.004 22.7875 17.1395 22.7875 18.3234C22.7875 19.5073 22.3171 20.6428 21.48 21.48C20.6428 22.3171 19.5073 22.7875 18.3234 22.7875C17.1395 22.7875 16.004 22.3171 15.1668 21.48C14.7907 21.1039 14.2507 20.1746 13.8132 17.8785C13.6884 17.2357 13.3994 16.6361 12.9742 16.1381C12.549 15.6401 12.0022 15.2606 11.3869 15.0366L11.3898 15.0395ZM12.6337 5.8552C13.1076 5.39338 13.7076 5.08205 14.358 4.96036C15.0085 4.83867 15.6804 4.91206 16.2892 5.17131C16.8981 5.43055 17.4166 5.86406 17.7797 6.41731C18.1428 6.97055 18.3341 7.61881 18.3296 8.28053C18.3252 8.94225 18.1251 9.58788 17.7546 10.1362C17.3841 10.6845 16.8597 11.1109 16.2475 11.362C15.6352 11.613 14.9623 11.6773 14.3136 11.5468C13.6648 11.4164 13.0692 11.097 12.6015 10.6288C11.9737 9.99101 11.6246 9.13025 11.6306 8.23535C11.6367 7.34046 11.9974 6.48448 12.6337 5.8552Z" fill="#6F51FF"/>
</g>
<defs>
<clipPath id="clip0">
<rect x="29.9766" y="15.3425" width="20.6957" height="20.6957" transform="rotate(135 29.9766 15.3425)" fill="white"/>
</clipPath>
</defs>
</svg>
