<svg width="26" height="26" viewBox="0 0 26 26" fill="none" xmlns="http://www.w3.org/2000/svg">
<g clip-path="url(#clip0)">
<path d="M14.3054 22.7389L13.0734 18.1411C14.0317 18.4453 15.0542 18.4862 16.0338 18.2593C17.0133 18.0325 17.9138 17.5463 18.6408 16.8517C19.3678 16.1572 19.8945 15.2798 20.1658 14.3116C20.4371 13.3435 20.4429 12.3201 20.1827 11.3489C19.9225 10.3777 19.4058 9.49443 18.6867 8.79162C17.9677 8.08881 17.0728 7.59237 16.0959 7.35436C15.1191 7.11635 14.0961 7.14553 13.1344 7.43884C12.1727 7.73214 11.3076 8.27878 10.6298 9.02143L9.39779 4.42363C9.3731 4.30938 9.32546 4.20133 9.25775 4.10604C9.19005 4.01076 9.10369 3.93022 9.00393 3.86932C8.90416 3.80841 8.79306 3.76841 8.67737 3.75173C8.56167 3.73506 8.4438 3.74206 8.33089 3.77231C8.21798 3.80256 8.1124 3.85544 8.02054 3.92773C7.92869 4.00001 7.85247 4.09021 7.79652 4.19284C7.74058 4.29547 7.70606 4.40839 7.69507 4.52477C7.68408 4.64114 7.69684 4.75853 7.73258 4.86982L9.47985 11.3907C9.52731 11.5678 9.62995 11.7252 9.77288 11.84C9.9158 11.9549 10.0916 12.0212 10.2748 12.0295C10.4579 12.0377 10.639 11.9873 10.7916 11.8858C10.9442 11.7842 11.0606 11.6366 11.1237 11.4645C11.4066 10.6896 11.9291 10.025 12.6153 9.56723C13.3016 9.10944 14.1159 8.88226 14.94 8.91866C15.7641 8.95506 16.5552 9.25314 17.1984 9.76964C17.8416 10.2861 18.3035 10.9942 18.517 11.791C18.7305 12.5878 18.6845 13.4319 18.3857 14.2008C18.0869 14.9697 17.5509 15.6234 16.8554 16.067C16.1599 16.5106 15.3411 16.721 14.5179 16.6676C13.6947 16.6143 12.9099 16.3 12.2775 15.7704C12.1367 15.6538 11.9625 15.585 11.78 15.5738C11.5976 15.5626 11.4163 15.6096 11.2623 15.708C11.1082 15.8065 10.9895 15.9513 10.9231 16.1216C10.8566 16.2919 10.846 16.4789 10.8927 16.6557L12.6421 23.1845C12.6668 23.2988 12.7145 23.4068 12.7822 23.5021C12.8499 23.5974 12.9362 23.678 13.036 23.7389C13.1358 23.7998 13.2469 23.8398 13.3626 23.8564C13.4783 23.8731 13.5961 23.8661 13.709 23.8359C13.822 23.8056 13.9275 23.7527 14.0194 23.6804C14.1112 23.6082 14.1875 23.518 14.2434 23.4153C14.2994 23.3127 14.3339 23.1998 14.3449 23.0834C14.3559 22.967 14.3431 22.8496 14.3073 22.7384L14.3054 22.7389Z" fill="#6F51FF"/>
<path d="M10.1414 23.8546L5.23169 5.53134C5.16394 5.32039 5.01764 5.14357 4.8231 5.03752C4.62856 4.93146 4.40068 4.9043 4.18666 4.96165C3.97264 5.01899 3.78887 5.15646 3.67342 5.34557C3.55797 5.53469 3.51968 5.76096 3.56648 5.97753L8.47618 24.3008C8.50087 24.415 8.54852 24.5231 8.61622 24.6184C8.68393 24.7137 8.77028 24.7942 8.87005 24.8551C8.96982 24.916 9.08092 24.956 9.19661 24.9727C9.31231 24.9894 9.43018 24.9824 9.54309 24.9521C9.65599 24.9219 9.76158 24.869 9.85344 24.7967C9.94529 24.7244 10.0215 24.6342 10.0775 24.5316C10.1334 24.429 10.1679 24.316 10.1789 24.1997C10.1899 24.0833 10.1771 23.9659 10.1414 23.8546Z" fill="#6F51FF"/>
</g>
<defs>
<clipPath id="clip0">
<rect x="20.417" y="0.569092" width="20.6957" height="20.6957" transform="rotate(75 20.417 0.569092)" fill="white"/>
</clipPath>
</defs>
</svg>
