<svg width="16" height="16" viewBox="0 0 16 16" fill="none" xmlns="http://www.w3.org/2000/svg">
<g clip-path="url(#clip0)">
<path d="M2.58196 10.72C2.6414 10.7795 2.71198 10.8267 2.78968 10.8589C2.86737 10.8911 2.95065 10.9077 3.03476 10.9077C3.11886 10.9077 3.20214 10.8911 3.27984 10.8589C3.35753 10.8267 3.42812 10.7795 3.48756 10.72C3.60725 10.6 3.67446 10.4375 3.67446 10.268C3.67446 10.0985 3.60725 9.93599 3.48756 9.81601L2.31796 8.64001L9.78676 8.64001C9.9565 8.64001 10.1193 8.57258 10.2393 8.45256C10.3593 8.33254 10.4268 8.16975 10.4268 8.00001C10.4268 7.83027 10.3593 7.66749 10.2393 7.54746C10.1193 7.42744 9.9565 7.36001 9.78676 7.36001L2.31796 7.36001L3.48756 6.19041C3.60725 6.07043 3.67446 5.90788 3.67446 5.73841C3.67446 5.56894 3.60725 5.40639 3.48756 5.28641C3.42812 5.22691 3.35753 5.1797 3.27984 5.14749C3.20215 5.11529 3.11886 5.09871 3.03476 5.09871C2.95065 5.09871 2.86737 5.11529 2.78968 5.14749C2.71198 5.1797 2.6414 5.22691 2.58196 5.28641L0.0939572 7.77441C0.0642045 7.80413 0.040603 7.83942 0.0244992 7.87827C0.00839546 7.91712 0.000106116 7.95876 0.000106112 8.00081C0.000106108 8.04286 0.00839544 8.0845 0.0244992 8.12335C0.0406029 8.1622 0.0642045 8.19749 0.0939572 8.22721L2.58196 10.72Z" fill="white"/>
<path d="M6.4 4.16L6.4 1.92C6.4 1.75026 6.46743 1.58747 6.58745 1.46745C6.70748 1.34743 6.87026 1.28 7.04 1.28L14.08 1.28C14.2497 1.28 14.4125 1.34743 14.5325 1.46745C14.6526 1.58747 14.72 1.75026 14.72 1.92L14.72 14.08C14.72 14.2497 14.6526 14.4125 14.5325 14.5325C14.4125 14.6526 14.2497 14.72 14.08 14.72L7.04 14.72C6.87026 14.72 6.70748 14.6526 6.58745 14.5325C6.46743 14.4125 6.4 14.2497 6.4 14.08L6.4 11.84C6.4 11.6703 6.33257 11.5075 6.21255 11.3875C6.09253 11.2674 5.92974 11.2 5.76 11.2C5.59026 11.2 5.42748 11.2674 5.30745 11.3875C5.18743 11.5075 5.12 11.6703 5.12 11.84L5.12 14.08C5.12 14.5892 5.32228 15.0776 5.68235 15.4376C6.04243 15.7977 6.53078 16 7.04 16L14.08 16C14.5892 16 15.0776 15.7977 15.4376 15.4376C15.7977 15.0776 16 14.5892 16 14.08L16 1.92C16 1.41078 15.7977 0.922425 15.4376 0.562355C15.0776 0.202285 14.5892 -1.23335e-07 14.08 -1.67852e-07L7.04 -7.83308e-07C6.53079 -8.27825e-07 6.04243 0.202284 5.68236 0.562354C5.32229 0.922424 5.12 1.41078 5.12 1.92L5.12 4.16C5.12 4.32974 5.18743 4.49253 5.30745 4.61255C5.42748 4.73257 5.59026 4.8 5.76 4.8C5.92974 4.8 6.09253 4.73257 6.21255 4.61255C6.33257 4.49253 6.4 4.32974 6.4 4.16Z" fill="white"/>
</g>
<defs>
<clipPath id="clip0">
<rect x="16" y="16" width="16" height="16" transform="rotate(-180 16 16)" fill="white"/>
</clipPath>
</defs>
</svg>
