<svg width="26" height="26" viewBox="0 0 26 26" fill="none" xmlns="http://www.w3.org/2000/svg">
<g clip-path="url(#clip0)">
<path d="M11.7596 20.9623L12.7709 17.1881C14.5543 17.7549 16.2417 18.5884 17.7755 19.6604L20.2664 21.3991C20.3588 21.4698 20.4646 21.5211 20.5774 21.5499C20.6902 21.5787 20.8077 21.5844 20.9227 21.5666C21.0377 21.5488 21.148 21.5079 21.2468 21.4464C21.3456 21.3849 21.431 21.3041 21.4978 21.2087C21.5645 21.1134 21.6113 21.0055 21.6353 20.8916C21.6593 20.7777 21.66 20.6601 21.6374 20.546C21.6147 20.4318 21.5693 20.3233 21.5036 20.2272C21.438 20.1311 21.3536 20.0492 21.2555 19.9865L18.7647 18.2478C17.0669 17.0601 15.197 16.14 13.2201 15.5195L14.3203 11.4134C16.3423 11.8651 18.4216 12.0038 20.4857 11.8249L23.5122 11.5645C23.7329 11.5358 23.934 11.4229 24.0734 11.2494C24.2128 11.0759 24.2798 10.8553 24.2604 10.6335C24.241 10.4118 24.1367 10.2062 23.9693 10.0595C23.8018 9.91288 23.5842 9.83661 23.3619 9.84662L20.3354 10.107C18.471 10.2684 16.593 10.1466 14.7651 9.74568L15.7769 5.96948C15.8237 5.75291 15.7854 5.52663 15.67 5.33752C15.5545 5.1484 15.3708 5.01094 15.1567 4.95359C14.9427 4.89624 14.7148 4.92341 14.5203 5.02946C14.3258 5.13552 14.1795 5.31233 14.1117 5.52329L13.1004 9.29749C11.3169 8.73097 9.62949 7.89741 8.09575 6.82522L5.60489 5.08651C5.51244 5.01577 5.40665 4.96447 5.29386 4.93568C5.18107 4.9069 5.06363 4.90123 4.94859 4.91901C4.83356 4.93679 4.72331 4.97767 4.62448 5.03917C4.52565 5.10067 4.44028 5.18153 4.37352 5.27688C4.30675 5.37223 4.25996 5.4801 4.23597 5.594C4.21198 5.7079 4.21127 5.82548 4.2339 5.93966C4.25653 6.05384 4.30203 6.16227 4.36765 6.25841C4.43327 6.35455 4.51766 6.43642 4.61575 6.4991L7.10661 8.23781C8.80488 9.42598 10.6755 10.3463 12.6531 10.9667L11.5529 15.0727C9.53068 14.6217 7.45119 14.4836 5.38706 14.6633L2.36055 14.9236C2.24427 14.9289 2.13024 14.9576 2.02534 15.008C1.92044 15.0585 1.82683 15.1296 1.75014 15.2172C1.67345 15.3048 1.61527 15.4069 1.5791 15.5176C1.54293 15.6282 1.52951 15.745 1.53966 15.861C1.5498 15.9769 1.5833 16.0896 1.63814 16.1923C1.69298 16.295 1.76802 16.3855 1.85875 16.4584C1.94949 16.5314 2.05403 16.5852 2.1661 16.6166C2.27817 16.6481 2.39544 16.6566 2.51087 16.6415L5.53737 16.3812C7.40173 16.2197 9.2798 16.3415 11.1077 16.7425L10.0964 20.5167C10.0606 20.628 10.0479 20.7454 10.0589 20.8617C10.0699 20.9781 10.1044 21.091 10.1603 21.1937C10.2163 21.2963 10.2925 21.3865 10.3843 21.4588C10.4762 21.5311 10.5818 21.5839 10.6947 21.6142C10.8076 21.6444 10.9255 21.6514 11.0412 21.6348C11.1569 21.6181 11.268 21.5781 11.3677 21.5172C11.4675 21.4563 11.5538 21.3757 11.6215 21.2804C11.6892 21.1852 11.7369 21.0771 11.7616 20.9629L11.7596 20.9623Z" fill="#6F51FF"/>
</g>
<defs>
<clipPath id="clip0">
<rect x="0.26123" y="20.5596" width="20.6957" height="20.6957" transform="rotate(-75 0.26123 20.5596)" fill="white"/>
</clipPath>
</defs>
</svg>
