<svg width="476" height="476" viewBox="0 0 476 476" fill="none" xmlns="http://www.w3.org/2000/svg">
<circle cx="238" cy="238" r="12.4174" stroke="#E5E7FA"/>
<circle cx="226.617" cy="238" r="9.31304" fill="url(#paint0_linear)"/>
<path d="M223.716 237.121L223.406 238.121H225.376L225.066 237.121C224.946 236.755 224.832 236.391 224.726 236.031C224.619 235.665 224.512 235.291 224.406 234.911H224.366C224.266 235.291 224.162 235.665 224.056 236.031C223.949 236.391 223.836 236.755 223.716 237.121ZM221.716 240.791L223.936 234.231H224.876L227.096 240.791H226.206L225.586 238.791H223.196L222.566 240.791H221.716ZM229.449 240.911C229.103 240.911 228.773 240.848 228.459 240.721C228.146 240.595 227.873 240.435 227.639 240.241L228.049 239.691C228.263 239.865 228.479 240.005 228.699 240.111C228.926 240.218 229.186 240.271 229.479 240.271C229.799 240.271 230.039 240.198 230.199 240.051C230.359 239.905 230.439 239.725 230.439 239.511C230.439 239.385 230.406 239.275 230.339 239.181C230.273 239.088 230.186 239.008 230.079 238.941C229.979 238.868 229.863 238.805 229.729 238.751C229.596 238.698 229.463 238.645 229.329 238.591C229.156 238.531 228.983 238.465 228.809 238.391C228.636 238.311 228.479 238.218 228.339 238.111C228.206 237.998 228.096 237.868 228.009 237.721C227.923 237.575 227.879 237.398 227.879 237.191C227.879 236.998 227.916 236.818 227.989 236.651C228.069 236.478 228.179 236.331 228.319 236.211C228.466 236.085 228.643 235.988 228.849 235.921C229.056 235.848 229.289 235.811 229.549 235.811C229.856 235.811 230.136 235.865 230.389 235.971C230.649 236.078 230.873 236.208 231.059 236.361L230.669 236.881C230.503 236.755 230.329 236.651 230.149 236.571C229.969 236.491 229.773 236.451 229.559 236.451C229.253 236.451 229.026 236.521 228.879 236.661C228.739 236.801 228.669 236.965 228.669 237.151C228.669 237.265 228.699 237.365 228.759 237.451C228.819 237.531 228.899 237.605 228.999 237.671C229.099 237.731 229.213 237.788 229.339 237.841C229.473 237.888 229.609 237.938 229.749 237.991C229.923 238.058 230.096 238.128 230.269 238.201C230.449 238.275 230.609 238.368 230.749 238.481C230.889 238.588 231.003 238.721 231.089 238.881C231.183 239.041 231.229 239.235 231.229 239.461C231.229 239.661 231.189 239.848 231.109 240.021C231.036 240.195 230.923 240.348 230.769 240.481C230.623 240.615 230.436 240.718 230.209 240.791C229.989 240.871 229.736 240.911 229.449 240.911Z" fill="white"/>
<circle cx="238" cy="238" r="24.8348" stroke="#E5E7FA"/>
<circle cx="251.452" cy="217.304" r="9.31304" fill="url(#paint1_linear)"/>
<path d="M246.527 220.095V213.535H247.527L248.787 217.035C248.867 217.262 248.943 217.492 249.017 217.725C249.097 217.952 249.177 218.179 249.257 218.405H249.297C249.377 218.179 249.45 217.952 249.517 217.725C249.59 217.492 249.667 217.262 249.747 217.035L250.987 213.535H251.997V220.095H251.217V216.485C251.217 216.192 251.23 215.869 251.257 215.515C251.283 215.162 251.307 214.839 251.327 214.545H251.287L250.767 216.035L249.527 219.435H248.977L247.737 216.035L247.217 214.545H247.177C247.197 214.839 247.217 215.162 247.237 215.515C247.263 215.869 247.277 216.192 247.277 216.485V220.095H246.527ZM255.602 220.215C255.302 220.215 255.016 220.159 254.742 220.045C254.476 219.932 254.239 219.769 254.032 219.555C253.826 219.335 253.659 219.069 253.532 218.755C253.412 218.435 253.352 218.075 253.352 217.675C253.352 217.269 253.412 216.909 253.532 216.595C253.659 216.275 253.826 216.005 254.032 215.785C254.239 215.565 254.476 215.399 254.742 215.285C255.016 215.172 255.302 215.115 255.602 215.115C255.902 215.115 256.186 215.172 256.452 215.285C256.726 215.399 256.966 215.565 257.172 215.785C257.379 216.005 257.542 216.275 257.662 216.595C257.789 216.909 257.852 217.269 257.852 217.675C257.852 218.075 257.789 218.435 257.662 218.755C257.542 219.069 257.379 219.335 257.172 219.555C256.966 219.769 256.726 219.932 256.452 220.045C256.186 220.159 255.902 220.215 255.602 220.215ZM255.602 219.535C255.809 219.535 255.999 219.492 256.172 219.405C256.346 219.312 256.492 219.185 256.612 219.025C256.739 218.859 256.836 218.662 256.902 218.435C256.969 218.209 257.002 217.955 257.002 217.675C257.002 217.395 256.969 217.142 256.902 216.915C256.836 216.682 256.739 216.482 256.612 216.315C256.492 216.149 256.346 216.022 256.172 215.935C255.999 215.842 255.809 215.795 255.602 215.795C255.396 215.795 255.206 215.842 255.032 215.935C254.859 216.022 254.709 216.149 254.582 216.315C254.462 216.482 254.369 216.682 254.302 216.915C254.236 217.142 254.202 217.395 254.202 217.675C254.202 217.955 254.236 218.209 254.302 218.435C254.369 218.662 254.462 218.859 254.582 219.025C254.709 219.185 254.859 219.312 255.032 219.405C255.206 219.492 255.396 219.535 255.602 219.535Z" fill="white"/>
<circle cx="238" cy="238" r="37.2522" stroke="#E5E7FA"/>
<circle cx="275.252" cy="238" r="9.31304" fill="url(#paint2_linear)"/>
<path d="M273.099 240.911C272.639 240.911 272.212 240.825 271.819 240.651C271.426 240.478 271.086 240.241 270.799 239.941L271.299 239.361C271.532 239.608 271.806 239.808 272.119 239.961C272.439 240.108 272.769 240.181 273.109 240.181C273.542 240.181 273.879 240.085 274.119 239.891C274.359 239.691 274.479 239.431 274.479 239.111C274.479 238.945 274.449 238.805 274.389 238.691C274.336 238.571 274.259 238.471 274.159 238.391C274.066 238.305 273.952 238.228 273.819 238.161C273.686 238.095 273.542 238.025 273.389 237.951L272.449 237.541C272.296 237.475 272.139 237.395 271.979 237.301C271.819 237.208 271.676 237.095 271.549 236.961C271.422 236.828 271.319 236.671 271.239 236.491C271.159 236.305 271.119 236.091 271.119 235.851C271.119 235.605 271.169 235.375 271.269 235.161C271.376 234.948 271.519 234.765 271.699 234.611C271.886 234.451 272.102 234.328 272.349 234.241C272.602 234.155 272.879 234.111 273.179 234.111C273.572 234.111 273.936 234.188 274.269 234.341C274.602 234.488 274.886 234.681 275.119 234.921L274.669 235.461C274.469 235.268 274.246 235.118 273.999 235.011C273.759 234.898 273.486 234.841 273.179 234.841C272.812 234.841 272.516 234.928 272.289 235.101C272.069 235.268 271.959 235.501 271.959 235.801C271.959 235.961 271.989 236.098 272.049 236.211C272.116 236.318 272.202 236.415 272.309 236.501C272.416 236.581 272.532 236.655 272.659 236.721C272.786 236.781 272.916 236.838 273.049 236.891L273.979 237.291C274.166 237.371 274.342 237.465 274.509 237.571C274.676 237.671 274.819 237.791 274.939 237.931C275.059 238.065 275.152 238.225 275.219 238.411C275.292 238.591 275.329 238.801 275.329 239.041C275.329 239.301 275.276 239.545 275.169 239.771C275.069 239.998 274.922 240.198 274.729 240.371C274.536 240.538 274.302 240.671 274.029 240.771C273.756 240.865 273.446 240.911 273.099 240.911ZM277.961 240.911C277.441 240.911 277.061 240.751 276.821 240.431C276.588 240.111 276.471 239.638 276.471 239.011V235.931H277.301V238.901C277.301 239.361 277.371 239.695 277.511 239.901C277.658 240.101 277.891 240.201 278.211 240.201C278.464 240.201 278.688 240.138 278.881 240.011C279.074 239.878 279.288 239.668 279.521 239.381V235.931H280.341V240.791H279.661L279.591 240.031H279.561C279.334 240.298 279.094 240.511 278.841 240.671C278.594 240.831 278.301 240.911 277.961 240.911Z" fill="white"/>
<circle cx="238" cy="238" r="49.6696" stroke="#E5E7FA"/>
<circle cx="276.287" cy="269.044" r="9.31304" fill="url(#paint3_linear)"/>
<path d="M271.591 271.835V265.275H272.591L273.851 268.775C273.931 269.001 274.008 269.231 274.081 269.465C274.161 269.691 274.241 269.918 274.321 270.145H274.361C274.441 269.918 274.515 269.691 274.581 269.465C274.655 269.231 274.731 269.001 274.811 268.775L276.051 265.275H277.061V271.835H276.281V268.225C276.281 267.931 276.295 267.608 276.321 267.255C276.348 266.901 276.371 266.578 276.391 266.285H276.351L275.831 267.775L274.591 271.175H274.041L272.801 267.775L272.281 266.285H272.241C272.261 266.578 272.281 266.901 272.301 267.255C272.328 267.608 272.341 267.931 272.341 268.225V271.835H271.591ZM280.747 271.955C280.42 271.955 280.113 271.898 279.827 271.785C279.547 271.665 279.3 271.498 279.087 271.285C278.88 271.065 278.717 270.798 278.597 270.485C278.477 270.171 278.417 269.815 278.417 269.415C278.417 269.015 278.477 268.658 278.597 268.345C278.723 268.025 278.887 267.755 279.087 267.535C279.293 267.315 279.527 267.148 279.787 267.035C280.047 266.915 280.317 266.855 280.597 266.855C280.903 266.855 281.177 266.908 281.417 267.015C281.663 267.121 281.867 267.275 282.027 267.475C282.193 267.675 282.32 267.915 282.407 268.195C282.493 268.475 282.537 268.788 282.537 269.135C282.537 269.221 282.533 269.308 282.527 269.395C282.527 269.475 282.52 269.545 282.507 269.605H279.227C279.26 270.125 279.42 270.538 279.707 270.845C280 271.145 280.38 271.295 280.847 271.295C281.08 271.295 281.293 271.261 281.487 271.195C281.687 271.121 281.877 271.028 282.057 270.915L282.347 271.455C282.133 271.588 281.897 271.705 281.637 271.805C281.377 271.905 281.08 271.955 280.747 271.955ZM279.217 269.015H281.817C281.817 268.521 281.71 268.148 281.497 267.895C281.29 267.635 280.997 267.505 280.617 267.505C280.443 267.505 280.277 267.538 280.117 267.605C279.963 267.671 279.823 267.771 279.697 267.905C279.57 268.031 279.463 268.188 279.377 268.375C279.297 268.561 279.243 268.775 279.217 269.015Z" fill="white"/>
<circle cx="238" cy="238" r="62.087" stroke="#E5E7FA"/>
<circle cx="257.661" cy="296.982" r="9.31304" fill="url(#paint4_linear)"/>
<path d="M254.781 299.774L252.681 293.214H253.571L254.621 296.754C254.741 297.147 254.844 297.51 254.931 297.844C255.024 298.177 255.134 298.537 255.261 298.924H255.301C255.421 298.537 255.527 298.177 255.621 297.844C255.714 297.51 255.817 297.147 255.931 296.754L256.981 293.214H257.831L255.751 299.774H254.781ZM260.471 299.894C260.144 299.894 259.837 299.837 259.551 299.724C259.271 299.604 259.024 299.437 258.811 299.224C258.604 299.004 258.441 298.737 258.321 298.424C258.201 298.11 258.141 297.754 258.141 297.354C258.141 296.954 258.201 296.597 258.321 296.284C258.447 295.964 258.611 295.694 258.811 295.474C259.017 295.254 259.251 295.087 259.511 294.974C259.771 294.854 260.041 294.794 260.321 294.794C260.627 294.794 260.901 294.847 261.141 294.954C261.387 295.06 261.591 295.214 261.751 295.414C261.917 295.614 262.044 295.854 262.131 296.134C262.217 296.414 262.261 296.727 262.261 297.074C262.261 297.16 262.257 297.247 262.251 297.334C262.251 297.414 262.244 297.484 262.231 297.544H258.951C258.984 298.064 259.144 298.477 259.431 298.784C259.724 299.084 260.104 299.234 260.571 299.234C260.804 299.234 261.017 299.2 261.211 299.134C261.411 299.06 261.601 298.967 261.781 298.854L262.071 299.394C261.857 299.527 261.621 299.644 261.361 299.744C261.101 299.844 260.804 299.894 260.471 299.894ZM258.941 296.954H261.541C261.541 296.46 261.434 296.087 261.221 295.834C261.014 295.574 260.721 295.444 260.341 295.444C260.167 295.444 260.001 295.477 259.841 295.544C259.687 295.61 259.547 295.71 259.421 295.844C259.294 295.97 259.187 296.127 259.101 296.314C259.021 296.5 258.967 296.714 258.941 296.954Z" fill="white"/>
<circle cx="238" cy="238" r="74.5043" stroke="#E5E7FA"/>
<circle cx="308.365" cy="212.13" r="9.31304" fill="url(#paint5_linear)"/>
<path d="M303.63 214.922V208.362H304.63L305.89 211.862C305.97 212.088 306.047 212.318 306.12 212.552C306.2 212.778 306.28 213.005 306.36 213.232H306.4C306.48 213.005 306.554 212.778 306.62 212.552C306.694 212.318 306.77 212.088 306.85 211.862L308.09 208.362H309.1V214.922H308.32V211.312C308.32 211.018 308.334 210.695 308.36 210.342C308.387 209.988 308.41 209.665 308.43 209.372H308.39L307.87 210.862L306.63 214.262H306.08L304.84 210.862L304.32 209.372H304.28C304.3 209.665 304.32 209.988 304.34 210.342C304.367 210.695 304.38 211.018 304.38 211.312V214.922H303.63ZM311.936 215.042C311.529 215.042 311.189 214.922 310.916 214.682C310.649 214.442 310.516 214.102 310.516 213.662C310.516 213.128 310.753 212.722 311.226 212.442C311.699 212.155 312.456 211.955 313.496 211.842C313.496 211.688 313.479 211.538 313.446 211.392C313.419 211.245 313.369 211.115 313.296 211.002C313.223 210.888 313.119 210.798 312.986 210.732C312.859 210.658 312.696 210.622 312.496 210.622C312.216 210.622 311.953 210.675 311.706 210.782C311.459 210.888 311.239 211.008 311.046 211.142L310.726 210.572C310.953 210.425 311.229 210.285 311.556 210.152C311.883 210.012 312.243 209.942 312.636 209.942C313.229 209.942 313.659 210.125 313.926 210.492C314.193 210.852 314.326 211.335 314.326 211.942V214.922H313.646L313.576 214.342H313.546C313.313 214.535 313.063 214.702 312.796 214.842C312.529 214.975 312.243 215.042 311.936 215.042ZM312.176 214.382C312.409 214.382 312.629 214.328 312.836 214.222C313.043 214.108 313.263 213.945 313.496 213.732V212.382C313.089 212.435 312.746 212.498 312.466 212.572C312.193 212.645 311.969 212.732 311.796 212.832C311.629 212.932 311.506 213.048 311.426 213.182C311.353 213.308 311.316 213.448 311.316 213.602C311.316 213.882 311.399 214.082 311.566 214.202C311.733 214.322 311.936 214.382 312.176 214.382Z" fill="white"/>
<circle cx="238" cy="238" r="86.9217" stroke="#E5E7FA"/>
<circle cx="321.817" cy="259.731" r="9.31304" fill="url(#paint6_linear)"/>
<path d="M319.333 262.642C318.513 262.642 317.909 262.292 317.523 261.592L318.123 261.172C318.269 261.432 318.436 261.622 318.623 261.742C318.809 261.855 319.019 261.912 319.253 261.912C319.606 261.912 319.869 261.805 320.043 261.592C320.216 261.372 320.303 261.012 320.303 260.512V255.962H321.143V260.592C321.143 260.872 321.106 261.138 321.033 261.392C320.966 261.638 320.859 261.855 320.713 262.042C320.573 262.228 320.386 262.375 320.153 262.482C319.926 262.588 319.653 262.642 319.333 262.642ZM324.257 262.642C323.737 262.642 323.357 262.482 323.117 262.162C322.884 261.842 322.767 261.368 322.767 260.742V257.662H323.597V260.632C323.597 261.092 323.667 261.425 323.807 261.632C323.954 261.832 324.187 261.932 324.507 261.932C324.761 261.932 324.984 261.868 325.177 261.742C325.371 261.608 325.584 261.398 325.817 261.112V257.662H326.637V262.522H325.957L325.887 261.762H325.857C325.631 262.028 325.391 262.242 325.137 262.402C324.891 262.562 324.597 262.642 324.257 262.642Z" fill="white"/>
<circle cx="238" cy="238" r="99.3391" stroke="#E5E7FA"/>
<circle cx="307.33" cy="309.4" r="9.31304" fill="url(#paint7_linear)"/>
<path d="M305.377 312.311C304.917 312.311 304.491 312.224 304.097 312.051C303.704 311.878 303.364 311.641 303.077 311.341L303.577 310.761C303.811 311.008 304.084 311.208 304.397 311.361C304.717 311.508 305.047 311.581 305.387 311.581C305.821 311.581 306.157 311.484 306.397 311.291C306.637 311.091 306.757 310.831 306.757 310.511C306.757 310.344 306.727 310.204 306.667 310.091C306.614 309.971 306.537 309.871 306.437 309.791C306.344 309.704 306.231 309.628 306.097 309.561C305.964 309.494 305.821 309.424 305.667 309.351L304.727 308.941C304.574 308.874 304.417 308.794 304.257 308.701C304.097 308.608 303.954 308.494 303.827 308.361C303.701 308.228 303.597 308.071 303.517 307.891C303.437 307.704 303.397 307.491 303.397 307.251C303.397 307.004 303.447 306.774 303.547 306.561C303.654 306.348 303.797 306.164 303.977 306.011C304.164 305.851 304.381 305.728 304.627 305.641C304.881 305.554 305.157 305.511 305.457 305.511C305.851 305.511 306.214 305.588 306.547 305.741C306.881 305.888 307.164 306.081 307.397 306.321L306.947 306.861C306.747 306.668 306.524 306.518 306.277 306.411C306.037 306.298 305.764 306.241 305.457 306.241C305.091 306.241 304.794 306.328 304.567 306.501C304.347 306.668 304.237 306.901 304.237 307.201C304.237 307.361 304.267 307.498 304.327 307.611C304.394 307.718 304.481 307.814 304.587 307.901C304.694 307.981 304.811 308.054 304.937 308.121C305.064 308.181 305.194 308.238 305.327 308.291L306.257 308.691C306.444 308.771 306.621 308.864 306.787 308.971C306.954 309.071 307.097 309.191 307.217 309.331C307.337 309.464 307.431 309.624 307.497 309.811C307.571 309.991 307.607 310.201 307.607 310.441C307.607 310.701 307.554 310.944 307.447 311.171C307.347 311.398 307.201 311.598 307.007 311.771C306.814 311.938 306.581 312.071 306.307 312.171C306.034 312.264 305.724 312.311 305.377 312.311ZM309.939 312.311C309.532 312.311 309.192 312.191 308.919 311.951C308.652 311.711 308.519 311.371 308.519 310.931C308.519 310.398 308.756 309.991 309.229 309.711C309.702 309.424 310.459 309.224 311.499 309.111C311.499 308.958 311.482 308.808 311.449 308.661C311.422 308.514 311.372 308.384 311.299 308.271C311.226 308.158 311.122 308.068 310.989 308.001C310.862 307.928 310.699 307.891 310.499 307.891C310.219 307.891 309.956 307.944 309.709 308.051C309.462 308.158 309.242 308.278 309.049 308.411L308.729 307.841C308.956 307.694 309.232 307.554 309.559 307.421C309.886 307.281 310.246 307.211 310.639 307.211C311.232 307.211 311.662 307.394 311.929 307.761C312.196 308.121 312.329 308.604 312.329 309.211V312.191H311.649L311.579 311.611H311.549C311.316 311.804 311.066 311.971 310.799 312.111C310.532 312.244 310.246 312.311 309.939 312.311ZM310.179 311.651C310.412 311.651 310.632 311.598 310.839 311.491C311.046 311.378 311.266 311.214 311.499 311.001V309.651C311.092 309.704 310.749 309.768 310.469 309.841C310.196 309.914 309.972 310.001 309.799 310.101C309.632 310.201 309.509 310.318 309.429 310.451C309.356 310.578 309.319 310.718 309.319 310.871C309.319 311.151 309.402 311.351 309.569 311.471C309.736 311.591 309.939 311.651 310.179 311.651Z" fill="white"/>
<circle cx="238" cy="238" r="111.757" stroke="#E5E7FA"/>
<circle cx="213.165" cy="346.652" r="9.31304" fill="url(#paint8_linear)"/>
<path d="M211.439 349.563C211.106 349.563 210.792 349.517 210.499 349.423C210.212 349.323 209.962 349.163 209.749 348.943C209.542 348.717 209.379 348.423 209.259 348.063C209.139 347.703 209.079 347.26 209.079 346.733V342.883H209.909V346.753C209.909 347.147 209.949 347.477 210.029 347.743C210.109 348.01 210.216 348.223 210.349 348.383C210.489 348.543 210.652 348.66 210.839 348.733C211.026 348.8 211.226 348.833 211.439 348.833C211.659 348.833 211.862 348.8 212.049 348.733C212.236 348.66 212.399 348.543 212.539 348.383C212.679 348.223 212.789 348.01 212.869 347.743C212.949 347.477 212.989 347.147 212.989 346.753V342.883H213.789V346.733C213.789 347.26 213.729 347.703 213.609 348.063C213.489 348.423 213.322 348.717 213.109 348.943C212.902 349.163 212.656 349.323 212.369 349.423C212.082 349.517 211.772 349.563 211.439 349.563ZM215.474 349.443V344.583H216.154L216.224 345.463H216.254C216.421 345.157 216.621 344.913 216.854 344.733C217.094 344.553 217.354 344.463 217.634 344.463C217.828 344.463 218.001 344.497 218.154 344.563L217.994 345.283C217.914 345.257 217.841 345.237 217.774 345.223C217.708 345.21 217.624 345.203 217.524 345.203C217.318 345.203 217.101 345.287 216.874 345.453C216.654 345.62 216.461 345.91 216.294 346.323V349.443H215.474Z" fill="white"/>
<circle cx="238" cy="238" r="124.174" stroke="#E5E7FA"/>
<circle cx="349.756" cy="183.157" r="9.31304" fill="url(#paint9_linear)"/>
<path d="M344.939 185.948V179.388H345.799L348.169 183.508L348.879 184.868H348.919C348.899 184.534 348.875 184.191 348.849 183.838C348.829 183.478 348.819 183.124 348.819 182.778V179.388H349.609V185.948H348.749L346.369 181.818L345.659 180.468H345.619C345.645 180.801 345.669 181.141 345.689 181.488C345.715 181.828 345.729 182.171 345.729 182.518V185.948H344.939ZM353.303 186.068C352.977 186.068 352.67 186.011 352.383 185.898C352.103 185.778 351.857 185.611 351.643 185.398C351.437 185.178 351.273 184.911 351.153 184.598C351.033 184.284 350.973 183.928 350.973 183.528C350.973 183.128 351.033 182.771 351.153 182.458C351.28 182.138 351.443 181.868 351.643 181.648C351.85 181.428 352.083 181.261 352.343 181.148C352.603 181.028 352.873 180.968 353.153 180.968C353.46 180.968 353.733 181.021 353.973 181.128C354.22 181.234 354.423 181.388 354.583 181.588C354.75 181.788 354.877 182.028 354.963 182.308C355.05 182.588 355.093 182.901 355.093 183.248C355.093 183.334 355.09 183.421 355.083 183.508C355.083 183.588 355.077 183.658 355.063 183.718H351.783C351.817 184.238 351.977 184.651 352.263 184.958C352.557 185.258 352.937 185.408 353.403 185.408C353.637 185.408 353.85 185.374 354.043 185.308C354.243 185.234 354.433 185.141 354.613 185.028L354.903 185.568C354.69 185.701 354.453 185.818 354.193 185.918C353.933 186.018 353.637 186.068 353.303 186.068ZM351.773 183.128H354.373C354.373 182.634 354.267 182.261 354.053 182.008C353.847 181.748 353.553 181.618 353.173 181.618C353 181.618 352.833 181.651 352.673 181.718C352.52 181.784 352.38 181.884 352.253 182.018C352.127 182.144 352.02 182.301 351.933 182.488C351.853 182.674 351.8 182.888 351.773 183.128Z" fill="white"/>
<circle cx="238" cy="238" r="136.591" stroke="#E5E7FA"/>
<circle cx="365.278" cy="186.261" r="9.31304" fill="url(#paint10_linear)"/>
<path d="M362.589 189.052V182.492H364.459C364.826 182.492 365.159 182.525 365.459 182.592C365.766 182.659 366.026 182.769 366.239 182.922C366.453 183.069 366.619 183.265 366.739 183.512C366.859 183.759 366.919 184.062 366.919 184.422C366.919 184.769 366.859 185.069 366.739 185.322C366.626 185.575 366.463 185.785 366.249 185.952C366.036 186.119 365.779 186.245 365.479 186.332C365.186 186.412 364.859 186.452 364.499 186.452H363.419V189.052H362.589ZM363.419 185.772H364.399C364.973 185.772 365.396 185.665 365.669 185.452C365.949 185.232 366.089 184.889 366.089 184.422C366.089 183.949 365.943 183.622 365.649 183.442C365.363 183.255 364.933 183.162 364.359 183.162H363.419V185.772ZM369.043 189.172C368.73 189.172 368.507 189.079 368.373 188.892C368.24 188.705 368.173 188.432 368.173 188.072V181.932H368.993V188.132C368.993 188.265 369.017 188.359 369.063 188.412C369.11 188.465 369.163 188.492 369.223 188.492C369.25 188.492 369.273 188.492 369.293 188.492C369.32 188.492 369.357 188.485 369.403 188.472L369.513 189.092C369.46 189.119 369.397 189.139 369.323 189.152C369.25 189.165 369.157 189.172 369.043 189.172Z" fill="white"/>
<circle cx="238" cy="238" r="149.009" stroke="#E5E7FA"/>
<circle cx="294.913" cy="375.626" r="9.31304" fill="url(#paint11_linear)"/>
<path d="M291.069 374.747L290.759 375.747H292.729L292.419 374.747C292.299 374.381 292.186 374.017 292.079 373.657C291.973 373.291 291.866 372.917 291.759 372.537H291.719C291.619 372.917 291.516 373.291 291.409 373.657C291.303 374.017 291.189 374.381 291.069 374.747ZM289.069 378.417L291.289 371.857H292.229L294.449 378.417H293.559L292.939 376.417H290.549L289.919 378.417H289.069ZM296.653 378.537C296.246 378.537 295.906 378.417 295.633 378.177C295.366 377.937 295.233 377.597 295.233 377.157C295.233 376.624 295.47 376.217 295.943 375.937C296.416 375.651 297.173 375.451 298.213 375.337C298.213 375.184 298.196 375.034 298.163 374.887C298.136 374.741 298.086 374.611 298.013 374.497C297.94 374.384 297.836 374.294 297.703 374.227C297.576 374.154 297.413 374.117 297.213 374.117C296.933 374.117 296.67 374.171 296.423 374.277C296.176 374.384 295.956 374.504 295.763 374.637L295.443 374.067C295.67 373.921 295.946 373.781 296.273 373.647C296.6 373.507 296.96 373.437 297.353 373.437C297.946 373.437 298.376 373.621 298.643 373.987C298.91 374.347 299.043 374.831 299.043 375.437V378.417H298.363L298.293 377.837H298.263C298.03 378.031 297.78 378.197 297.513 378.337C297.246 378.471 296.96 378.537 296.653 378.537ZM296.893 377.877C297.126 377.877 297.346 377.824 297.553 377.717C297.76 377.604 297.98 377.441 298.213 377.227V375.877C297.806 375.931 297.463 375.994 297.183 376.067C296.91 376.141 296.686 376.227 296.513 376.327C296.346 376.427 296.223 376.544 296.143 376.677C296.07 376.804 296.033 376.944 296.033 377.097C296.033 377.377 296.116 377.577 296.283 377.697C296.45 377.817 296.653 377.877 296.893 377.877Z" fill="white"/>
<circle cx="238" cy="238" r="161.426" stroke="#E5E7FA"/>
<circle cx="124.174" cy="352.861" r="9.31304" fill="url(#paint12_linear)"/>
<path d="M120.33 351.982L120.02 352.982H121.99L121.68 351.982C121.56 351.615 121.447 351.252 121.34 350.892C121.234 350.525 121.127 350.152 121.02 349.772H120.98C120.88 350.152 120.777 350.525 120.67 350.892C120.564 351.252 120.45 351.615 120.33 351.982ZM118.33 355.652L120.55 349.092H121.49L123.71 355.652H122.82L122.2 353.652H119.81L119.18 355.652H118.33ZM125.914 355.772C125.507 355.772 125.167 355.652 124.894 355.412C124.627 355.172 124.494 354.832 124.494 354.392C124.494 353.859 124.731 353.452 125.204 353.172C125.677 352.885 126.434 352.685 127.474 352.572C127.474 352.419 127.457 352.269 127.424 352.122C127.397 351.975 127.347 351.845 127.274 351.732C127.201 351.619 127.097 351.529 126.964 351.462C126.837 351.389 126.674 351.352 126.474 351.352C126.194 351.352 125.931 351.405 125.684 351.512C125.437 351.619 125.217 351.739 125.024 351.872L124.704 351.302C124.931 351.155 125.207 351.015 125.534 350.882C125.861 350.742 126.221 350.672 126.614 350.672C127.207 350.672 127.637 350.855 127.904 351.222C128.171 351.582 128.304 352.065 128.304 352.672V355.652H127.624L127.554 355.072H127.524C127.291 355.265 127.041 355.432 126.774 355.572C126.507 355.705 126.221 355.772 125.914 355.772ZM126.154 355.112C126.387 355.112 126.607 355.059 126.814 354.952C127.021 354.839 127.241 354.675 127.474 354.462V353.112C127.067 353.165 126.724 353.229 126.444 353.302C126.171 353.375 125.947 353.462 125.774 353.562C125.607 353.662 125.484 353.779 125.404 353.912C125.331 354.039 125.294 354.179 125.294 354.332C125.294 354.612 125.377 354.812 125.544 354.932C125.711 355.052 125.914 355.112 126.154 355.112Z" fill="white"/>
<circle cx="238" cy="238" r="173.843" stroke="#E5E7FA"/>
<circle cx="346.652" cy="101.409" r="9.31304" fill="url(#paint13_linear)"/>
<path d="M342.808 100.53L342.498 101.53H344.468L344.158 100.53C344.038 100.163 343.925 99.8 343.818 99.44C343.712 99.0733 343.605 98.7 343.498 98.32H343.458C343.358 98.7 343.255 99.0733 343.148 99.44C343.042 99.8 342.928 100.163 342.808 100.53ZM340.808 104.2L343.028 97.64H343.968L346.188 104.2H345.298L344.678 102.2H342.288L341.658 104.2H340.808ZM348.392 104.32C347.985 104.32 347.645 104.2 347.372 103.96C347.105 103.72 346.972 103.38 346.972 102.94C346.972 102.407 347.209 102 347.682 101.72C348.155 101.433 348.912 101.233 349.952 101.12C349.952 100.967 349.935 100.817 349.902 100.67C349.875 100.523 349.825 100.393 349.752 100.28C349.679 100.167 349.575 100.077 349.442 100.01C349.315 99.9366 349.152 99.9 348.952 99.9C348.672 99.9 348.409 99.9533 348.162 100.06C347.915 100.167 347.695 100.287 347.502 100.42L347.182 99.85C347.409 99.7033 347.685 99.5633 348.012 99.43C348.339 99.29 348.699 99.22 349.092 99.22C349.685 99.22 350.115 99.4033 350.382 99.77C350.649 100.13 350.782 100.613 350.782 101.22V104.2H350.102L350.032 103.62H350.002C349.769 103.813 349.519 103.98 349.252 104.12C348.985 104.253 348.699 104.32 348.392 104.32ZM348.632 103.66C348.865 103.66 349.085 103.607 349.292 103.5C349.499 103.387 349.719 103.223 349.952 103.01V101.66C349.545 101.713 349.202 101.777 348.922 101.85C348.649 101.923 348.425 102.01 348.252 102.11C348.085 102.21 347.962 102.327 347.882 102.46C347.809 102.587 347.772 102.727 347.772 102.88C347.772 103.16 347.855 103.36 348.022 103.48C348.189 103.6 348.392 103.66 348.632 103.66Z" fill="white"/>
<circle cx="235.054" cy="248.995" r="9.31304" fill="url(#paint14_linear)"/>
<path d="M232.152 248.116L231.842 249.116L233.812 249.116L233.502 248.116C233.382 247.749 233.269 247.386 233.162 247.026C233.056 246.659 232.949 246.286 232.842 245.906L232.802 245.906C232.702 246.286 232.599 246.659 232.492 247.026C232.386 247.386 232.272 247.749 232.152 248.116ZM230.152 251.786L232.372 245.226L233.312 245.226L235.532 251.786L234.642 251.786L234.022 249.786L231.632 249.786L231.002 251.786L230.152 251.786ZM237.886 251.906C237.54 251.906 237.21 251.843 236.896 251.716C236.583 251.589 236.31 251.429 236.076 251.236L236.486 250.686C236.7 250.859 236.916 250.999 237.136 251.106C237.363 251.213 237.623 251.266 237.916 251.266C238.236 251.266 238.476 251.193 238.636 251.046C238.796 250.899 238.876 250.719 238.876 250.506C238.876 250.379 238.843 250.269 238.776 250.176C238.71 250.083 238.623 250.003 238.516 249.936C238.416 249.863 238.3 249.799 238.166 249.746C238.033 249.693 237.9 249.639 237.766 249.586C237.593 249.526 237.42 249.459 237.246 249.386C237.073 249.306 236.916 249.213 236.776 249.106C236.643 248.993 236.533 248.863 236.446 248.716C236.36 248.569 236.316 248.393 236.316 248.186C236.316 247.993 236.353 247.813 236.426 247.646C236.506 247.473 236.616 247.326 236.756 247.206C236.903 247.079 237.08 246.983 237.286 246.916C237.493 246.843 237.726 246.806 237.986 246.806C238.293 246.806 238.573 246.859 238.826 246.966C239.086 247.073 239.31 247.203 239.496 247.356L239.106 247.876C238.94 247.749 238.766 247.646 238.586 247.566C238.406 247.486 238.21 247.446 237.996 247.446C237.69 247.446 237.463 247.516 237.316 247.656C237.176 247.796 237.106 247.959 237.106 248.146C237.106 248.259 237.136 248.359 237.196 248.446C237.256 248.526 237.336 248.599 237.436 248.666C237.536 248.726 237.65 248.783 237.776 248.836C237.91 248.883 238.046 248.933 238.186 248.986C238.36 249.053 238.533 249.123 238.706 249.196C238.886 249.269 239.046 249.363 239.186 249.476C239.326 249.583 239.44 249.716 239.526 249.876C239.62 250.036 239.666 250.229 239.666 250.456C239.666 250.656 239.626 250.843 239.546 251.016C239.473 251.189 239.36 251.343 239.206 251.476C239.06 251.609 238.873 251.713 238.646 251.786C238.426 251.866 238.173 251.906 237.886 251.906Z" fill="white"/>
<circle cx="221.491" cy="219.65" r="9.31304" fill="url(#paint15_linear)"/>
<path d="M216.566 222.441L216.566 215.881L217.566 215.881L218.826 219.381C218.906 219.608 218.982 219.838 219.056 220.071C219.136 220.298 219.216 220.524 219.296 220.751L219.336 220.751C219.416 220.524 219.489 220.298 219.556 220.071C219.629 219.838 219.706 219.608 219.786 219.381L221.026 215.881L222.036 215.881L222.036 222.441L221.256 222.441L221.256 218.831C221.256 218.538 221.269 218.214 221.296 217.861C221.322 217.508 221.346 217.184 221.366 216.891L221.326 216.891L220.806 218.381L219.566 221.781L219.016 221.781L217.776 218.381L217.256 216.891L217.216 216.891C217.236 217.184 217.256 217.508 217.276 217.861C217.302 218.214 217.316 218.538 217.316 218.831L217.316 222.441L216.566 222.441ZM225.641 222.561C225.341 222.561 225.055 222.504 224.781 222.391C224.515 222.278 224.278 222.114 224.071 221.901C223.865 221.681 223.698 221.414 223.571 221.101C223.451 220.781 223.391 220.421 223.391 220.021C223.391 219.614 223.451 219.254 223.571 218.941C223.698 218.621 223.865 218.351 224.071 218.131C224.278 217.911 224.515 217.744 224.781 217.631C225.055 217.518 225.341 217.461 225.641 217.461C225.941 217.461 226.225 217.518 226.491 217.631C226.765 217.744 227.005 217.911 227.211 218.131C227.418 218.351 227.581 218.621 227.701 218.941C227.828 219.254 227.891 219.614 227.891 220.021C227.891 220.421 227.828 220.781 227.701 221.101C227.581 221.414 227.418 221.681 227.211 221.901C227.005 222.114 226.765 222.278 226.491 222.391C226.225 222.504 225.941 222.561 225.641 222.561ZM225.641 221.881C225.848 221.881 226.038 221.838 226.211 221.751C226.385 221.658 226.531 221.531 226.651 221.371C226.778 221.204 226.875 221.008 226.941 220.781C227.008 220.554 227.041 220.301 227.041 220.021C227.041 219.741 227.008 219.488 226.941 219.261C226.875 219.028 226.778 218.828 226.651 218.661C226.531 218.494 226.385 218.368 226.211 218.281C226.038 218.188 225.848 218.141 225.641 218.141C225.435 218.141 225.245 218.188 225.071 218.281C224.898 218.368 224.748 218.494 224.621 218.661C224.501 218.828 224.408 219.028 224.341 219.261C224.275 219.488 224.241 219.741 224.241 220.021C224.241 220.301 224.275 220.554 224.341 220.781C224.408 221.008 224.501 221.204 224.621 221.371C224.748 221.531 224.898 221.658 225.071 221.751C225.245 221.838 225.435 221.881 225.641 221.881Z" fill="white"/>
<circle cx="247.641" cy="202.017" r="9.31304" fill="url(#paint16_linear)"/>
<path d="M245.488 204.928C245.028 204.928 244.602 204.842 244.208 204.668C243.815 204.495 243.475 204.258 243.188 203.958L243.688 203.378C243.922 203.625 244.195 203.825 244.508 203.978C244.828 204.125 245.158 204.198 245.498 204.198C245.932 204.198 246.268 204.102 246.508 203.908C246.748 203.708 246.868 203.448 246.868 203.128C246.868 202.962 246.838 202.822 246.778 202.708C246.725 202.588 246.648 202.488 246.548 202.408C246.455 202.322 246.342 202.245 246.208 202.178C246.075 202.112 245.932 202.042 245.778 201.968L244.838 201.558C244.685 201.492 244.528 201.412 244.368 201.318C244.208 201.225 244.065 201.112 243.938 200.978C243.812 200.845 243.708 200.688 243.628 200.508C243.548 200.322 243.508 200.108 243.508 199.868C243.508 199.622 243.558 199.392 243.658 199.178C243.765 198.965 243.908 198.782 244.088 198.628C244.275 198.468 244.492 198.345 244.738 198.258C244.992 198.172 245.268 198.128 245.568 198.128C245.962 198.128 246.325 198.205 246.658 198.358C246.992 198.505 247.275 198.698 247.508 198.938L247.058 199.478C246.858 199.285 246.635 199.135 246.388 199.028C246.148 198.915 245.875 198.858 245.568 198.858C245.202 198.858 244.905 198.945 244.678 199.118C244.458 199.285 244.348 199.518 244.348 199.818C244.348 199.978 244.378 200.115 244.438 200.228C244.505 200.335 244.592 200.432 244.698 200.518C244.805 200.598 244.922 200.672 245.048 200.738C245.175 200.798 245.305 200.855 245.438 200.908L246.368 201.308C246.555 201.388 246.732 201.482 246.898 201.588C247.065 201.688 247.208 201.808 247.328 201.948C247.448 202.082 247.542 202.242 247.608 202.428C247.682 202.608 247.718 202.818 247.718 203.058C247.718 203.318 247.665 203.562 247.558 203.788C247.458 204.015 247.312 204.215 247.118 204.388C246.925 204.555 246.692 204.688 246.418 204.788C246.145 204.882 245.835 204.928 245.488 204.928ZM250.35 204.928C249.83 204.928 249.45 204.768 249.21 204.448C248.977 204.128 248.86 203.655 248.86 203.028L248.86 199.948L249.69 199.948L249.69 202.918C249.69 203.378 249.76 203.712 249.9 203.918C250.047 204.118 250.28 204.218 250.6 204.218C250.853 204.218 251.077 204.155 251.27 204.028C251.463 203.895 251.677 203.685 251.91 203.398L251.91 199.948L252.73 199.948L252.73 204.808L252.05 204.808L251.98 204.048L251.95 204.048C251.723 204.315 251.483 204.528 251.23 204.688C250.983 204.848 250.69 204.928 250.35 204.928Z" fill="white"/>
<circle cx="277.895" cy="209.052" r="9.31304" fill="url(#paint17_linear)"/>
<path d="M273.199 211.844L273.199 205.284L274.199 205.284L275.459 208.784C275.539 209.01 275.616 209.24 275.689 209.474C275.769 209.7 275.849 209.927 275.929 210.154L275.969 210.154C276.049 209.927 276.122 209.7 276.189 209.474C276.262 209.24 276.339 209.01 276.419 208.784L277.659 205.284L278.669 205.284L278.669 211.844L277.889 211.844L277.889 208.234C277.889 207.94 277.902 207.617 277.929 207.264C277.956 206.91 277.979 206.587 277.999 206.294L277.959 206.294L277.439 207.784L276.199 211.184L275.649 211.184L274.409 207.784L273.889 206.294L273.849 206.294C273.869 206.587 273.889 206.91 273.909 207.264C273.936 207.617 273.949 207.94 273.949 208.234L273.949 211.844L273.199 211.844ZM282.355 211.964C282.028 211.964 281.721 211.907 281.435 211.794C281.155 211.674 280.908 211.507 280.695 211.294C280.488 211.074 280.325 210.807 280.205 210.494C280.085 210.18 280.025 209.824 280.025 209.424C280.025 209.024 280.085 208.667 280.205 208.354C280.331 208.034 280.495 207.764 280.695 207.544C280.901 207.324 281.135 207.157 281.395 207.044C281.655 206.924 281.925 206.864 282.205 206.864C282.511 206.864 282.785 206.917 283.025 207.024C283.271 207.13 283.475 207.284 283.635 207.484C283.801 207.684 283.928 207.924 284.015 208.204C284.101 208.484 284.145 208.797 284.145 209.144C284.145 209.23 284.141 209.317 284.135 209.404C284.135 209.484 284.128 209.554 284.115 209.614L280.835 209.614C280.868 210.134 281.028 210.547 281.315 210.854C281.608 211.154 281.988 211.304 282.455 211.304C282.688 211.304 282.901 211.27 283.095 211.204C283.295 211.13 283.485 211.037 283.665 210.924L283.955 211.464C283.741 211.597 283.505 211.714 283.245 211.814C282.985 211.914 282.688 211.964 282.355 211.964ZM280.825 209.024L283.425 209.024C283.425 208.53 283.318 208.157 283.105 207.904C282.898 207.644 282.605 207.514 282.225 207.514C282.051 207.514 281.885 207.547 281.725 207.614C281.571 207.68 281.431 207.78 281.305 207.914C281.178 208.04 281.071 208.197 280.985 208.384C280.905 208.57 280.851 208.784 280.825 209.024Z" fill="white"/>
<circle cx="300.061" cy="234.275" r="9.31304" fill="url(#paint18_linear)"/>
<path d="M297.181 237.066L295.081 230.506L295.971 230.506L297.021 234.046C297.141 234.439 297.244 234.803 297.331 235.136C297.424 235.469 297.534 235.829 297.661 236.216L297.701 236.216C297.821 235.829 297.928 235.469 298.021 235.136C298.114 234.803 298.218 234.439 298.331 234.046L299.381 230.506L300.231 230.506L298.151 237.066L297.181 237.066ZM302.871 237.186C302.544 237.186 302.238 237.129 301.951 237.016C301.671 236.896 301.424 236.729 301.211 236.516C301.004 236.296 300.841 236.029 300.721 235.716C300.601 235.403 300.541 235.046 300.541 234.646C300.541 234.246 300.601 233.889 300.721 233.576C300.848 233.256 301.011 232.986 301.211 232.766C301.418 232.546 301.651 232.379 301.911 232.266C302.171 232.146 302.441 232.086 302.721 232.086C303.028 232.086 303.301 232.139 303.541 232.246C303.788 232.353 303.991 232.506 304.151 232.706C304.318 232.906 304.444 233.146 304.531 233.426C304.618 233.706 304.661 234.019 304.661 234.366C304.661 234.453 304.658 234.539 304.651 234.626C304.651 234.706 304.644 234.776 304.631 234.836L301.351 234.836C301.384 235.356 301.544 235.769 301.831 236.076C302.124 236.376 302.504 236.526 302.971 236.526C303.204 236.526 303.418 236.493 303.611 236.426C303.811 236.353 304.001 236.259 304.181 236.146L304.471 236.686C304.258 236.819 304.021 236.936 303.761 237.036C303.501 237.136 303.204 237.186 302.871 237.186ZM301.341 234.246L303.941 234.246C303.941 233.753 303.834 233.379 303.621 233.126C303.414 232.866 303.121 232.736 302.741 232.736C302.568 232.736 302.401 232.769 302.241 232.836C302.088 232.903 301.948 233.003 301.821 233.136C301.694 233.263 301.588 233.419 301.501 233.606C301.421 233.793 301.368 234.006 301.341 234.246Z" fill="white"/>
<circle cx="231.224" cy="163.337" r="9.31304" fill="url(#paint19_linear)"/>
<path d="M226.489 166.128L226.489 159.568L227.489 159.568L228.749 163.068C228.829 163.295 228.906 163.525 228.979 163.758C229.059 163.985 229.139 164.211 229.219 164.438L229.259 164.438C229.339 164.211 229.412 163.985 229.479 163.758C229.552 163.525 229.629 163.295 229.709 163.068L230.949 159.568L231.959 159.568L231.959 166.128L231.179 166.128L231.179 162.518C231.179 162.225 231.192 161.901 231.219 161.548C231.246 161.195 231.269 160.871 231.289 160.578L231.249 160.578L230.729 162.068L229.489 165.468L228.939 165.468L227.699 162.068L227.179 160.578L227.139 160.578C227.159 160.871 227.179 161.195 227.199 161.548C227.226 161.901 227.239 162.225 227.239 162.518L227.239 166.128L226.489 166.128ZM234.795 166.248C234.388 166.248 234.048 166.128 233.775 165.888C233.508 165.648 233.375 165.308 233.375 164.868C233.375 164.335 233.611 163.928 234.085 163.648C234.558 163.361 235.315 163.161 236.355 163.048C236.355 162.895 236.338 162.745 236.305 162.598C236.278 162.451 236.228 162.321 236.155 162.208C236.081 162.095 235.978 162.005 235.845 161.938C235.718 161.865 235.555 161.828 235.355 161.828C235.075 161.828 234.811 161.881 234.565 161.988C234.318 162.095 234.098 162.215 233.905 162.348L233.585 161.778C233.811 161.631 234.088 161.491 234.415 161.358C234.741 161.218 235.101 161.148 235.495 161.148C236.088 161.148 236.518 161.331 236.785 161.698C237.051 162.058 237.185 162.541 237.185 163.148L237.185 166.128L236.505 166.128L236.435 165.548L236.405 165.548C236.171 165.741 235.921 165.908 235.655 166.048C235.388 166.181 235.101 166.248 234.795 166.248ZM235.035 165.588C235.268 165.588 235.488 165.535 235.695 165.428C235.901 165.315 236.121 165.151 236.355 164.938L236.355 163.588C235.948 163.641 235.605 163.705 235.325 163.778C235.051 163.851 234.828 163.938 234.655 164.038C234.488 164.138 234.365 164.255 234.285 164.388C234.211 164.515 234.175 164.655 234.175 164.808C234.175 165.088 234.258 165.288 234.425 165.408C234.591 165.528 234.795 165.588 235.035 165.588Z" fill="white"/>
<circle cx="280.684" cy="162.663" r="9.31304" fill="url(#paint20_linear)"/>
<path d="M278.199 165.574C277.379 165.574 276.775 165.224 276.389 164.524L276.989 164.104C277.135 164.364 277.302 164.554 277.489 164.674C277.675 164.787 277.885 164.844 278.119 164.844C278.472 164.844 278.735 164.737 278.909 164.524C279.082 164.304 279.169 163.944 279.169 163.444L279.169 158.894L280.009 158.894L280.009 163.524C280.009 163.804 279.972 164.071 279.899 164.324C279.832 164.571 279.725 164.787 279.579 164.974C279.439 165.161 279.252 165.307 279.019 165.414C278.792 165.521 278.519 165.574 278.199 165.574ZM283.123 165.574C282.603 165.574 282.223 165.414 281.983 165.094C281.75 164.774 281.633 164.301 281.633 163.674L281.633 160.594L282.463 160.594L282.463 163.564C282.463 164.024 282.533 164.357 282.673 164.564C282.82 164.764 283.053 164.864 283.373 164.864C283.627 164.864 283.85 164.801 284.043 164.674C284.237 164.541 284.45 164.331 284.683 164.044L284.683 160.594L285.503 160.594L285.503 165.454L284.823 165.454L284.753 164.694L284.723 164.694C284.497 164.961 284.257 165.174 284.003 165.334C283.757 165.494 283.463 165.574 283.123 165.574Z" fill="white"/>
<circle cx="324.911" cy="189.512" r="9.31304" fill="url(#paint21_linear)"/>
<path d="M322.958 192.423C322.498 192.423 322.072 192.336 321.678 192.163C321.285 191.989 320.945 191.753 320.658 191.453L321.158 190.873C321.392 191.119 321.665 191.319 321.978 191.473C322.298 191.619 322.628 191.693 322.968 191.693C323.402 191.693 323.738 191.596 323.978 191.403C324.218 191.203 324.338 190.943 324.338 190.623C324.338 190.456 324.308 190.316 324.248 190.203C324.195 190.083 324.118 189.983 324.018 189.903C323.925 189.816 323.812 189.739 323.678 189.673C323.545 189.606 323.402 189.536 323.248 189.463L322.308 189.053C322.155 188.986 321.998 188.906 321.838 188.813C321.678 188.719 321.535 188.606 321.408 188.473C321.282 188.339 321.178 188.183 321.098 188.003C321.018 187.816 320.978 187.603 320.978 187.363C320.978 187.116 321.028 186.886 321.128 186.673C321.235 186.459 321.378 186.276 321.558 186.123C321.745 185.963 321.962 185.839 322.208 185.753C322.462 185.666 322.738 185.623 323.038 185.623C323.432 185.623 323.795 185.699 324.128 185.853C324.462 185.999 324.745 186.193 324.978 186.433L324.528 186.973C324.328 186.779 324.105 186.629 323.858 186.523C323.618 186.409 323.345 186.353 323.038 186.353C322.672 186.353 322.375 186.439 322.148 186.613C321.928 186.779 321.818 187.013 321.818 187.313C321.818 187.473 321.848 187.609 321.908 187.723C321.975 187.829 322.062 187.926 322.168 188.013C322.275 188.093 322.392 188.166 322.518 188.233C322.645 188.293 322.775 188.349 322.908 188.403L323.838 188.803C324.025 188.883 324.202 188.976 324.368 189.083C324.535 189.183 324.678 189.303 324.798 189.443C324.918 189.576 325.012 189.736 325.078 189.923C325.152 190.103 325.188 190.313 325.188 190.553C325.188 190.813 325.135 191.056 325.028 191.283C324.928 191.509 324.782 191.709 324.588 191.883C324.395 192.049 324.162 192.183 323.888 192.283C323.615 192.376 323.305 192.423 322.958 192.423ZM327.52 192.423C327.113 192.423 326.773 192.303 326.5 192.063C326.233 191.823 326.1 191.483 326.1 191.043C326.1 190.509 326.337 190.103 326.81 189.823C327.283 189.536 328.04 189.336 329.08 189.223C329.08 189.069 329.063 188.919 329.03 188.773C329.003 188.626 328.953 188.496 328.88 188.383C328.807 188.269 328.703 188.179 328.57 188.113C328.443 188.039 328.28 188.003 328.08 188.003C327.8 188.003 327.537 188.056 327.29 188.163C327.043 188.269 326.823 188.389 326.63 188.523L326.31 187.953C326.537 187.806 326.813 187.666 327.14 187.533C327.467 187.393 327.827 187.323 328.22 187.323C328.813 187.323 329.243 187.506 329.51 187.873C329.777 188.233 329.91 188.716 329.91 189.323L329.91 192.303L329.23 192.303L329.16 191.723L329.13 191.723C328.897 191.916 328.647 192.083 328.38 192.223C328.113 192.356 327.827 192.423 327.52 192.423ZM327.76 191.763C327.993 191.763 328.213 191.709 328.42 191.603C328.627 191.489 328.847 191.326 329.08 191.113L329.08 189.763C328.673 189.816 328.33 189.879 328.05 189.953C327.777 190.026 327.553 190.113 327.38 190.213C327.213 190.313 327.09 190.429 327.01 190.563C326.937 190.689 326.9 190.829 326.9 190.983C326.9 191.263 326.983 191.463 327.15 191.583C327.317 191.703 327.52 191.763 327.76 191.763Z" fill="white"/>
<circle cx="336.522" cy="290.11" r="9.31304" fill="url(#paint22_linear)"/>
<path d="M334.796 293.021C334.463 293.021 334.149 292.974 333.856 292.881C333.569 292.781 333.319 292.621 333.106 292.401C332.899 292.174 332.736 291.881 332.616 291.521C332.496 291.161 332.436 290.718 332.436 290.191L332.436 286.341L333.266 286.341L333.266 290.211C333.266 290.604 333.306 290.934 333.386 291.201C333.466 291.468 333.573 291.681 333.706 291.841C333.846 292.001 334.009 292.118 334.196 292.191C334.383 292.258 334.583 292.291 334.796 292.291C335.016 292.291 335.219 292.258 335.406 292.191C335.593 292.118 335.756 292.001 335.896 291.841C336.036 291.681 336.146 291.468 336.226 291.201C336.306 290.934 336.346 290.604 336.346 290.211L336.346 286.341L337.146 286.341L337.146 290.191C337.146 290.718 337.086 291.161 336.966 291.521C336.846 291.881 336.679 292.174 336.466 292.401C336.259 292.621 336.013 292.781 335.726 292.881C335.439 292.974 335.129 293.021 334.796 293.021ZM338.831 292.901L338.831 288.041L339.511 288.041L339.581 288.921L339.611 288.921C339.778 288.614 339.978 288.371 340.211 288.191C340.451 288.011 340.711 287.921 340.991 287.921C341.185 287.921 341.358 287.954 341.511 288.021L341.351 288.741C341.271 288.714 341.198 288.694 341.131 288.681C341.065 288.668 340.981 288.661 340.881 288.661C340.675 288.661 340.458 288.744 340.231 288.911C340.011 289.078 339.818 289.368 339.651 289.781L339.651 292.901L338.831 292.901Z" fill="white"/>
<circle cx="213.95" cy="115.857" r="9.31304" fill="url(#paint23_linear)"/>
<path d="M209.132 118.648L209.132 112.088L209.992 112.088L212.362 116.208L213.072 117.568L213.112 117.568C213.092 117.235 213.069 116.892 213.042 116.538C213.022 116.178 213.012 115.825 213.012 115.478L213.012 112.088L213.802 112.088L213.802 118.648L212.942 118.648L210.562 114.518L209.852 113.168L209.812 113.168C209.839 113.502 209.862 113.842 209.882 114.188C209.909 114.528 209.922 114.872 209.922 115.218L209.922 118.648L209.132 118.648ZM217.497 118.768C217.17 118.768 216.863 118.712 216.577 118.598C216.297 118.478 216.05 118.312 215.837 118.098C215.63 117.878 215.467 117.612 215.347 117.298C215.227 116.985 215.167 116.628 215.167 116.228C215.167 115.828 215.227 115.472 215.347 115.158C215.473 114.838 215.637 114.568 215.837 114.348C216.043 114.128 216.277 113.962 216.537 113.848C216.797 113.728 217.067 113.668 217.347 113.668C217.653 113.668 217.927 113.722 218.167 113.828C218.413 113.935 218.617 114.088 218.777 114.288C218.943 114.488 219.07 114.728 219.157 115.008C219.243 115.288 219.287 115.602 219.287 115.948C219.287 116.035 219.283 116.122 219.277 116.208C219.277 116.288 219.27 116.358 219.257 116.418L215.977 116.418C216.01 116.938 216.17 117.352 216.457 117.658C216.75 117.958 217.13 118.108 217.597 118.108C217.83 118.108 218.043 118.075 218.237 118.008C218.437 117.935 218.627 117.842 218.807 117.728L219.097 118.268C218.883 118.402 218.647 118.518 218.387 118.618C218.127 118.718 217.83 118.768 217.497 118.768ZM215.967 115.828L218.567 115.828C218.567 115.335 218.46 114.962 218.247 114.708C218.04 114.448 217.747 114.318 217.367 114.318C217.193 114.318 217.027 114.352 216.867 114.418C216.713 114.485 216.573 114.585 216.447 114.718C216.32 114.845 216.213 115.002 216.127 115.188C216.047 115.375 215.993 115.588 215.967 115.828Z" fill="white"/>
<circle cx="220.966" cy="101.668" r="9.31304" fill="url(#paint24_linear)"/>
<path d="M218.277 104.459L218.277 97.8987L220.147 97.8987C220.513 97.8987 220.847 97.9321 221.147 97.9987C221.453 98.0654 221.713 98.1754 221.927 98.3287C222.14 98.4754 222.307 98.6721 222.427 98.9187C222.547 99.1654 222.607 99.4687 222.607 99.8287C222.607 100.175 222.547 100.475 222.427 100.729C222.313 100.982 222.15 101.192 221.937 101.359C221.723 101.525 221.467 101.652 221.167 101.739C220.873 101.819 220.547 101.859 220.187 101.859L219.107 101.859L219.107 104.459L218.277 104.459ZM219.107 101.179L220.087 101.179C220.66 101.179 221.083 101.072 221.357 100.859C221.637 100.639 221.777 100.295 221.777 99.8287C221.777 99.3554 221.63 99.0287 221.337 98.8487C221.05 98.6621 220.62 98.5687 220.047 98.5687L219.107 98.5687L219.107 101.179ZM224.731 104.579C224.417 104.579 224.194 104.485 224.061 104.299C223.927 104.112 223.861 103.839 223.861 103.479L223.861 97.3387L224.681 97.3387L224.681 103.539C224.681 103.672 224.704 103.765 224.751 103.819C224.797 103.872 224.851 103.899 224.911 103.899C224.937 103.899 224.961 103.899 224.981 103.899C225.007 103.899 225.044 103.892 225.091 103.879L225.201 104.499C225.147 104.525 225.084 104.545 225.011 104.559C224.937 104.572 224.844 104.579 224.731 104.579Z" fill="white"/>
<circle cx="385.667" cy="218.647" r="9.31304" fill="url(#paint25_linear)"/>
<path d="M381.823 217.768L381.513 218.768L383.483 218.768L383.173 217.768C383.053 217.401 382.94 217.038 382.833 216.678C382.726 216.311 382.62 215.938 382.513 215.558L382.473 215.558C382.373 215.938 382.27 216.311 382.163 216.678C382.056 217.038 381.943 217.401 381.823 217.768ZM379.823 221.438L382.043 214.878L382.983 214.878L385.203 221.438L384.313 221.438L383.693 219.438L381.303 219.438L380.673 221.438L379.823 221.438ZM387.407 221.558C387 221.558 386.66 221.438 386.387 221.198C386.12 220.958 385.987 220.618 385.987 220.178C385.987 219.644 386.223 219.238 386.697 218.958C387.17 218.671 387.927 218.471 388.967 218.358C388.967 218.204 388.95 218.054 388.917 217.908C388.89 217.761 388.84 217.631 388.767 217.518C388.693 217.404 388.59 217.314 388.457 217.248C388.33 217.174 388.167 217.138 387.967 217.138C387.687 217.138 387.423 217.191 387.177 217.298C386.93 217.404 386.71 217.524 386.517 217.658L386.197 217.088C386.423 216.941 386.7 216.801 387.027 216.668C387.353 216.528 387.713 216.458 388.107 216.458C388.7 216.458 389.13 216.641 389.397 217.008C389.663 217.368 389.797 217.851 389.797 218.458L389.797 221.438L389.117 221.438L389.047 220.858L389.017 220.858C388.783 221.051 388.533 221.218 388.267 221.358C388 221.491 387.713 221.558 387.407 221.558ZM387.647 220.898C387.88 220.898 388.1 220.844 388.307 220.738C388.513 220.624 388.733 220.461 388.967 220.248L388.967 218.898C388.56 218.951 388.217 219.014 387.937 219.088C387.663 219.161 387.44 219.248 387.267 219.348C387.1 219.448 386.977 219.564 386.897 219.698C386.823 219.824 386.787 219.964 386.787 220.118C386.787 220.398 386.87 220.598 387.037 220.718C387.203 220.838 387.407 220.898 387.647 220.898Z" fill="white"/>
<circle cx="319.487" cy="377.676" r="9.31304" fill="url(#paint26_linear)"/>
<path d="M315.643 376.797L315.333 377.797L317.303 377.797L316.993 376.797C316.873 376.43 316.759 376.067 316.653 375.707C316.546 375.34 316.439 374.967 316.333 374.587L316.293 374.587C316.193 374.967 316.089 375.34 315.983 375.707C315.876 376.067 315.763 376.43 315.643 376.797ZM313.643 380.467L315.863 373.907L316.803 373.907L319.023 380.467L318.133 380.467L317.513 378.467L315.123 378.467L314.493 380.467L313.643 380.467ZM321.227 380.587C320.82 380.587 320.48 380.467 320.207 380.227C319.94 379.987 319.807 379.647 319.807 379.207C319.807 378.673 320.043 378.267 320.517 377.987C320.99 377.7 321.747 377.5 322.787 377.387C322.787 377.233 322.77 377.083 322.737 376.937C322.71 376.79 322.66 376.66 322.587 376.547C322.513 376.433 322.41 376.343 322.277 376.277C322.15 376.203 321.987 376.167 321.787 376.167C321.507 376.167 321.243 376.22 320.997 376.327C320.75 376.433 320.53 376.553 320.337 376.687L320.017 376.117C320.243 375.97 320.52 375.83 320.847 375.697C321.173 375.557 321.533 375.487 321.927 375.487C322.52 375.487 322.95 375.67 323.217 376.037C323.483 376.397 323.617 376.88 323.617 377.487L323.617 380.467L322.937 380.467L322.867 379.887L322.837 379.887C322.603 380.08 322.353 380.247 322.087 380.387C321.82 380.52 321.533 380.587 321.227 380.587ZM321.467 379.927C321.7 379.927 321.92 379.873 322.127 379.767C322.333 379.653 322.553 379.49 322.787 379.277L322.787 377.927C322.38 377.98 322.037 378.043 321.757 378.117C321.483 378.19 321.26 378.277 321.087 378.377C320.92 378.477 320.797 378.593 320.717 378.727C320.643 378.853 320.607 378.993 320.607 379.147C320.607 379.427 320.69 379.627 320.857 379.747C321.023 379.867 321.227 379.927 321.467 379.927Z" fill="white"/>
<circle cx="134.184" cy="97.6976" r="9.31304" fill="url(#paint27_linear)"/>
<path d="M130.34 96.8188L130.03 97.8188L132 97.8188L131.69 96.8188C131.57 96.4521 131.457 96.0888 131.35 95.7288C131.244 95.3621 131.137 94.9888 131.03 94.6088L130.99 94.6088C130.89 94.9888 130.787 95.3621 130.68 95.7288C130.574 96.0888 130.46 96.4521 130.34 96.8188ZM128.34 100.489L130.56 93.9288L131.5 93.9288L133.72 100.489L132.83 100.489L132.21 98.4888L129.82 98.4888L129.19 100.489L128.34 100.489ZM135.924 100.609C135.518 100.609 135.178 100.489 134.904 100.249C134.638 100.009 134.504 99.6688 134.504 99.2288C134.504 98.6954 134.741 98.2888 135.214 98.0088C135.688 97.7221 136.444 97.5221 137.484 97.4088C137.484 97.2554 137.468 97.1054 137.434 96.9588C137.408 96.8121 137.358 96.6821 137.284 96.5688C137.211 96.4554 137.108 96.3654 136.974 96.2988C136.848 96.2254 136.684 96.1888 136.484 96.1888C136.204 96.1888 135.941 96.2421 135.694 96.3488C135.448 96.4554 135.228 96.5754 135.034 96.7088L134.714 96.1388C134.941 95.9921 135.218 95.8521 135.544 95.7188C135.871 95.5788 136.231 95.5088 136.624 95.5088C137.218 95.5088 137.648 95.6921 137.914 96.0588C138.181 96.4188 138.314 96.9021 138.314 97.5088L138.314 100.489L137.634 100.489L137.564 99.9088L137.534 99.9088C137.301 100.102 137.051 100.269 136.784 100.409C136.518 100.542 136.231 100.609 135.924 100.609ZM136.164 99.9488C136.398 99.9488 136.618 99.8954 136.824 99.7888C137.031 99.6754 137.251 99.5121 137.484 99.2988L137.484 97.9488C137.078 98.0021 136.734 98.0654 136.454 98.1388C136.181 98.2121 135.958 98.2988 135.784 98.3988C135.618 98.4988 135.494 98.6154 135.414 98.7488C135.341 98.8754 135.304 99.0154 135.304 99.1688C135.304 99.4488 135.388 99.6488 135.554 99.7688C135.721 99.8888 135.924 99.9488 136.164 99.9488Z" fill="white"/>
<circle cx="238" cy="238" r="197.109" stroke="#3F3356"/>
<circle cx="238" cy="238" r="237.5" stroke="#3F3356"/>
<rect x="237.483" y="434.609" width="1.03478" height="41.3913" fill="#3F3356"/>
<rect x="237.483" width="1.03478" height="41.3913" fill="#3F3356"/>
<rect x="41.3914" y="237.483" width="1.03478" height="41.3913" transform="rotate(90 41.3914 237.483)" fill="#3F3356"/>
<rect x="476" y="237.483" width="1.03478" height="41.3913" transform="rotate(90 476 237.483)" fill="#3F3356"/>
<rect x="67.9905" y="139.248" width="1.03478" height="41.3913" transform="rotate(120 67.9905 139.248)" fill="#3F3356"/>
<rect x="444.373" y="356.552" width="1.03478" height="41.3913" transform="rotate(120 444.373 356.552)" fill="#3F3356"/>
<rect x="140.144" y="67.4731" width="1.03478" height="41.3913" transform="rotate(150 140.144 67.4731)" fill="#3F3356"/>
<rect x="357.448" y="443.855" width="1.03478" height="41.3913" transform="rotate(150 357.448 443.855)" fill="#3F3356"/>
<rect x="139.247" y="408.009" width="1.03478" height="41.3913" transform="rotate(30 139.247 408.009)" fill="#3F3356"/>
<rect x="356.552" y="31.6272" width="1.03478" height="41.3913" transform="rotate(30 356.552 31.6272)" fill="#3F3356"/>
<rect x="67.4731" y="335.856" width="1.03478" height="41.3913" transform="rotate(60 67.4731 335.856)" fill="#3F3356"/>
<rect x="443.855" y="118.552" width="1.03478" height="41.3913" transform="rotate(60 443.855 118.552)" fill="#3F3356"/>
<g clip-path="url(#clip0)">
<path d="M192.65 442.182C192.666 442.006 192.626 441.829 192.538 441.676C192.45 441.523 192.316 441.4 192.156 441.325L185.41 438.179C185.307 438.127 185.194 438.097 185.079 438.09C184.964 438.082 184.849 438.098 184.74 438.136C184.631 438.174 184.531 438.233 184.446 438.311C184.36 438.388 184.291 438.481 184.242 438.586C184.194 438.69 184.166 438.803 184.162 438.919C184.158 439.034 184.176 439.149 184.217 439.256C184.258 439.364 184.32 439.463 184.4 439.546C184.479 439.63 184.575 439.696 184.68 439.742L189.929 442.19L178.112 449.008L175.343 444.21C175.229 444.012 175.04 443.867 174.819 443.808C174.598 443.749 174.362 443.78 174.164 443.894C173.966 444.009 173.821 444.197 173.762 444.418C173.702 444.64 173.733 444.875 173.848 445.074L176.618 449.872L169.709 453.861C169.605 453.914 169.512 453.988 169.438 454.078C169.363 454.169 169.308 454.273 169.275 454.385C169.242 454.497 169.232 454.615 169.246 454.731C169.259 454.847 169.297 454.959 169.355 455.06C169.414 455.162 169.492 455.25 169.586 455.32C169.679 455.39 169.786 455.44 169.9 455.468C170.014 455.495 170.132 455.499 170.247 455.48C170.362 455.46 170.472 455.417 170.571 455.354L177.48 451.365L179.947 455.634C180 455.738 180.074 455.83 180.164 455.904C180.254 455.979 180.358 456.035 180.47 456.068C180.583 456.101 180.7 456.111 180.816 456.097C180.933 456.083 181.045 456.046 181.146 455.987C181.247 455.929 181.336 455.85 181.406 455.757C181.476 455.663 181.526 455.556 181.553 455.442C181.581 455.329 181.585 455.211 181.565 455.095C181.546 454.98 181.503 454.87 181.439 454.772L178.975 450.503L190.788 443.678L190.285 449.444C190.271 449.668 190.346 449.889 190.493 450.059C190.64 450.23 190.847 450.336 191.071 450.355C191.295 450.375 191.518 450.306 191.692 450.164C191.866 450.022 191.978 449.817 192.004 449.593L192.65 442.182Z" fill="#6F51FF"/>
</g>
<g clip-path="url(#clip1)">
<path d="M88.2119 400.028C88.2335 399.92 88.2329 399.809 88.2102 399.701C88.1874 399.594 88.1429 399.492 88.0794 399.402C88.0159 399.312 87.9348 399.236 87.8409 399.179C87.747 399.121 87.6425 399.083 87.5335 399.068C87.4246 399.052 87.3136 399.059 87.2074 399.088C87.1012 399.116 87.0019 399.166 86.9157 399.235C86.8295 399.303 86.7581 399.388 86.706 399.485C86.6538 399.582 86.622 399.689 86.6124 399.798L86.567 400.136C86.4002 399.615 86.4104 398.85 86.6519 398.609L92.3504 392.91C93.5928 391.659 93.5313 389.724 92.2084 388.401C91.8742 388.056 91.4736 387.782 91.0308 387.595C90.588 387.408 90.112 387.312 89.6314 387.314C89.6453 386.847 89.5616 386.382 89.3854 385.95C89.2092 385.517 88.9446 385.126 88.6084 384.801C88.2742 384.456 87.8737 384.182 87.4308 383.995C86.988 383.808 86.512 383.712 86.0314 383.714C86.0454 383.247 85.9616 382.782 85.7854 382.35C85.6093 381.917 85.3446 381.526 85.0085 381.201C83.6504 379.843 81.6295 379.736 80.4031 380.963C80.2514 381.115 80.1661 381.32 80.1661 381.535C80.1661 381.75 80.2514 381.955 80.4031 382.107C80.5549 382.259 80.7607 382.344 80.9753 382.344C81.1899 382.344 81.3958 382.259 81.5475 382.107C82.2002 381.455 83.2407 381.714 83.8685 382.341C84.5621 383.035 84.6104 383.941 83.9958 384.555L78.2973 390.254C78.1456 390.406 78.0603 390.612 78.0603 390.826C78.0603 391.041 78.1456 391.247 78.2973 391.398C78.4491 391.55 78.6549 391.635 78.8695 391.635C79.0841 391.635 79.2899 391.55 79.4417 391.398L85.1402 385.7C85.7929 385.047 86.8333 385.306 87.4611 385.934C88.1548 386.628 88.2031 387.534 87.5885 388.148L81.89 393.847C81.7382 393.998 81.653 394.204 81.653 394.419C81.653 394.633 81.7382 394.839 81.89 394.991C82.0417 395.143 82.2475 395.228 82.4622 395.228C82.6768 395.228 82.8826 395.143 83.0343 394.991L88.7328 389.293C89.3855 388.64 90.426 388.899 91.0538 389.527C91.7474 390.22 91.7957 391.126 91.1811 391.741L85.4826 397.439C84.6046 398.317 84.6397 400.109 85.2558 401.178L84.688 401.178C84.4734 401.178 84.2675 401.264 84.1158 401.415C83.964 401.567 83.8787 401.773 83.8787 401.988C83.8787 402.202 83.964 402.408 84.1158 402.56C84.2675 402.712 84.4734 402.797 84.688 402.797L87.8124 402.822L88.2119 400.028Z" fill="#6F51FF"/>
</g>
<g clip-path="url(#clip2)">
<path d="M29.3054 303.739L28.0734 299.141C29.0317 299.445 30.0542 299.486 31.0338 299.259C32.0133 299.032 32.9138 298.546 33.6408 297.852C34.3678 297.157 34.8945 296.28 35.1658 295.312C35.4371 294.343 35.4429 293.32 35.1827 292.349C34.9225 291.378 34.4058 290.494 33.6867 289.792C32.9677 289.089 32.0728 288.592 31.0959 288.354C30.1191 288.116 29.0961 288.146 28.1344 288.439C27.1727 288.732 26.3076 289.279 25.6298 290.021L24.3978 285.424C24.3731 285.309 24.3255 285.201 24.2578 285.106C24.19 285.011 24.1037 284.93 24.0039 284.869C23.9042 284.808 23.7931 284.768 23.6774 284.752C23.5617 284.735 23.4438 284.742 23.3309 284.772C23.218 284.803 23.1124 284.855 23.0205 284.928C22.9287 285 22.8525 285.09 22.7965 285.193C22.7406 285.295 22.7061 285.408 22.6951 285.525C22.6841 285.641 22.6968 285.759 22.7326 285.87L24.4799 292.391C24.5273 292.568 24.6299 292.725 24.7729 292.84C24.9158 292.955 25.0916 293.021 25.2748 293.029C25.4579 293.038 25.639 292.987 25.7916 292.886C25.9442 292.784 26.0606 292.637 26.1237 292.464C26.4066 291.69 26.9291 291.025 27.6153 290.567C28.3016 290.109 29.1159 289.882 29.94 289.919C30.7641 289.955 31.5552 290.253 32.1984 290.77C32.8416 291.286 33.3035 291.994 33.517 292.791C33.7305 293.588 33.6845 294.432 33.3857 295.201C33.0869 295.97 32.5509 296.623 31.8554 297.067C31.1599 297.511 30.3411 297.721 29.5179 297.668C28.6947 297.614 27.9099 297.3 27.2775 296.77C27.1367 296.654 26.9625 296.585 26.78 296.574C26.5976 296.563 26.4163 296.61 26.2623 296.708C26.1082 296.806 25.9895 296.951 25.9231 297.122C25.8566 297.292 25.846 297.479 25.8927 297.656L27.6421 304.185C27.6668 304.299 27.7145 304.407 27.7822 304.502C27.8499 304.597 27.9362 304.678 28.036 304.739C28.1358 304.8 28.2469 304.84 28.3626 304.856C28.4783 304.873 28.5961 304.866 28.709 304.836C28.822 304.806 28.9275 304.753 29.0194 304.68C29.1112 304.608 29.1875 304.518 29.2434 304.415C29.2994 304.313 29.3339 304.2 29.3449 304.083C29.3559 303.967 29.3431 303.85 29.3073 303.738L29.3054 303.739Z" fill="#6F51FF"/>
<path d="M25.1414 304.855L20.2317 286.531C20.1639 286.32 20.0176 286.144 19.8231 286.038C19.6286 285.931 19.4007 285.904 19.1867 285.962C18.9726 286.019 18.7889 286.156 18.6734 286.346C18.558 286.535 18.5197 286.761 18.5665 286.978L23.4762 305.301C23.5009 305.415 23.5485 305.523 23.6162 305.618C23.6839 305.714 23.7703 305.794 23.87 305.855C23.9698 305.916 24.0809 305.956 24.1966 305.973C24.3123 305.989 24.4302 305.982 24.5431 305.952C24.656 305.922 24.7616 305.869 24.8534 305.797C24.9453 305.724 25.0215 305.634 25.0775 305.532C25.1334 305.429 25.1679 305.316 25.1789 305.2C25.1899 305.083 25.1771 304.966 25.1414 304.855Z" fill="#6F51FF"/>
</g>
<g clip-path="url(#clip3)">
<path d="M20.8477 189.357L22.0749 184.778C22.1163 184.626 22.1991 184.489 22.314 184.381C23.6025 186.324 25.251 188.002 27.1706 189.325C27.8322 189.774 28.3104 190.029 28.6702 190.125C29.0542 190.229 29.4548 190.255 29.8491 190.203C30.2434 190.152 30.6236 190.023 30.9679 189.824C31.3123 189.625 31.6139 189.36 31.8556 189.044C32.0973 188.728 32.2743 188.368 32.3765 187.984C32.4919 187.551 32.5086 187.098 32.4254 186.658L34.7922 187.292C35.4689 187.472 36.1843 187.442 36.8434 187.205C37.5025 186.969 38.0742 186.538 38.4824 185.969C38.8906 185.4 39.116 184.721 39.1288 184.021C39.1415 183.321 38.9409 182.633 38.5537 182.05C39.0313 181.813 39.4474 181.469 39.7694 181.044C40.0914 180.619 40.3104 180.125 40.4092 179.601C40.508 179.078 40.484 178.538 40.3389 178.025C40.1939 177.512 39.9318 177.04 39.5733 176.645C40.1575 176.437 40.7088 176.146 41.2104 175.781L41.2627 175.746C41.3594 175.681 41.4421 175.597 41.5056 175.499C41.5691 175.402 41.6121 175.292 41.6321 175.177C41.6521 175.062 41.6486 174.945 41.6219 174.831C41.5952 174.718 41.5458 174.611 41.4767 174.517C41.4076 174.423 41.3201 174.345 41.2197 174.285C41.1193 174.226 41.0079 174.188 40.8923 174.173C40.7768 174.158 40.6594 174.167 40.5472 174.199C40.4351 174.23 40.3305 174.284 40.2398 174.358L40.1864 174.397C39.6141 174.82 38.9535 175.108 38.2541 175.24C37.5546 175.371 36.8345 175.343 36.1475 175.157L27.0898 172.73C26.8733 172.684 26.647 172.722 26.4579 172.837C26.2687 172.953 26.1313 173.136 26.0739 173.35C26.0166 173.565 26.0438 173.792 26.1498 173.987C26.2559 174.181 26.4327 174.328 26.6436 174.396L37.4705 177.297C37.9121 177.415 38.2886 177.704 38.5173 178.1C38.7459 178.496 38.8078 178.966 38.6895 179.408C38.5711 179.85 38.2822 180.226 37.8862 180.455C37.4903 180.683 37.0197 180.745 36.5781 180.627L25.7513 177.726C25.5347 177.679 25.3084 177.717 25.1193 177.833C24.9302 177.948 24.7927 178.132 24.7354 178.346C24.678 178.56 24.7052 178.788 24.8112 178.983C24.9173 179.177 25.0941 179.323 25.3051 179.391L36.1319 182.292C36.5738 182.411 36.9506 182.7 37.1793 183.096C37.4081 183.492 37.47 183.963 37.3516 184.405C37.2332 184.847 36.9441 185.224 36.5479 185.452C36.1517 185.681 35.6809 185.743 35.239 185.625L23.5785 182.5C23.4288 182.461 23.2759 182.435 23.1215 182.423L20.8277 178.461C20.7743 178.357 20.7003 178.265 20.6103 178.191C20.5202 178.116 20.4159 178.061 20.3038 178.027C20.1916 177.994 20.0739 177.984 19.9578 177.998C19.8417 178.012 19.7296 178.049 19.6283 178.108C19.527 178.166 19.4387 178.245 19.3686 178.338C19.2986 178.432 19.2483 178.539 19.2209 178.653C19.1934 178.766 19.1894 178.884 19.209 179C19.2285 179.115 19.2713 179.225 19.3347 179.323L21.4016 182.9C20.9143 183.248 20.5634 183.755 20.4091 184.333L19.1825 188.911C19.1467 189.023 19.134 189.14 19.145 189.256C19.156 189.373 19.1905 189.486 19.2464 189.588C19.3024 189.691 19.3786 189.781 19.4704 189.853C19.5623 189.926 19.6679 189.979 19.7808 190.009C19.8937 190.039 20.0116 190.046 20.1273 190.029C20.243 190.013 20.3541 189.973 20.4538 189.912C20.5536 189.851 20.64 189.77 20.7077 189.675C20.7754 189.58 20.823 189.472 20.8477 189.357ZM30.7093 187.537C30.62 187.868 30.4031 188.15 30.1062 188.322C29.8092 188.493 29.4564 188.54 29.1251 188.452C29.0831 188.44 28.835 188.359 28.1426 187.888C26.7931 186.963 25.5911 185.839 24.5771 184.555L29.7946 185.953C30.1257 186.042 30.4079 186.259 30.5793 186.556C30.7507 186.853 30.7975 187.206 30.7093 187.537Z" fill="#6F51FF"/>
</g>
<g clip-path="url(#clip4)">
<path d="M80.3898 84.0395C79.8109 83.8234 79.1854 83.7629 78.5758 83.8641C77.9662 83.9652 77.3937 84.2245 76.9157 84.6161C76.8086 84.7036 76.7061 84.7964 76.6084 84.8941C75.8483 85.6496 75.4189 86.6757 75.4145 87.7473C75.4101 88.819 75.8311 89.8486 76.5849 90.6102C76.7491 90.759 76.9642 90.839 77.1857 90.8336C77.4072 90.8281 77.6181 90.7377 77.7748 90.5811C77.9315 90.4244 78.0219 90.2135 78.0273 89.992C78.0328 89.7704 77.9528 89.5553 77.804 89.3912C77.3735 88.953 77.1344 88.362 77.1391 87.7478C77.1437 87.1335 77.3918 86.5462 77.8288 86.1146C77.8856 86.058 77.9452 86.0042 78.0074 85.9537C78.2538 85.7489 78.5504 85.6136 78.8666 85.5619C79.1828 85.5102 79.5071 85.5439 79.8059 85.6595C80.1413 85.7786 80.4395 85.9836 80.6709 86.254C80.9022 86.5244 81.0586 86.8507 81.1244 87.2005C81.5444 89.4146 82.1459 90.8912 82.9522 91.6975C84.1127 92.858 85.6866 93.5099 87.3278 93.5099C88.969 93.5099 90.5429 92.858 91.7034 91.6975C92.8638 90.537 93.5158 88.9631 93.5158 87.3219C93.5158 85.6808 92.8638 84.1068 91.7034 82.9464C90.7668 82.0156 89.0166 81.4244 87.3234 81.0688C87.4097 80.9825 87.5107 80.9078 87.5985 80.82C88.3013 80.1051 88.7768 79.1982 88.9651 78.2135C89.1534 77.2288 89.046 76.2104 88.6565 75.2866C88.267 74.3628 87.6128 73.575 86.7764 73.0223C85.9399 72.4697 84.9586 72.177 83.9561 72.181C82.9536 72.1851 81.9747 72.4858 81.1428 73.0452C80.3108 73.6046 79.6631 74.3977 79.2811 75.3246C78.8991 76.2515 78.8 77.2708 78.9963 78.2539C79.1925 79.237 79.6754 80.1401 80.3839 80.8493C80.8676 81.3334 81.4448 81.7138 82.0804 81.9674C82.7159 82.221 83.3965 82.3425 84.0805 82.3244C87.1917 82.6229 89.6429 83.3298 90.48 84.1668C91.3171 85.004 91.7875 86.1395 91.7875 87.3234C91.7875 88.5073 91.3171 89.6428 90.48 90.48C89.6428 91.3171 88.5073 91.7875 87.3234 91.7875C86.1395 91.7875 85.004 91.3171 84.1668 90.48C83.7907 90.1039 83.2507 89.1746 82.8132 86.8785C82.6884 86.2357 82.3994 85.6361 81.9742 85.1381C81.549 84.6401 81.0022 84.2606 80.3869 84.0366L80.3898 84.0395ZM81.6337 74.8552C82.1076 74.3934 82.7076 74.082 83.358 73.9604C84.0085 73.8387 84.6804 73.9121 85.2892 74.1713C85.8981 74.4306 86.4166 74.8641 86.7797 75.4173C87.1428 75.9706 87.3341 76.6188 87.3296 77.2805C87.3252 77.9423 87.1251 78.5879 86.7546 79.1362C86.3841 79.6845 85.8597 80.1109 85.2475 80.362C84.6352 80.613 83.9623 80.6773 83.3136 80.5468C82.6648 80.4164 82.0692 80.097 81.6015 79.6288C80.9737 78.991 80.6246 78.1303 80.6306 77.2354C80.6367 76.3405 80.9974 75.4845 81.6337 74.8552Z" fill="#6F51FF"/>
</g>
<g clip-path="url(#clip5)">
<path d="M187.864 25.9006C187.13 26.096 186.471 26.5023 185.967 27.0691C185.463 27.6359 185.136 28.3383 185.027 29.0891C184.919 29.8399 185.033 30.6061 185.355 31.2926C185.678 31.9791 186.196 32.5557 186.843 32.951C183.839 34.132 180.571 34.4782 177.386 33.9529L173.711 33.3415C173.599 33.323 173.485 33.3267 173.374 33.3523C173.264 33.378 173.159 33.4252 173.067 33.4912C172.975 33.5572 172.896 33.6407 172.836 33.737C172.777 33.8333 172.736 33.9404 172.718 34.0523C172.699 34.1642 172.703 34.2786 172.728 34.3891C172.754 34.4996 172.801 34.6039 172.867 34.6962C172.933 34.7884 173.017 34.8667 173.113 34.9267C173.209 34.9867 173.316 35.0271 173.428 35.0456L177.105 35.6545C181.536 36.3856 186.083 35.5748 189.988 33.3574C190.962 33.062 191.781 32.3954 192.268 31.5015C192.755 30.6076 192.871 29.558 192.591 28.5793C192.311 27.6006 191.658 26.7712 190.772 26.2701C189.886 25.769 188.838 25.6363 187.855 25.9007L187.864 25.9006ZM189.426 31.7318C189.014 31.8422 188.579 31.8279 188.175 31.6908C187.771 31.5537 187.417 31.2999 187.157 30.9616C186.897 30.6232 186.744 30.2154 186.716 29.7898C186.688 29.3642 186.787 28.9399 187 28.5705C187.214 28.2012 187.532 27.9033 187.914 27.7147C188.297 27.526 188.726 27.4551 189.149 27.5107C189.572 27.5664 189.969 27.7462 190.29 28.0274C190.61 28.3087 190.84 28.6787 190.951 29.0906C191.098 29.6429 191.02 30.2308 190.734 30.7255C190.448 31.2202 189.977 31.5814 189.425 31.7298L189.426 31.7318Z" fill="#6F51FF"/>
<path d="M170.899 27.558C171.062 28.1712 171.373 28.735 171.804 29.2002C172.236 29.6653 172.775 30.0176 173.374 30.2262C173.973 30.4347 174.614 30.4932 175.241 30.3964C175.868 30.2996 176.462 30.0506 176.971 29.6711C177.479 29.2916 177.887 28.7932 178.158 28.2196C178.429 27.646 178.555 27.0147 178.526 26.381C178.496 25.7472 178.312 25.1303 177.989 24.5844C177.665 24.0385 177.213 23.5801 176.672 23.2495C179.676 22.0688 182.944 21.7233 186.129 22.2495L189.804 22.8589C190.03 22.8964 190.261 22.8425 190.448 22.7093C190.634 22.576 190.76 22.3741 190.797 22.1482C190.835 21.9222 190.781 21.6906 190.648 21.5043C190.514 21.318 190.312 21.1923 190.086 21.1548L186.411 20.5435C183.652 20.0875 180.828 20.2269 178.128 20.9524C176.519 21.3841 174.972 22.0197 173.525 22.8436C172.561 23.1356 171.749 23.7905 171.259 24.6701C170.769 25.5497 170.64 26.5851 170.899 27.558ZM174.089 24.4707C174.501 24.3603 174.937 24.3745 175.341 24.5116C175.744 24.6487 176.099 24.9025 176.358 25.2409C176.618 25.5793 176.771 25.987 176.799 26.4126C176.827 26.8382 176.728 27.2625 176.515 27.6319C176.302 28.0013 175.984 28.2991 175.601 28.4878C175.219 28.6764 174.789 28.7474 174.366 28.6917C173.943 28.636 173.546 28.4562 173.226 28.175C172.905 27.8938 172.675 27.5238 172.564 27.1118C172.417 26.5594 172.495 25.971 172.781 25.4759C173.066 24.9807 173.537 24.6192 174.089 24.4707Z" fill="#6F51FF"/>
</g>
<g clip-path="url(#clip6)">
<path d="M302.618 449.782C301.767 450.01 301.02 450.853 300.451 451.689L298.669 445.036C298.435 444.129 297.937 443.313 297.238 442.69C296.539 442.068 295.671 441.667 294.743 441.539C293.816 441.411 292.872 441.562 292.03 441.973C291.189 442.383 290.489 443.034 290.019 443.844C289.171 442.286 287.91 440.993 286.374 440.107C286.175 439.993 285.939 439.962 285.718 440.022C285.497 440.081 285.309 440.226 285.195 440.425C285.081 440.623 285.05 440.859 285.11 441.08C285.169 441.301 285.314 441.49 285.513 441.604C286.421 442.125 287.217 442.821 287.854 443.652C288.491 444.482 288.958 445.431 289.226 446.443L291.851 456.238C291.876 456.353 291.923 456.461 291.991 456.556C292.059 456.651 292.145 456.732 292.245 456.793C292.345 456.854 292.456 456.894 292.571 456.91C292.687 456.927 292.805 456.92 292.918 456.89C293.031 456.859 293.136 456.807 293.228 456.734C293.32 456.662 293.396 456.572 293.452 456.469C293.508 456.367 293.543 456.254 293.554 456.137C293.565 456.021 293.552 455.903 293.516 455.792L291.172 447.044C290.965 446.271 291.073 445.447 291.474 444.754C291.874 444.061 292.533 443.555 293.306 443.348C294.08 443.14 294.904 443.249 295.597 443.649C296.29 444.049 296.796 444.709 297.003 445.482L299.253 453.878L298.466 455.25C298.25 455.626 297.961 455.956 297.617 456.22C297.273 456.484 296.88 456.677 296.461 456.788C296.347 456.813 296.239 456.86 296.144 456.928C296.048 456.996 295.968 457.082 295.907 457.182C295.846 457.281 295.806 457.393 295.789 457.508C295.773 457.624 295.78 457.742 295.81 457.855C295.84 457.968 295.893 458.073 295.965 458.165C296.037 458.257 296.128 458.333 296.23 458.389C296.333 458.445 296.446 458.48 296.562 458.491C296.679 458.502 296.796 458.489 296.907 458.453C297.545 458.284 298.144 457.99 298.667 457.588C299.191 457.186 299.63 456.685 299.959 456.112L300.459 455.245C301.477 455.892 303.164 456.776 304.404 456.444C304.851 456.336 305.272 456.14 305.642 455.866C306.012 455.593 306.324 455.248 306.559 454.853C306.794 454.457 306.947 454.018 307.01 453.562C307.073 453.107 307.044 452.643 306.925 452.198C306.806 451.754 306.599 451.338 306.317 450.974C306.034 450.611 305.682 450.308 305.281 450.082C304.88 449.857 304.437 449.715 303.98 449.663C303.523 449.611 303.06 449.652 302.618 449.782ZM303.958 454.779C303.472 454.909 302.286 454.37 301.266 453.716C301.822 452.637 302.579 451.577 303.065 451.447C303.507 451.328 303.977 451.39 304.374 451.619C304.77 451.848 305.059 452.225 305.177 452.667C305.296 453.108 305.234 453.579 305.005 453.975C304.776 454.372 304.399 454.661 303.958 454.779Z" fill="#6F51FF"/>
</g>
<g clip-path="url(#clip7)">
<path d="M394.221 381.096C394.091 381.046 393.95 381.029 393.811 381.046C393.672 381.062 393.54 381.112 393.425 381.191C393.309 381.27 393.215 381.376 393.15 381.5C393.085 381.624 393.051 381.761 393.051 381.901L393.049 386.691L389.976 385.374C389.845 385.318 389.702 385.295 389.56 385.308C389.418 385.321 389.282 385.369 389.163 385.447C389.044 385.525 388.946 385.632 388.878 385.757C388.81 385.883 388.775 386.023 388.774 386.165L388.777 390.962L385.704 389.645C385.579 389.592 385.443 389.569 385.307 389.578C385.171 389.587 385.04 389.628 384.923 389.698C384.806 389.768 384.707 389.864 384.635 389.979C384.562 390.095 384.518 390.225 384.506 390.361L383.906 397.066C383.889 397.182 383.896 397.3 383.927 397.413C383.957 397.526 384.01 397.632 384.083 397.724C384.155 397.816 384.246 397.892 384.349 397.948C384.452 398.004 384.565 398.038 384.682 398.049C384.798 398.059 384.916 398.046 385.027 398.01C385.138 397.974 385.241 397.915 385.329 397.838C385.417 397.761 385.489 397.666 385.539 397.56C385.589 397.455 385.618 397.34 385.622 397.223L386.126 391.697L389.303 393.06C389.434 393.115 389.577 393.138 389.719 393.125C389.861 393.112 389.997 393.065 390.116 392.986C390.235 392.908 390.333 392.801 390.4 392.676C390.468 392.55 390.504 392.41 390.504 392.268L390.506 387.478L393.579 388.795C393.71 388.851 393.853 388.874 393.995 388.861C394.137 388.848 394.273 388.8 394.392 388.722C394.511 388.644 394.609 388.537 394.677 388.412C394.744 388.286 394.78 388.146 394.78 388.003L394.774 383.157L397.561 384.234C397.771 384.303 398.001 384.289 398.201 384.194C398.402 384.099 398.558 383.931 398.638 383.724C398.717 383.516 398.714 383.287 398.628 383.082C398.543 382.877 398.382 382.713 398.178 382.624L394.221 381.096Z" fill="#6F51FF"/>
<path d="M399.709 386.584C399.578 386.534 399.438 386.517 399.299 386.533C399.16 386.55 399.028 386.6 398.912 386.679C398.797 386.758 398.703 386.864 398.638 386.988C398.573 387.112 398.539 387.249 398.538 387.389L398.537 392.179L395.464 390.862C395.333 390.806 395.19 390.783 395.048 390.796C394.906 390.809 394.769 390.856 394.65 390.935C394.531 391.013 394.434 391.12 394.366 391.245C394.298 391.371 394.263 391.511 394.262 391.653L394.265 396.45L391.192 395.133C391.067 395.08 390.931 395.057 390.795 395.066C390.659 395.075 390.527 395.116 390.411 395.186C390.294 395.256 390.195 395.352 390.123 395.467C390.05 395.582 390.006 395.713 389.994 395.849L389.399 402.56C389.383 402.676 389.39 402.794 389.42 402.907C389.451 403.02 389.504 403.126 389.576 403.218C389.649 403.31 389.739 403.386 389.842 403.442C389.945 403.497 390.059 403.532 390.175 403.542C390.292 403.553 390.409 403.54 390.521 403.503C390.632 403.467 390.735 403.409 390.823 403.331C390.911 403.254 390.982 403.16 391.033 403.054C391.083 402.948 391.111 402.834 391.116 402.717L391.615 397.186L394.792 398.549C394.923 398.605 395.066 398.627 395.208 398.614C395.35 398.602 395.486 398.554 395.605 398.476C395.724 398.397 395.822 398.29 395.89 398.165C395.957 398.04 395.993 397.9 395.993 397.757L395.993 392.966L399.067 394.283C399.198 394.339 399.341 394.361 399.482 394.349C399.624 394.336 399.761 394.288 399.88 394.21C399.999 394.131 400.097 394.025 400.164 393.899C400.232 393.774 400.268 393.634 400.268 393.491L400.262 388.644L403.05 389.723C403.157 389.77 403.272 389.795 403.389 389.796C403.506 389.797 403.621 389.774 403.729 389.729C403.837 389.684 403.934 389.617 404.016 389.534C404.097 389.45 404.16 389.351 404.202 389.242C404.244 389.133 404.263 389.016 404.259 388.9C404.254 388.783 404.226 388.669 404.176 388.563C404.126 388.458 404.055 388.363 403.968 388.286C403.881 388.209 403.778 388.15 403.668 388.113L399.709 386.584Z" fill="#6F51FF"/>
</g>
<g clip-path="url(#clip8)">
<path d="M447.76 301.962L448.771 298.188C450.554 298.755 452.242 299.588 453.776 300.66L456.266 302.399C456.359 302.47 456.465 302.521 456.577 302.55C456.69 302.579 456.808 302.584 456.923 302.567C457.038 302.549 457.148 302.508 457.247 302.446C457.346 302.385 457.431 302.304 457.498 302.209C457.565 302.113 457.611 302.006 457.635 301.892C457.659 301.778 457.66 301.66 457.637 301.546C457.615 301.432 457.569 301.323 457.504 301.227C457.438 301.131 457.354 301.049 457.256 300.987L454.765 299.248C453.067 298.06 451.197 297.14 449.22 296.519L450.32 292.413C452.342 292.865 454.422 293.004 456.486 292.825L459.512 292.565C459.733 292.536 459.934 292.423 460.073 292.249C460.213 292.076 460.28 291.855 460.26 291.634C460.241 291.412 460.137 291.206 459.969 291.06C459.802 290.913 459.584 290.837 459.362 290.847L456.335 291.107C454.471 291.268 452.593 291.147 450.765 290.746L451.777 286.969C451.824 286.753 451.785 286.527 451.67 286.338C451.555 286.148 451.371 286.011 451.157 285.954C450.943 285.896 450.715 285.923 450.52 286.029C450.326 286.136 450.179 286.312 450.112 286.523L449.1 290.297C447.317 289.731 445.629 288.897 444.096 287.825L441.605 286.087C441.512 286.016 441.407 285.964 441.294 285.936C441.181 285.907 441.064 285.901 440.949 285.919C440.834 285.937 440.723 285.978 440.624 286.039C440.526 286.101 440.44 286.182 440.374 286.277C440.307 286.372 440.26 286.48 440.236 286.594C440.212 286.708 440.211 286.825 440.234 286.94C440.257 287.054 440.302 287.162 440.368 287.258C440.433 287.355 440.518 287.436 440.616 287.499L443.107 289.238C444.805 290.426 446.676 291.346 448.653 291.967L447.553 296.073C445.531 295.622 443.451 295.484 441.387 295.663L438.361 295.924C438.244 295.929 438.13 295.958 438.025 296.008C437.92 296.058 437.827 296.13 437.75 296.217C437.673 296.305 437.615 296.407 437.579 296.518C437.543 296.628 437.53 296.745 437.54 296.861C437.55 296.977 437.583 297.09 437.638 297.192C437.693 297.295 437.768 297.386 437.859 297.458C437.949 297.531 438.054 297.585 438.166 297.617C438.278 297.648 438.395 297.657 438.511 297.642L441.537 297.381C443.402 297.22 445.28 297.341 447.108 297.742L446.096 301.517C446.061 301.628 446.048 301.745 446.059 301.862C446.07 301.978 446.104 302.091 446.16 302.194C446.216 302.296 446.292 302.386 446.384 302.459C446.476 302.531 446.582 302.584 446.695 302.614C446.808 302.644 446.925 302.651 447.041 302.635C447.157 302.618 447.268 302.578 447.368 302.517C447.467 302.456 447.554 302.376 447.622 302.28C447.689 302.185 447.737 302.077 447.762 301.963L447.76 301.962Z" fill="#6F51FF"/>
</g>
<g clip-path="url(#clip9)">
<path d="M438.183 178.279C438.431 179.208 438.983 180.028 439.751 180.607C440.519 181.186 441.459 181.491 442.42 181.474C442.442 181.468 442.464 181.462 442.49 181.47L454.3 180.32L443.495 185.229C443.473 185.235 443.451 185.241 443.433 185.261C442.592 185.727 441.931 186.462 441.556 187.347C441.181 188.233 441.113 189.219 441.364 190.147C441.654 191.223 442.358 192.14 443.323 192.697C444.288 193.255 445.435 193.406 446.511 193.12C446.918 193.012 447.3 192.825 447.634 192.569C447.968 192.312 448.248 191.993 448.458 191.628L449.803 189.298C449.904 189.101 449.925 188.873 449.863 188.66C449.8 188.448 449.658 188.268 449.466 188.157C449.274 188.046 449.047 188.013 448.832 188.065C448.617 188.117 448.43 188.25 448.31 188.436L446.965 190.766C446.868 190.934 446.739 191.081 446.585 191.199C446.431 191.318 446.255 191.404 446.067 191.454C445.431 191.624 444.753 191.535 444.183 191.206C443.612 190.876 443.196 190.334 443.026 189.698C442.877 189.146 442.916 188.56 443.136 188.032C443.356 187.505 443.744 187.065 444.241 186.782L457.421 180.795C457.443 180.789 457.465 180.783 457.483 180.763C457.736 180.623 457.934 180.403 458.047 180.137C458.16 179.872 458.18 179.576 458.106 179.297C458.031 179.018 457.865 178.772 457.635 178.598C457.404 178.425 457.122 178.333 456.833 178.338C456.811 178.344 456.789 178.35 456.764 178.342L442.356 179.747C441.784 179.75 441.227 179.564 440.773 179.216C440.318 178.869 439.992 178.38 439.845 177.827C439.675 177.191 439.764 176.513 440.093 175.943C440.422 175.373 440.965 174.956 441.601 174.786C441.788 174.735 441.984 174.722 442.177 174.747C442.369 174.772 442.555 174.836 442.723 174.933L445.052 176.278C445.249 176.379 445.477 176.401 445.69 176.338C445.902 176.275 446.082 176.133 446.193 175.942C446.304 175.75 446.337 175.523 446.285 175.308C446.233 175.092 446.1 174.905 445.914 174.785L443.585 173.44C443.22 173.23 442.818 173.095 442.401 173.042C441.984 172.988 441.56 173.018 441.155 173.129C440.079 173.419 439.162 174.124 438.604 175.09C438.047 176.055 437.896 177.202 438.183 178.279Z" fill="#6F51FF"/>
</g>
<g clip-path="url(#clip10)">
<path d="M378.548 84.0381L379.78 85.2703C380.258 85.748 380.864 86.0751 381.526 86.2109C382.187 86.3467 382.874 86.2853 383.5 86.0342L386.427 84.8634C386.741 84.7377 387.084 84.7069 387.415 84.7748C387.745 84.8428 388.049 85.0064 388.287 85.2454L390.755 87.7127C390.993 87.9498 391.157 88.2516 391.226 88.5808C391.295 88.91 391.267 89.2522 391.144 89.5653L389.973 92.4922C389.719 93.1191 389.656 93.8069 389.79 94.4697C389.925 95.1326 390.251 95.7411 390.73 96.2194L391.962 97.4516C392.126 97.6004 392.341 97.6804 392.563 97.675C392.784 97.6696 392.995 97.5792 393.152 97.4225C393.308 97.2658 393.399 97.0549 393.404 96.8334C393.41 96.6119 393.33 96.3968 393.181 96.2326L391.949 95.0004C391.71 94.7633 391.546 94.4615 391.477 94.1323C391.408 93.8031 391.436 93.4609 391.559 93.1478L392.73 90.2209C392.989 89.5727 393.044 88.8612 392.888 88.181C394.145 88.3711 395.43 88.1595 396.56 87.5764C397.689 86.9934 398.606 86.0686 399.179 84.9338C399.753 83.7991 399.953 82.5124 399.752 81.2571C399.551 80.0019 398.959 78.8421 398.06 77.9432C397.161 77.0442 396.001 76.452 394.746 76.251C393.49 76.0499 392.204 76.2503 391.069 76.8235C389.934 77.3966 389.009 78.3134 388.426 79.4431C387.843 80.5728 387.632 81.8577 387.822 83.1147C387.142 82.9592 386.43 83.0143 385.782 83.2727L382.855 84.4434C382.542 84.5691 382.198 84.5999 381.868 84.532C381.537 84.4641 381.234 84.3005 380.995 84.0615L379.763 82.8293C379.684 82.7427 379.589 82.6729 379.483 82.6243C379.377 82.5756 379.262 82.549 379.145 82.5462C379.028 82.5433 378.912 82.5642 378.803 82.6076C378.695 82.651 378.596 82.716 378.513 82.7987C378.431 82.8813 378.366 82.9799 378.322 83.0885C378.279 83.197 378.258 83.3132 378.261 83.4301C378.264 83.5469 378.29 83.662 378.339 83.7682C378.388 83.8745 378.457 83.9698 378.544 84.0483L378.548 84.0381ZM390.743 79.1605C391.346 78.5577 392.114 78.1471 392.95 77.9807C393.786 77.8144 394.653 77.8998 395.441 78.2261C396.229 78.5523 396.902 79.1049 397.376 79.8138C397.849 80.5227 398.102 81.3562 398.102 82.2088C398.102 83.0614 397.849 83.8949 397.376 84.6038C396.902 85.3127 396.229 85.8653 395.441 86.1916C394.653 86.5179 393.786 86.6032 392.95 86.4369C392.114 86.2705 391.346 85.86 390.743 85.2571C389.936 84.4478 389.483 83.3516 389.483 82.2088C389.483 81.066 389.936 79.9698 390.743 79.1605Z" fill="#6F51FF"/>
</g>
<g clip-path="url(#clip11)">
<path d="M306.119 22.2151C306.319 22.1326 306.481 21.978 306.572 21.7818C306.664 21.5856 306.678 21.3623 306.613 21.156C306.547 20.9498 306.406 20.7757 306.219 20.6682C306.031 20.5607 305.809 20.5278 305.598 20.5758C302.549 21.5278 299.292 21.5942 296.207 20.7674C293.121 19.9406 290.334 18.2546 288.169 15.9055C288.01 15.7605 287.802 15.6802 287.587 15.6804C287.371 15.6805 287.164 15.7612 287.005 15.9065C286.846 16.0518 286.747 16.2512 286.728 16.4656C286.708 16.6801 286.77 16.894 286.9 17.0654C288.087 18.3581 289.452 19.4744 290.955 20.3802L287.535 33.1421C285.781 33.1751 284.04 33.4591 282.366 33.9854C282.166 34.0679 282.005 34.2225 281.913 34.4187C281.822 34.6148 281.807 34.8382 281.873 35.0444C281.938 35.2507 282.079 35.4248 282.267 35.5323C282.455 35.6397 282.676 35.6727 282.887 35.6247C285.937 34.6738 289.194 34.6084 292.279 35.4363C295.364 36.2641 298.151 37.9511 300.315 40.3009C300.474 40.446 300.682 40.5263 300.897 40.5261C301.113 40.5259 301.32 40.4453 301.479 40.3C301.638 40.1547 301.737 39.9553 301.756 39.7408C301.775 39.5264 301.714 39.3125 301.584 39.141C300.398 37.8463 299.033 36.7281 297.531 35.8203L300.95 23.0584C302.705 23.0253 304.445 22.7413 306.119 22.2151ZM295.968 34.9903C294.926 34.4849 293.84 34.0776 292.723 33.7735C291.603 33.4782 290.458 33.2877 289.303 33.2045L292.517 21.2102C294.608 22.2136 296.868 22.819 299.18 22.9955L295.968 34.9903Z" fill="#6F51FF"/>
</g>
<defs>
<linearGradient id="paint0_linear" x1="226.617" y1="228.687" x2="226.617" y2="247.313" gradientUnits="userSpaceOnUse">
<stop stop-color="#7558FF"/>
<stop offset="1" stop-color="#6544E9"/>
</linearGradient>
<linearGradient id="paint1_linear" x1="251.452" y1="207.991" x2="251.452" y2="226.617" gradientUnits="userSpaceOnUse">
<stop stop-color="#7558FF"/>
<stop offset="1" stop-color="#6544E9"/>
</linearGradient>
<linearGradient id="paint2_linear" x1="275.252" y1="228.687" x2="275.252" y2="247.313" gradientUnits="userSpaceOnUse">
<stop stop-color="#7558FF"/>
<stop offset="1" stop-color="#6544E9"/>
</linearGradient>
<linearGradient id="paint3_linear" x1="276.287" y1="259.73" x2="276.287" y2="278.357" gradientUnits="userSpaceOnUse">
<stop stop-color="#7558FF"/>
<stop offset="1" stop-color="#6544E9"/>
</linearGradient>
<linearGradient id="paint4_linear" x1="257.661" y1="287.669" x2="257.661" y2="306.296" gradientUnits="userSpaceOnUse">
<stop stop-color="#7558FF"/>
<stop offset="1" stop-color="#6544E9"/>
</linearGradient>
<linearGradient id="paint5_linear" x1="308.365" y1="202.817" x2="308.365" y2="221.443" gradientUnits="userSpaceOnUse">
<stop stop-color="#7558FF"/>
<stop offset="1" stop-color="#6544E9"/>
</linearGradient>
<linearGradient id="paint6_linear" x1="321.817" y1="250.417" x2="321.817" y2="269.044" gradientUnits="userSpaceOnUse">
<stop stop-color="#7558FF"/>
<stop offset="1" stop-color="#6544E9"/>
</linearGradient>
<linearGradient id="paint7_linear" x1="307.33" y1="300.087" x2="307.33" y2="318.713" gradientUnits="userSpaceOnUse">
<stop stop-color="#7558FF"/>
<stop offset="1" stop-color="#6544E9"/>
</linearGradient>
<linearGradient id="paint8_linear" x1="213.165" y1="337.339" x2="213.165" y2="355.965" gradientUnits="userSpaceOnUse">
<stop stop-color="#7558FF"/>
<stop offset="1" stop-color="#6544E9"/>
</linearGradient>
<linearGradient id="paint9_linear" x1="349.756" y1="173.844" x2="349.756" y2="192.47" gradientUnits="userSpaceOnUse">
<stop stop-color="#7558FF"/>
<stop offset="1" stop-color="#6544E9"/>
</linearGradient>
<linearGradient id="paint10_linear" x1="365.278" y1="176.948" x2="365.278" y2="195.574" gradientUnits="userSpaceOnUse">
<stop stop-color="#7558FF"/>
<stop offset="1" stop-color="#6544E9"/>
</linearGradient>
<linearGradient id="paint11_linear" x1="294.913" y1="366.313" x2="294.913" y2="384.939" gradientUnits="userSpaceOnUse">
<stop stop-color="#7558FF"/>
<stop offset="1" stop-color="#6544E9"/>
</linearGradient>
<linearGradient id="paint12_linear" x1="124.174" y1="343.548" x2="124.174" y2="362.174" gradientUnits="userSpaceOnUse">
<stop stop-color="#7558FF"/>
<stop offset="1" stop-color="#6544E9"/>
</linearGradient>
<linearGradient id="paint13_linear" x1="346.652" y1="92.0957" x2="346.652" y2="110.722" gradientUnits="userSpaceOnUse">
<stop stop-color="#7558FF"/>
<stop offset="1" stop-color="#6544E9"/>
</linearGradient>
<linearGradient id="paint14_linear" x1="225.741" y1="250.907" x2="244.367" y2="250.907" gradientUnits="userSpaceOnUse">
<stop stop-color="#FF698F"/>
<stop offset="1" stop-color="#FF8AAF"/>
</linearGradient>
<linearGradient id="paint15_linear" x1="212.178" y1="221.562" x2="230.804" y2="221.562" gradientUnits="userSpaceOnUse">
<stop stop-color="#FF698F"/>
<stop offset="1" stop-color="#FF8AAF"/>
</linearGradient>
<linearGradient id="paint16_linear" x1="238.328" y1="203.93" x2="256.954" y2="203.93" gradientUnits="userSpaceOnUse">
<stop stop-color="#FF698F"/>
<stop offset="1" stop-color="#FF8AAF"/>
</linearGradient>
<linearGradient id="paint17_linear" x1="268.582" y1="210.965" x2="287.208" y2="210.965" gradientUnits="userSpaceOnUse">
<stop stop-color="#FF698F"/>
<stop offset="1" stop-color="#FF8AAF"/>
</linearGradient>
<linearGradient id="paint18_linear" x1="290.748" y1="236.187" x2="309.374" y2="236.187" gradientUnits="userSpaceOnUse">
<stop stop-color="#FF698F"/>
<stop offset="1" stop-color="#FF8AAF"/>
</linearGradient>
<linearGradient id="paint19_linear" x1="221.911" y1="165.249" x2="240.537" y2="165.249" gradientUnits="userSpaceOnUse">
<stop stop-color="#FF698F"/>
<stop offset="1" stop-color="#FF8AAF"/>
</linearGradient>
<linearGradient id="paint20_linear" x1="271.371" y1="164.575" x2="289.997" y2="164.575" gradientUnits="userSpaceOnUse">
<stop stop-color="#FF698F"/>
<stop offset="1" stop-color="#FF8AAF"/>
</linearGradient>
<linearGradient id="paint21_linear" x1="315.598" y1="191.424" x2="334.224" y2="191.424" gradientUnits="userSpaceOnUse">
<stop stop-color="#FF698F"/>
<stop offset="1" stop-color="#FF8AAF"/>
</linearGradient>
<linearGradient id="paint22_linear" x1="327.209" y1="292.022" x2="345.835" y2="292.022" gradientUnits="userSpaceOnUse">
<stop stop-color="#FF698F"/>
<stop offset="1" stop-color="#FF8AAF"/>
</linearGradient>
<linearGradient id="paint23_linear" x1="204.637" y1="117.769" x2="223.263" y2="117.769" gradientUnits="userSpaceOnUse">
<stop stop-color="#FF698F"/>
<stop offset="1" stop-color="#FF8AAF"/>
</linearGradient>
<linearGradient id="paint24_linear" x1="211.653" y1="103.58" x2="230.279" y2="103.58" gradientUnits="userSpaceOnUse">
<stop stop-color="#FF698F"/>
<stop offset="1" stop-color="#FF8AAF"/>
</linearGradient>
<linearGradient id="paint25_linear" x1="376.354" y1="220.559" x2="394.98" y2="220.559" gradientUnits="userSpaceOnUse">
<stop stop-color="#FF698F"/>
<stop offset="1" stop-color="#FF8AAF"/>
</linearGradient>
<linearGradient id="paint26_linear" x1="310.174" y1="379.588" x2="328.8" y2="379.588" gradientUnits="userSpaceOnUse">
<stop stop-color="#FF698F"/>
<stop offset="1" stop-color="#FF8AAF"/>
</linearGradient>
<linearGradient id="paint27_linear" x1="124.871" y1="99.6101" x2="143.497" y2="99.6101" gradientUnits="userSpaceOnUse">
<stop stop-color="#FF698F"/>
<stop offset="1" stop-color="#FF8AAF"/>
</linearGradient>
<clipPath id="clip0">
<rect x="174.44" y="435.227" width="20.6957" height="20.6957" transform="rotate(15 174.44 435.227)" fill="white"/>
</clipPath>
<clipPath id="clip1">
<rect x="84.3425" y="377.023" width="20.6957" height="20.6957" transform="rotate(45 84.3425 377.023)" fill="white"/>
</clipPath>
<clipPath id="clip2">
<rect x="35.417" y="281.569" width="20.6957" height="20.6957" transform="rotate(75 35.417 281.569)" fill="white"/>
</clipPath>
<clipPath id="clip3">
<rect x="41.8083" y="174.44" width="20.6957" height="20.6957" transform="rotate(105 41.8083 174.44)" fill="white"/>
</clipPath>
<clipPath id="clip4">
<rect x="98.9766" y="84.3425" width="20.6957" height="20.6957" transform="rotate(135 98.9766 84.3425)" fill="white"/>
</clipPath>
<clipPath id="clip5">
<rect x="194.431" y="35.4172" width="20.6957" height="20.6957" transform="rotate(165 194.431 35.4172)" fill="white"/>
</clipPath>
<clipPath id="clip6">
<rect x="283.639" y="440.583" width="20.6957" height="20.6957" transform="rotate(-15 283.639 440.583)" fill="white"/>
</clipPath>
<clipPath id="clip7">
<rect x="378.058" y="391.657" width="20.6957" height="20.6957" transform="rotate(-45 378.058 391.657)" fill="white"/>
</clipPath>
<clipPath id="clip8">
<rect x="436.261" y="301.56" width="20.6957" height="20.6957" transform="rotate(-75 436.261 301.56)" fill="white"/>
</clipPath>
<clipPath id="clip9">
<rect x="441.618" y="194.431" width="20.6957" height="20.6957" transform="rotate(-105 441.618 194.431)" fill="white"/>
</clipPath>
<clipPath id="clip10">
<rect x="391.657" y="98.9766" width="20.6957" height="20.6957" transform="rotate(-135 391.657 98.9766)" fill="white"/>
</clipPath>
<clipPath id="clip11">
<rect x="301.56" y="40.7737" width="20.6957" height="20.6957" transform="rotate(-165 301.56 40.7737)" fill="white"/>
</clipPath>
</defs>
</svg>
