<svg width="26" height="26" viewBox="0 0 26 26" fill="none" xmlns="http://www.w3.org/2000/svg">
<g clip-path="url(#clip0)">
<path d="M23.6504 7.18209C23.6657 7.00581 23.6265 6.82907 23.538 6.67582C23.4495 6.52258 23.3161 6.40023 23.1557 6.32537L16.4099 3.17872C16.3068 3.12722 16.1944 3.0969 16.0794 3.08955C15.9643 3.0822 15.849 3.09797 15.7402 3.13592C15.6313 3.17387 15.5312 3.23323 15.4457 3.31051C15.3602 3.38779 15.291 3.48142 15.2423 3.58586C15.1935 3.69031 15.1662 3.80346 15.1619 3.91864C15.1576 4.03382 15.1764 4.1487 15.2173 4.25648C15.2581 4.36427 15.3201 4.46279 15.3996 4.54622C15.4791 4.62966 15.5746 4.69631 15.6803 4.74227L20.9293 7.19003L9.11167 14.0079L6.34344 9.21025C6.22895 9.01194 6.04036 8.86724 5.81918 8.80797C5.59799 8.7487 5.36232 8.77973 5.16401 8.89422C4.96569 9.00872 4.82099 9.1973 4.76172 9.41849C4.70245 9.63968 4.73348 9.87535 4.84798 10.0737L7.6182 14.8718L0.708637 18.8611C0.604587 18.9144 0.512469 18.9884 0.437876 19.0785C0.363282 19.1685 0.30777 19.2728 0.274709 19.385C0.241647 19.4971 0.231727 19.6148 0.24555 19.731C0.259373 19.8471 0.296652 19.9592 0.355121 20.0605C0.413591 20.1617 0.492032 20.2501 0.585683 20.3201C0.679334 20.3901 0.78624 20.4404 0.899911 20.4678C1.01358 20.4953 1.13165 20.4994 1.24694 20.4798C1.36223 20.4602 1.47234 20.4174 1.57058 20.354L8.48014 16.3648L10.9465 20.6337C10.9999 20.7378 11.0738 20.8299 11.1639 20.9045C11.254 20.9791 11.3582 21.0346 11.4704 21.0676C11.5826 21.1007 11.7003 21.1106 11.8164 21.0968C11.9325 21.083 12.0446 21.0457 12.1459 20.9872C12.2472 20.9288 12.3355 20.8503 12.4055 20.7567C12.4756 20.663 12.5258 20.5561 12.5533 20.4424C12.5807 20.3288 12.5848 20.2107 12.5652 20.0954C12.5457 19.9801 12.5029 19.87 12.4394 19.7718L9.97507 15.5033L21.7883 8.6779L21.2847 14.4436C21.2711 14.6681 21.3457 14.889 21.4926 15.0594C21.6395 15.2297 21.8471 15.3359 22.0712 15.3555C22.2952 15.375 22.5181 15.3063 22.6922 15.164C22.8664 15.0217 22.9781 14.817 23.0036 14.5935L23.6504 7.18209Z" fill="#6F51FF"/>
</g>
<defs>
<clipPath id="clip0">
<rect x="5.44043" y="0.226562" width="20.6957" height="20.6957" transform="rotate(15 5.44043 0.226562)" fill="white"/>
</clipPath>
</defs>
</svg>
