<svg width="30" height="30" viewBox="0 0 30 30" fill="none" xmlns="http://www.w3.org/2000/svg">
<g clip-path="url(#clip0)">
<path d="M19.2119 23.028C19.2335 22.9202 19.2329 22.809 19.2102 22.7013C19.1874 22.5937 19.1429 22.4918 19.0794 22.4019C19.0159 22.312 18.9348 22.2361 18.8409 22.1786C18.747 22.1212 18.6425 22.0835 18.5335 22.0678C18.4246 22.0522 18.3136 22.0589 18.2074 22.0876C18.1012 22.1163 18.0019 22.1664 17.9157 22.2348C17.8295 22.3031 17.7581 22.3884 17.706 22.4853C17.6538 22.5822 17.622 22.6887 17.6124 22.7983L17.567 23.1363C17.4002 22.6154 17.4104 21.85 17.6519 21.6085L23.3504 15.9101C24.5928 14.6588 24.5313 12.7242 23.2084 11.4013C22.8742 11.0559 22.4736 10.7816 22.0308 10.5948C21.588 10.4079 21.112 10.3124 20.6314 10.314C20.6453 9.84702 20.5616 9.38228 20.3854 8.94958C20.2092 8.51688 19.9446 8.12577 19.6084 7.80133C19.2742 7.45595 18.8737 7.18162 18.4308 6.99479C17.988 6.80795 17.512 6.71245 17.0314 6.71402C17.0454 6.24705 16.9616 5.78231 16.7854 5.34961C16.6093 4.9169 16.3446 4.52579 16.0085 4.20136C14.6504 2.84332 12.6295 2.73649 11.4031 3.96282C11.2514 4.11458 11.1661 4.3204 11.1661 4.53501C11.1661 4.74963 11.2514 4.95545 11.4031 5.10721C11.5549 5.25896 11.7607 5.34421 11.9753 5.34421C12.1899 5.34421 12.3958 5.25896 12.5475 5.10721C13.2002 4.45453 14.2407 4.71355 14.8685 5.34135C15.5621 6.035 15.6104 6.94085 14.9958 7.55548L9.2973 13.254C9.14555 13.4057 9.0603 13.6116 9.0603 13.8262C9.0603 14.0408 9.14555 14.2466 9.29731 14.3984C9.44906 14.5501 9.65488 14.6354 9.8695 14.6354C10.0841 14.6354 10.2899 14.5501 10.4417 14.3984L16.1402 8.69986C16.7929 8.04718 17.8333 8.30621 18.4611 8.93401C19.1548 9.62766 19.2031 10.5335 18.5885 11.1481L12.89 16.8466C12.7382 16.9984 12.653 17.2042 12.653 17.4188C12.653 17.6334 12.7382 17.8393 12.89 17.991C13.0417 18.1428 13.2475 18.228 13.4622 18.228C13.6768 18.228 13.8826 18.1428 14.0343 17.991L19.7328 12.2925C20.3855 11.6398 21.426 11.8989 22.0538 12.5267C22.7474 13.2203 22.7957 14.1262 22.1811 14.7408L16.4826 20.4393C15.6046 21.3173 15.6397 23.1085 16.2558 24.1783L15.688 24.1783C15.4734 24.1783 15.2675 24.2635 15.1158 24.4153C14.964 24.5671 14.8787 24.7729 14.8787 24.9875C14.8787 25.2022 14.964 25.408 15.1158 25.5598C15.2675 25.7115 15.4734 25.7968 15.688 25.7968L18.8124 25.8217L19.2119 23.028Z" fill="#6F51FF"/>
</g>
<defs>
<clipPath id="clip0">
<rect x="15.3425" y="0.0234375" width="20.6957" height="20.6957" transform="rotate(45 15.3425 0.0234375)" fill="white"/>
</clipPath>
</defs>
</svg>
