<svg width="30" height="30" viewBox="0 0 30 30" fill="none" xmlns="http://www.w3.org/2000/svg">
<g clip-path="url(#clip0)">
<path d="M1.5483 15.0381L2.78049 16.2703C3.25753 16.748 3.86441 17.0751 4.52575 17.2109C5.18709 17.3467 5.87375 17.2853 6.50046 17.0342L9.42727 15.8634C9.7406 15.7377 10.084 15.7069 10.4147 15.7748C10.7454 15.8428 11.0488 16.0064 11.2873 16.2454L13.7546 18.7127C13.9931 18.9498 14.1571 19.2516 14.2262 19.5808C14.2954 19.91 14.2668 20.2522 14.1438 20.5653L12.9731 23.4922C12.7192 24.1191 12.6556 24.8069 12.7902 25.4697C12.9247 26.1326 13.2515 26.7411 13.7297 27.2194L14.9619 28.4516C15.126 28.6004 15.3411 28.6804 15.5626 28.675C15.7841 28.6696 15.9951 28.5792 16.1517 28.4225C16.3084 28.2658 16.3988 28.0549 16.4042 27.8334C16.4097 27.6119 16.3297 27.3968 16.1809 27.2326L14.9487 26.0004C14.7101 25.7633 14.5462 25.4615 14.477 25.1323C14.4078 24.8031 14.4365 24.4609 14.5594 24.1478L15.7301 21.2209C15.9885 20.5727 16.0437 19.8612 15.8882 19.181C17.1452 19.3711 18.4301 19.1595 19.5598 18.5764C20.6894 17.9934 21.6062 17.0686 22.1794 15.9338C22.7526 14.7991 22.9529 13.5124 22.7519 12.2571C22.5508 11.0019 21.9586 9.8421 21.0597 8.94317C20.1608 8.04425 19.001 7.45204 17.7457 7.25098C16.4904 7.04992 15.2037 7.25026 14.069 7.82345C12.9343 8.39664 12.0095 9.31342 11.4264 10.4431C10.8434 11.5728 10.6318 12.8577 10.8219 14.1147C10.1416 13.9592 9.43013 14.0143 8.78191 14.2727L5.8551 15.4434C5.54177 15.5691 5.1984 15.5999 4.8677 15.532C4.537 15.4641 4.23356 15.3005 3.99512 15.0615L2.76293 13.8293C2.68442 13.7427 2.58914 13.6729 2.48286 13.6243C2.37659 13.5756 2.26153 13.549 2.14468 13.5462C2.02782 13.5433 1.91161 13.5642 1.80308 13.6076C1.69454 13.651 1.59596 13.716 1.51331 13.7987C1.43066 13.8813 1.36565 13.9799 1.32225 14.0885C1.27884 14.197 1.25794 14.3132 1.2608 14.4301C1.26366 14.5469 1.29023 14.662 1.3389 14.7682C1.38757 14.8745 1.45731 14.9698 1.54392 15.0483L1.5483 15.0381ZM13.7428 10.1605C14.3457 9.55765 15.1139 9.14708 15.9501 8.98074C16.7863 8.81441 17.6531 8.89978 18.4408 9.22606C19.2285 9.55234 19.9018 10.1049 20.3755 10.8138C20.8492 11.5227 21.102 12.3562 21.102 13.2088C21.102 14.0614 20.8492 14.8949 20.3755 15.6038C19.9018 16.3127 19.2285 16.8653 18.4408 17.1916C17.6531 17.5179 16.7863 17.6032 15.9501 17.4369C15.1139 17.2705 14.3457 16.86 13.7428 16.2571C12.9359 15.4478 12.4828 14.3516 12.4828 13.2088C12.4828 12.066 12.9359 10.9698 13.7428 10.1605Z" fill="#6F51FF"/>
</g>
<defs>
<clipPath id="clip0">
<rect x="14.6575" y="29.9766" width="20.6957" height="20.6957" transform="rotate(-135 14.6575 29.9766)" fill="white"/>
</clipPath>
</defs>
</svg>
