<svg width="9" height="11" viewBox="0 0 9 11" fill="none" xmlns="http://www.w3.org/2000/svg">
<path d="M0.232 11V0.568H3.8C4.344 0.568 4.84533 0.610666 5.304 0.695999C5.77333 0.770666 6.17867 0.909333 6.52 1.112C6.872 1.31467 7.144 1.58133 7.336 1.912C7.53867 2.24267 7.64 2.65867 7.64 3.16C7.64 3.39467 7.608 3.62933 7.544 3.864C7.48 4.09867 7.38933 4.31733 7.272 4.52C7.15467 4.72267 7.01067 4.904 6.84 5.064C6.68 5.224 6.49333 5.34133 6.28 5.416V5.48C6.54667 5.544 6.792 5.64533 7.016 5.784C7.24 5.912 7.43733 6.07733 7.608 6.28C7.77867 6.48267 7.912 6.72267 8.008 7C8.104 7.26667 8.152 7.576 8.152 7.928C8.152 8.46133 8.04533 8.92 7.832 9.304C7.62933 9.688 7.34133 10.008 6.968 10.264C6.60533 10.5093 6.17867 10.696 5.688 10.824C5.19733 10.9413 4.66933 11 4.104 11H0.232ZM2.584 4.744H3.688C4.264 4.744 4.68 4.632 4.936 4.408C5.20267 4.184 5.336 3.88533 5.336 3.512C5.336 3.10667 5.20267 2.81867 4.936 2.648C4.66933 2.47733 4.25867 2.392 3.704 2.392H2.584V4.744ZM2.584 9.176H3.912C5.20267 9.176 5.848 8.70667 5.848 7.768C5.848 7.30933 5.688 6.984 5.368 6.792C5.048 6.58933 4.56267 6.488 3.912 6.488H2.584V9.176Z" fill="#1F222E"/>
</svg>
