<svg width="20" height="20" viewBox="0 0 20 20" fill="none" xmlns="http://www.w3.org/2000/svg">
<g clip-path="url(#clip0)">
<path d="M14.614 0.000105209C13.014 0.000105209 11.414 0.758105 9.86 1.4921C8.4 2.1801 7.02 2.8321 5.784 2.8321C4.33903 2.81164 2.91978 2.44688 1.644 1.7681L1.59 1.7401V0.800105C1.59002 0.589653 1.5071 0.387671 1.35923 0.237926C1.21136 0.0881812 1.01044 0.00273586 0.8 0.000105209C0.587827 0.000105209 0.384344 0.0843907 0.234315 0.23442C0.0842855 0.384449 0 0.587932 0 0.800105L0 19.2001C0 19.4123 0.0842855 19.6158 0.234315 19.7658C0.384344 19.9158 0.587827 20.0001 0.8 20.0001C1.01217 20.0001 1.21566 19.9158 1.36569 19.7658C1.51571 19.6158 1.6 19.4123 1.6 19.2001V15.1421L1.742 15.2041C3.02066 15.7653 4.39967 16.0619 5.796 16.0761C7.396 16.0761 8.996 15.3081 10.554 14.5641C12 13.8661 13.382 13.2001 14.614 13.2001C16.0744 13.1863 17.5034 13.6235 18.706 14.4521L19.346 14.9801C19.4041 15.0279 19.4745 15.0583 19.5491 15.0679C19.6237 15.0775 19.6995 15.0658 19.7678 15.0343C19.836 15.0028 19.894 14.9526 19.9351 14.8896C19.9762 14.8266 19.9987 14.7533 20 14.6781V2.2241C20.0004 2.10459 19.974 1.9865 19.9228 1.87852C19.8716 1.77053 19.7968 1.6754 19.704 1.6001C18.2206 0.539123 16.4376 -0.0213444 14.614 0.000105209ZM18.414 12.4521L18.272 12.3881C17.1221 11.876 15.8768 11.6129 14.618 11.6161C13.018 11.6161 11.418 12.3841 9.86 13.1281C8.398 13.8261 7.02 14.4841 5.788 14.4841C4.35531 14.4632 2.94883 14.0968 1.688 13.4161L1.634 13.3881V3.5301L1.774 3.5881C3.04034 4.12382 4.39909 4.40712 5.774 4.4221C7.374 4.4221 8.974 3.6641 10.528 2.9301C12 2.2421 13.378 1.6001 14.614 1.6001C15.9326 1.59658 17.2277 1.94972 18.362 2.6221L18.41 2.6521L18.414 12.4521Z" fill="white"/>
</g>
<defs>
<clipPath id="clip0">
<rect width="20" height="20" fill="white"/>
</clipPath>
</defs>
</svg>
